<?xml version="1.0" encoding="UTF-8" standalone="no"?>
<svg width="18px" height="15px" viewBox="0 0 18 15" version="1.1" xmlns="http://www.w3.org/2000/svg" xmlns:xlink="http://www.w3.org/1999/xlink">
    <!-- Generator: Sketch 3.8.3 (29802) - http://www.bohemiancoding.com/sketch -->
    <title>Group 3</title>
    <desc>Created with Sketch.</desc>
    <defs></defs>
    <g id="Page-1" stroke="none" stroke-width="1" fill="none" fill-rule="evenodd">
        <g id="Desktop-HD-Copy-2" transform="translate(-1373.000000, -815.000000)" fill="#343434">
            <g id="Group-3" transform="translate(1373.000000, 815.000000)">
                <path d="M10.6363636,0 L7.36363636,0 C6.87272727,0 6.54545455,0.333333333 6.54545455,0.833333333 L6.54545455,14.1666667 C6.54545455,14.6666667 6.87272727,15 7.36363636,15 L10.6363636,15 C11.1272727,15 11.4545455,14.6666667 11.4545455,14.1666667 L11.4545455,0.833333333 C11.4545455,0.333333333 11.1272727,0 10.6363636,0 L10.6363636,0 Z" id="Shape"></path>
                <path d="M4.09090909,8.33333333 L0.818181818,8.33333333 C0.327272727,8.33333333 0,8.66666667 0,9.16666667 L0,14.1666667 C0,14.6666667 0.327272727,15 0.818181818,15 L4.09090909,15 C4.58181818,15 4.90909091,14.6666667 4.90909091,14.1666667 L4.90909091,9.16666667 C4.90909091,8.66666667 4.58181818,8.33333333 4.09090909,8.33333333 L4.09090909,8.33333333 Z" id="Shape"></path>
                <path d="M17.1818182,4.16666667 L13.9090909,4.16666667 C13.4181818,4.16666667 13.0909091,4.5 13.0909091,5 L13.0909091,14.1666667 C13.0909091,14.6666667 13.4181818,15 13.9090909,15 L17.1818182,15 C17.6727273,15 18,14.6666667 18,14.1666667 L18,5 C18,4.5 17.6727273,4.16666667 17.1818182,4.16666667 L17.1818182,4.16666667 Z" id="Shape"></path>
            </g>
        </g>
    </g>
</svg>