<?xml version="1.0" encoding="UTF-8" standalone="no"?>
<svg width="290px" height="77px" viewBox="0 0 290 77" version="1.1" xmlns="http://www.w3.org/2000/svg" xmlns:xlink="http://www.w3.org/1999/xlink">
    <!-- Generator: Sketch 3.8.3 (29802) - http://www.bohemiancoding.com/sketch -->
    <title>Group 3</title>
    <desc>Created with Sketch.</desc>
    <defs></defs>
    <g id="Page-1" stroke="none" stroke-width="1" fill="none" fill-rule="evenodd">
        <g id="Browser-Copy-2" transform="translate(-615.000000, -301.000000)">
            <g id="Group-3" transform="translate(615.000000, 290.000000)">
                <g id="social-color-1_logo-codepen" transform="translate(0.000000, 11.000000)">
                    <g id="Group">
                        <circle id="Oval" fill="#030502" cx="34.5" cy="34.5" r="34.5"></circle>
                        <path d="M56.6197037,25.84763 L35.5963669,11.8321487 C34.9322562,11.3893556 34.0676719,11.3893556 33.4034894,11.8321487 L12.3801525,25.84763 C11.8529494,26.2014275 11.5,26.8211625 11.5,27.4919575 L11.5,41.5074531 C11.5,42.1859531 11.8631556,42.8122431 12.3801525,43.1516225 L33.403475,57.1672763 C33.7355231,57.3885937 34.1179269,57.4999569 34.5002156,57.4999569 C34.881915,57.4999569 35.2641462,57.3885938 35.5963525,57.1672763 L56.6196894,43.1516225 C57.1282481,42.8221331 57.5,42.1936869 57.5,41.5074531 L57.5,27.4919575 C57.5,26.8560362 57.1729975,26.2141063 56.6197037,25.84763 L56.6197037,25.84763 Z M36.4766775,17.1702475 L51.9639719,27.4943438 L45.0462906,32.1222025 L36.4766919,26.3896969 L36.4766919,17.1702475 L36.4766775,17.1702475 Z M32.5232363,17.1702475 L32.5232363,26.3896969 L23.9541119,32.1222025 L17.03587,27.4943438 L32.5232363,17.1702475 L32.5232363,17.1702475 Z M15.453355,31.1918669 L20.3988581,34.4996981 L15.453355,37.8076156 L15.453355,31.1918669 L15.453355,31.1918669 Z M32.5232363,51.8291631 L17.03587,41.5049806 L23.9541119,36.8783869 L32.5232363,42.6097137 L32.5232363,51.8291631 L32.5232363,51.8291631 Z M34.50023,39.1759575 L27.5088194,34.4996981 L34.50023,29.8234531 L41.4911087,34.4996981 L34.50023,39.1759575 L34.50023,39.1759575 Z M36.4766775,51.8291631 L36.4766775,42.6097137 L45.0462762,36.8783869 L51.9639575,41.5049806 L36.4766775,51.8291631 L36.4766775,51.8291631 Z M53.5464869,37.8076156 L48.6016163,34.4996981 L53.5464869,31.1918669 L53.5464869,37.8076156 L53.5464869,37.8076156 Z" id="Shape" fill="#FFFFFF"></path>
                    </g>
                </g>
                <g id="Group-12" transform="translate(85.000000, 0.000000)" font-size="52.0840682" font-family="Avenir-Light, Avenir" fill="#000000" font-weight="300">
                    <text id="Analytics">
                        <tspan x="0.790217571" y="52">Analytics</tspan>
                    </text>
                </g>
                <path d="M102.644615,15.1244797 L106.186332,15.1244797 L121.707384,52 L117.853163,52 L113.84269,42.2081952 L94.3111641,42.2081952 L90.1444386,52 L86.5506379,52 L102.644615,15.1244797 Z M104.259221,18.8745326 L95.6653498,39.0831511 L112.592672,39.0831511 L104.259221,18.8745326 Z M126.13453,34.7080894 C126.13453,34.2566919 126.117169,33.7098146 126.082446,33.0674412 C126.047723,32.4250678 126.021681,31.7740235 126.00432,31.1142887 C125.986958,30.4545538 125.960916,29.8382319 125.926193,29.2653042 C125.891471,28.6923766 125.874109,28.2496665 125.874109,27.9371605 L128.999153,27.9371605 C129.033876,28.8399555 129.059918,29.7080147 129.07728,30.5413639 C129.094641,31.3747132 129.138044,31.9129098 129.20749,32.15597 L129.363742,32.15597 C129.988754,30.8365004 131.030425,29.6993429 132.488786,28.7444636 C133.947147,27.7895842 135.648543,27.3121517 137.593025,27.3121517 C139.468061,27.3121517 140.995845,27.6072918 142.176423,28.1975808 C143.357001,28.7878699 144.285824,29.5604425 144.96292,30.5153219 C145.640017,31.4702012 146.108769,32.5726363 146.36919,33.8226602 C146.629612,35.0726841 146.759821,36.3574116 146.759821,37.6768813 L146.759821,52 L143.634777,52 L143.634777,37.8331335 C143.634777,36.8608927 143.547971,35.9147082 143.374356,34.9945517 C143.200742,34.0743953 142.896921,33.2497391 142.462885,32.5205585 C142.028849,31.7913779 141.421208,31.2097783 140.639943,30.7757422 C139.858678,30.3417061 138.843049,30.1246914 137.593025,30.1246914 C136.447169,30.1246914 135.362096,30.324345 134.33777,30.7236582 C133.313445,31.1229713 132.428025,31.7306127 131.681483,32.5466005 C130.934941,33.3625884 130.344661,34.3868981 129.910625,35.6195606 C129.476589,36.852223 129.259574,38.3018817 129.259574,39.9685803 L129.259574,52 L126.13453,52 L126.13453,34.7080894 Z M173.791452,41.8956908 C173.791452,43.0762689 173.800133,44.135301 173.817494,45.0728189 C173.834856,46.0103368 173.860897,46.878396 173.89562,47.6770223 C173.930343,48.4756487 173.973746,49.2221796 174.02583,49.9166373 C174.077915,50.611095 174.15604,51.3055423 174.260209,52 L171.343501,52 C171.135164,50.8194219 171.030996,49.5173332 171.030996,48.0936949 L170.926828,48.0936949 C170.024033,49.6562247 168.904237,50.8020628 167.567406,51.5312434 C166.230575,52.260424 164.53786,52.6250088 162.489209,52.6250088 C161.447523,52.6250088 160.423213,52.4947999 159.416249,52.2343783 C158.409286,51.9739567 157.506504,51.5572883 156.707878,50.9843607 C155.909251,50.4114331 155.258207,49.6735828 154.754725,48.7707878 C154.251243,47.8679927 153.999506,46.7742383 153.999506,45.4894915 C153.999506,43.6491785 154.468258,42.1908392 155.405776,41.1144298 C156.343294,40.0380203 157.497813,39.2307253 158.869367,38.6925206 C160.240921,38.1543159 161.69926,37.8070922 163.244428,37.6508392 C164.789597,37.4945862 166.15245,37.4164609 167.333028,37.4164609 L170.978912,37.4164609 L170.978912,35.958107 C170.978912,33.8747339 170.336549,32.3816722 169.051802,31.4788771 C167.767055,30.5760821 166.152465,30.1246914 164.207984,30.1246914 C161.430153,30.1246914 158.982226,31.0274729 156.86413,32.8330629 L155.041188,30.6976161 C156.187043,29.5864838 157.61066,28.7444664 159.312081,28.1715388 C161.013503,27.5986112 162.645454,27.3121517 164.207984,27.3121517 C167.124706,27.3121517 169.451104,27.9979184 171.187249,29.3694724 C172.923393,30.7410264 173.791452,32.9545771 173.791452,36.0101911 L173.791452,41.8956908 Z M167.541364,39.9164962 C166.221894,39.9164962 164.945847,40.0033021 163.713185,40.1769165 C162.480522,40.350531 161.369407,40.6456711 160.379805,41.0623457 C159.390202,41.4790203 158.600268,42.0345782 158.009979,42.7290359 C157.41969,43.4234936 157.12455,44.2915527 157.12455,45.3332393 C157.12455,46.0624199 157.289482,46.7134642 157.619349,47.2863918 C157.949216,47.8593194 158.374565,48.3280714 158.895409,48.6926617 C159.416252,49.057252 159.997851,49.3350309 160.640225,49.5260068 C161.282598,49.7169826 161.933643,49.8124691 162.593377,49.8124691 C164.260076,49.8124691 165.631609,49.5694126 166.708019,49.0832922 C167.784428,48.5971718 168.643807,47.9634886 169.28618,47.1822237 C169.928554,46.4009588 170.371264,45.5155385 170.614324,44.5259362 C170.857384,43.536334 170.978912,42.538066 170.978912,41.5311023 L170.978912,39.9164962 L167.541364,39.9164962 Z M182.645744,12.6244445 L185.770788,12.6244445 L185.770788,52 L182.645744,52 L182.645744,12.6244445 Z M201.396008,59.4480217 C200.805719,61.0105516 199.989744,62.2431956 198.948057,63.1459906 C197.90637,64.0487856 196.517476,64.5001764 194.781332,64.5001764 C194.260488,64.5001764 193.739653,64.4567734 193.21881,64.3699662 C192.697966,64.283159 192.194492,64.1703113 191.708372,64.0314197 L192.020876,61.1147119 C192.472273,61.2536035 192.932345,61.3838123 193.401104,61.5053424 C193.869863,61.6268725 194.347295,61.6876367 194.833416,61.6876367 C195.388982,61.6876367 195.883776,61.5661084 196.317812,61.3230482 C196.751848,61.079988 197.125113,60.7674867 197.437619,60.385535 C197.750125,60.0035832 198.019223,59.5782343 198.244922,59.1094753 C198.470621,58.6407163 198.670274,58.1632838 198.843889,57.6771634 L201.03142,52.1041681 L191.239615,27.9371605 L194.729247,27.9371605 L202.69811,48.197863 L210.458636,27.9371605 L213.792016,27.9371605 L201.396008,59.4480217 Z M230.511002,30.7497002 L223.635905,30.7497002 L223.635905,46.4270047 C223.635905,47.5034142 223.931045,48.3367509 224.521334,48.92704 C225.111624,49.517329 225.927599,49.8124691 226.969286,49.8124691 C227.559575,49.8124691 228.158536,49.7343438 228.766186,49.5780908 C229.373837,49.4218378 229.955436,49.2221842 230.511002,48.979124 L230.771423,51.7916637 C230.181134,52.000001 229.504047,52.190974 228.740144,52.3645885 C227.976241,52.5382029 227.299154,52.6250088 226.708865,52.6250088 C225.597733,52.6250088 224.642868,52.4600776 223.844242,52.1302102 C223.045615,51.8003428 222.403251,51.3576326 221.917131,50.8020664 C221.431011,50.2465003 221.075106,49.5954559 220.849408,48.8489139 C220.623709,48.1023718 220.510861,47.2950768 220.510861,46.4270047 L220.510861,30.7497002 L215.302454,30.7497002 L215.302454,27.9371605 L220.510861,27.9371605 L220.510861,21.0099794 L223.635905,21.0099794 L223.635905,27.9371605 L230.511002,27.9371605 L230.511002,30.7497002 Z M236.656922,27.9371605 L239.781966,27.9371605 L239.781966,52 L236.656922,52 L236.656922,27.9371605 Z M235.875661,18.405776 C235.875661,17.7460412 236.101357,17.1904834 236.552754,16.7390858 C237.004152,16.2876883 237.55971,16.061993 238.219444,16.061993 C238.879179,16.061993 239.434737,16.2876883 239.886135,16.7390858 C240.337532,17.1904834 240.563227,17.7460412 240.563227,18.405776 C240.563227,19.0655109 240.337532,19.6210687 239.886135,20.0724662 C239.434737,20.5238637 238.879179,20.7495591 238.219444,20.7495591 C237.55971,20.7495591 237.004152,20.5238637 236.552754,20.0724662 C236.101357,19.6210687 235.875661,19.0655109 235.875661,18.405776 L235.875661,18.405776 Z M268.792792,48.4582834 C267.612214,49.8819217 266.275403,50.9322732 264.782319,51.6093695 C263.289235,52.2864658 261.674645,52.6250088 259.938501,52.6250088 C258.098188,52.6250088 256.396792,52.3125075 254.834262,51.6874956 C253.271732,51.0624836 251.934921,50.1857439 250.823789,49.0572501 C249.712657,47.9287564 248.844597,46.5919453 248.219586,45.0467769 C247.594574,43.5016085 247.282072,41.8088932 247.282072,39.9685803 C247.282072,38.1282673 247.594574,36.435552 248.219586,34.8903836 C248.844597,33.3452152 249.712657,32.0084041 250.823789,30.8799104 C251.934921,29.7514166 253.271732,28.8746769 254.834262,28.2496649 C256.396792,27.624653 258.098188,27.3121517 259.938501,27.3121517 C261.709368,27.3121517 263.35,27.6767365 264.860445,28.4059171 C266.370891,29.1350977 267.716382,30.1594075 268.896961,31.4788771 L266.396925,33.3539036 C265.49413,32.3469399 264.504543,31.5570061 263.428133,30.9840785 C262.351724,30.4111509 261.188525,30.1246914 259.938501,30.1246914 C258.48014,30.1246914 257.16069,30.3851091 255.980112,30.9059524 C254.799534,31.4267957 253.792585,32.1299236 252.959236,33.0153572 C252.125886,33.9007907 251.492203,34.9424617 251.058167,36.1404012 C250.624131,37.3383408 250.407116,38.6143877 250.407116,39.9685803 C250.407116,41.3227728 250.624131,42.5988197 251.058167,43.7967593 C251.492203,44.9946988 252.125886,46.0363698 252.959236,46.9218034 C253.792585,47.8072369 254.799534,48.5103648 255.980112,49.0312081 C257.16069,49.5520514 258.48014,49.8124691 259.938501,49.8124691 C261.257971,49.8124691 262.464573,49.5086484 263.558344,48.9009979 C264.652114,48.2933474 265.598299,47.4860525 266.396925,46.4790888 L268.792792,48.4582834 Z M273.740779,45.85408 C274.400514,47.1388267 275.37274,48.1197335 276.657487,48.7968298 C277.942234,49.4739261 279.296406,49.8124691 280.720044,49.8124691 C281.379779,49.8124691 282.039504,49.708302 282.699239,49.4999647 C283.358973,49.2916274 283.949254,48.9964873 284.470097,48.6145356 C284.99094,48.2325838 285.416289,47.7725125 285.746157,47.2343078 C286.076024,46.696103 286.240955,46.0797811 286.240955,45.3853233 C286.240955,44.274191 285.885051,43.4408542 285.173232,42.8852881 C284.461413,42.3297219 283.584673,41.8956923 282.542986,41.5831864 C281.5013,41.2706804 280.355462,41.0015821 279.105438,40.7758833 C277.855414,40.5501846 276.709576,40.2029609 275.667889,39.7342019 C274.626203,39.265443 273.749463,38.6143986 273.037644,37.7810494 C272.325825,36.9477001 271.969921,35.7671397 271.969921,34.2393328 C271.969921,33.0587546 272.212977,32.0344449 272.699098,31.1663727 C273.185218,30.2983006 273.818901,29.5778115 274.600166,29.0048839 C275.381431,28.4319563 276.258171,28.0066073 277.230411,27.7288242 C278.202652,27.4510411 279.19224,27.3121517 280.199203,27.3121517 C282.178408,27.3121517 283.888484,27.6767365 285.329484,28.4059171 C286.770484,29.1350977 287.89028,30.2809358 288.688906,31.8434656 L285.876367,33.5101558 C285.286078,32.3990235 284.548227,31.5570061 283.662794,30.9840785 C282.77736,30.4111509 281.622842,30.1246914 280.199203,30.1246914 C279.643637,30.1246914 279.062038,30.2114973 278.454387,30.3851117 C277.846737,30.5587261 277.299859,30.8017827 276.813739,31.1142887 C276.327619,31.4267946 275.919631,31.8261018 275.589763,32.3122222 C275.259896,32.7983426 275.094965,33.3539005 275.094965,33.9789124 C275.094965,35.0553219 275.450869,35.8539363 276.162688,36.3747795 C276.874507,36.8956228 277.751247,37.3036106 278.792934,37.5987552 C279.83462,37.8938997 280.980458,38.1456368 282.230482,38.3539741 C283.480506,38.5623115 284.626344,38.9008545 285.668031,39.3696135 C286.709717,39.8383724 287.586457,40.5154585 288.298276,41.4008921 C289.010095,42.2863257 289.365999,43.5450114 289.365999,45.1769871 C289.365999,46.427011 289.131623,47.5120849 288.662864,48.4322413 C288.194105,49.3523978 287.551742,50.1249704 286.735754,50.7499824 C285.919766,51.3749943 284.990943,51.8437462 283.949256,52.1562522 C282.90757,52.4687582 281.813815,52.6250088 280.66796,52.6250088 C278.584587,52.6250088 276.683537,52.2257016 274.964755,51.4270753 C273.245972,50.6284489 271.917841,49.3958049 270.980323,47.7291064 L273.740779,45.85408 Z" id="Analytics" fill="#000000"></path>
                <path d="M96.229699,74.8675999 C95.8504971,74.4673312 95.3975683,74.1513344 94.8708989,73.9195999 C94.3442296,73.6878654 93.7333024,73.5719999 93.0380989,73.5719999 C92.3218287,73.5719999 91.6793018,73.7036652 91.1104989,73.9669999 C90.5416961,74.2303345 90.0598009,74.5831977 89.6647989,75.0255999 C89.2697969,75.4680021 88.9669666,75.981497 88.7562989,76.5660999 C88.5456312,77.1507028 88.4402989,77.7642634 88.4402989,78.4067999 C88.4402989,79.0493365 88.5456312,79.662897 88.7562989,80.2475 C88.9669666,80.8321029 89.2697969,81.3455978 89.6647989,81.788 C90.0598009,82.2304022 90.5416961,82.5832653 91.1104989,82.8466 C91.6793018,83.1099346 92.3218287,83.2416 93.0380989,83.2416 C93.6174352,83.2416 94.1730629,83.1705007 94.7049989,83.0283 C95.2369349,82.8860993 95.7135635,82.6938679 96.134899,82.4516 L96.134899,78.7069999 L93.4646989,78.7069999 L93.4646989,77.6641999 L97.272499,77.6641999 L97.272499,83.1468 C96.6404958,83.5154685 95.9479361,83.7972324 95.194799,83.9921 C94.4416618,84.1869676 93.722769,84.2844 93.0380989,84.2844 C92.2059614,84.2844 91.4344025,84.1369348 90.7233989,83.842 C90.0123953,83.5470652 89.3962015,83.1389026 88.8747989,82.6175 C88.3533963,82.0960974 87.9452337,81.4772702 87.6502989,80.761 C87.355364,80.0447297 87.2078989,79.2600042 87.2078989,78.4067999 C87.2078989,77.5535957 87.355364,76.7688702 87.6502989,76.0525999 C87.9452337,75.3363296 88.3533963,74.7175025 88.8747989,74.1960999 C89.3962015,73.6746973 90.0123953,73.2665347 90.7233989,72.9715999 C91.4344025,72.6766651 92.2059614,72.5291999 93.0380989,72.5291999 C93.9334367,72.5291999 94.7049957,72.6529653 95.352799,72.9004999 C96.0006022,73.1480344 96.5772964,73.5245973 97.082899,74.0301999 L96.229699,74.8675999 Z M105.630699,79.7339999 C105.630699,79.0282631 105.420035,78.4568355 104.998699,78.0196999 C104.577364,77.5825644 103.987503,77.3639999 103.229099,77.3639999 C102.892031,77.3639999 102.565501,77.4298326 102.249499,77.5614999 C101.933497,77.6931672 101.657,77.8695988 101.419999,78.0907999 C101.182998,78.312001 100.9934,78.5647985 100.851199,78.8491999 C100.708998,79.1336014 100.637899,79.4285318 100.637899,79.7339999 L105.630699,79.7339999 Z M100.606299,80.5872 C100.637899,80.9558685 100.727432,81.303465 100.874899,81.63 C101.022366,81.9565349 101.217231,82.2382988 101.459499,82.4753 C101.701767,82.7123012 101.980897,82.899266 102.296899,83.0362 C102.612901,83.173134 102.955231,83.2416 103.323899,83.2416 C103.882169,83.2416 104.364064,83.1125679 104.769599,82.8545 C105.175134,82.596432 105.483231,82.2988683 105.693899,81.9618 L106.499699,82.6254 C106.057297,83.1836694 105.570135,83.5839321 105.038199,83.8262 C104.506263,84.0684679 103.934835,84.1896 103.323899,84.1896 C102.776163,84.1896 102.267935,84.0921676 101.799199,83.8973 C101.330463,83.7024324 100.927567,83.4312017 100.590499,83.0836 C100.253431,82.7359982 99.9874667,82.3252023 99.792599,81.8512 C99.5977314,81.3771976 99.500299,80.8610694 99.500299,80.3028 C99.500299,79.7445305 99.5950981,79.2284023 99.784699,78.7543999 C99.9743,78.2803976 100.237631,77.8696017 100.574699,77.5219999 C100.911767,77.1743982 101.306763,76.9031676 101.759699,76.7082999 C102.212635,76.5134323 102.70243,76.4159999 103.229099,76.4159999 C103.787369,76.4159999 104.287697,76.5160656 104.730099,76.7161999 C105.172501,76.9163342 105.543798,77.1822983 105.843999,77.5140999 C106.144201,77.8459016 106.373298,78.235631 106.531299,78.6832999 C106.6893,79.1309688 106.768299,79.6075974 106.768299,80.1132 L106.768299,80.5872 L100.606299,80.5872 Z M112.487899,77.5535999 L110.354899,77.5535999 L110.354899,81.9144 C110.354899,82.188268 110.381232,82.4120991 110.433899,82.5859 C110.486566,82.7597009 110.560299,82.8939995 110.655099,82.9888 C110.7499,83.0836005 110.863132,83.1494331 110.994799,83.1863 C111.126466,83.2231668 111.271298,83.2416 111.429299,83.2416 C111.608367,83.2416 111.792698,83.2152669 111.982299,83.1626 C112.1719,83.1099331 112.345698,83.0414671 112.503699,82.9572 L112.551099,83.921 C112.161364,84.1000676 111.692635,84.1896 111.144899,84.1896 C110.944765,84.1896 110.736734,84.1632669 110.520799,84.1106 C110.304865,84.0579331 110.107367,83.9578674 109.928299,83.8104 C109.749232,83.6629326 109.601766,83.4628013 109.485899,83.21 C109.370032,82.9571987 109.312099,82.625402 109.312099,82.2146 L109.312099,77.5535999 L107.747899,77.5535999 L107.747899,76.6055999 L109.312099,76.6055999 L109.312099,74.5199999 L110.354899,74.5199999 L110.354899,76.6055999 L112.487899,76.6055999 L112.487899,77.5535999 Z M122.125899,77.5535999 L119.992899,77.5535999 L119.992899,81.9144 C119.992899,82.188268 120.019232,82.4120991 120.071899,82.5859 C120.124566,82.7597009 120.198299,82.8939995 120.293099,82.9888 C120.3879,83.0836005 120.501132,83.1494331 120.632799,83.1863 C120.764467,83.2231668 120.909298,83.2416 121.067299,83.2416 C121.246367,83.2416 121.430698,83.2152669 121.620299,83.1626 C121.8099,83.1099331 121.983698,83.0414671 122.141699,82.9572 L122.189099,83.921 C121.799364,84.1000676 121.330635,84.1896 120.782899,84.1896 C120.582765,84.1896 120.374734,84.1632669 120.158799,84.1106 C119.942865,84.0579331 119.745367,83.9578674 119.566299,83.8104 C119.387232,83.6629326 119.239766,83.4628013 119.123899,83.21 C119.008032,82.9571987 118.950099,82.625402 118.950099,82.2146 L118.950099,77.5535999 L117.385899,77.5535999 L117.385899,76.6055999 L118.950099,76.6055999 L118.950099,74.5199999 L119.992899,74.5199999 L119.992899,76.6055999 L122.125899,76.6055999 L122.125899,77.5535999 Z M129.883699,80.3028 C129.883699,79.8919979 129.817867,79.5075351 129.686199,79.1493999 C129.554532,78.7912648 129.367567,78.4805346 129.125299,78.2171999 C128.883031,77.9538653 128.590734,77.745834 128.248399,77.5930999 C127.906064,77.4403658 127.518968,77.3639999 127.087099,77.3639999 C126.655231,77.3639999 126.268134,77.4403658 125.925799,77.5930999 C125.583464,77.745834 125.293801,77.9538653 125.056799,78.2171999 C124.819798,78.4805346 124.635467,78.7912648 124.503799,79.1493999 C124.372132,79.5075351 124.306299,79.8919979 124.306299,80.3028 C124.306299,80.713602 124.372132,81.0980648 124.503799,81.4562 C124.635467,81.8143351 124.819798,82.1250653 125.056799,82.3884 C125.293801,82.6517346 125.583464,82.8597659 125.925799,83.0125 C126.268134,83.1652341 126.655231,83.2416 127.087099,83.2416 C127.518968,83.2416 127.906064,83.1652341 128.248399,83.0125 C128.590734,82.8597659 128.883031,82.6517346 129.125299,82.3884 C129.367567,82.1250653 129.554532,81.8143351 129.686199,81.4562 C129.817867,81.0980648 129.883699,80.713602 129.883699,80.3028 L129.883699,80.3028 Z M131.021299,80.3028 C131.021299,80.8610694 130.923867,81.3771976 130.728999,81.8512 C130.534132,82.3252023 130.262901,82.7359982 129.915299,83.0836 C129.567698,83.4312017 129.154268,83.7024324 128.674999,83.8973 C128.19573,84.0921676 127.666436,84.1896 127.087099,84.1896 C126.518296,84.1896 125.994268,84.0921676 125.514999,83.8973 C125.03573,83.7024324 124.622301,83.4312017 124.274699,83.0836 C123.927098,82.7359982 123.655867,82.3252023 123.460999,81.8512 C123.266132,81.3771976 123.168699,80.8610694 123.168699,80.3028 C123.168699,79.7445305 123.266132,79.2284023 123.460999,78.7543999 C123.655867,78.2803976 123.927098,77.8696017 124.274699,77.5219999 C124.622301,77.1743982 125.03573,76.9031676 125.514999,76.7082999 C125.994268,76.5134323 126.518296,76.4159999 127.087099,76.4159999 C127.666436,76.4159999 128.19573,76.5134323 128.674999,76.7082999 C129.154268,76.9031676 129.567698,77.1743982 129.915299,77.5219999 C130.262901,77.8696017 130.534132,78.2803976 130.728999,78.7543999 C130.923867,79.2284023 131.021299,79.7445305 131.021299,80.3028 L131.021299,80.3028 Z M138.352499,79.9394 L141.8443,76.6055999 L143.4085,76.6055999 L139.727099,79.9868 L143.8035,84 L142.1919,84 L138.352499,80.1132 L138.352499,84 L137.309699,84 L137.309699,72.0551999 L138.352499,72.0551999 L138.352499,79.9394 Z M145.9207,76.6055999 C145.941766,76.8057342 145.954933,77.0032323 145.9602,77.1980999 C145.965466,77.3929676 145.9681,77.5904656 145.9681,77.7905999 L145.9997,77.7905999 C146.115567,77.5904656 146.263032,77.4061341 146.4421,77.2375999 C146.621167,77.0690657 146.821298,76.9242339 147.0425,76.8030999 C147.263701,76.681966 147.498065,76.5871669 147.7456,76.5186999 C147.993134,76.4502329 148.238032,76.4159999 148.4803,76.4159999 C149.428304,76.4159999 150.128764,76.6661641 150.5817,77.1664999 C151.034635,77.6668358 151.2611,78.380462 151.2611,79.3073999 L151.2611,84 L150.2183,84 L150.2183,79.9078 C150.2183,79.0861958 150.076101,78.4568355 149.7917,78.0196999 C149.507298,77.5825644 148.980637,77.3639999 148.2117,77.3639999 C148.159033,77.3639999 148.011567,77.3850664 147.7693,77.4271999 C147.527032,77.4693335 147.271601,77.585199 147.003,77.7747999 C146.734398,77.9644009 146.494767,78.248798 146.2841,78.6279999 C146.073432,79.0072018 145.9681,79.5338632 145.9681,80.208 L145.9681,84 L144.9253,84 L144.9253,78.2329999 C144.9253,78.0328656 144.9174,77.7800681 144.9016,77.4745999 C144.885799,77.1691317 144.867366,76.879468 144.8463,76.6055999 L145.9207,76.6055999 Z M160.0459,80.3028 C160.0459,79.8919979 159.980067,79.5075351 159.8484,79.1493999 C159.716732,78.7912648 159.529768,78.4805346 159.2875,78.2171999 C159.045232,77.9538653 158.752935,77.745834 158.4106,77.5930999 C158.068265,77.4403658 157.681169,77.3639999 157.2493,77.3639999 C156.817431,77.3639999 156.430335,77.4403658 156.088,77.5930999 C155.745665,77.745834 155.456001,77.9538653 155.219,78.2171999 C154.981998,78.4805346 154.797667,78.7912648 154.666,79.1493999 C154.534332,79.5075351 154.4685,79.8919979 154.4685,80.3028 C154.4685,80.713602 154.534332,81.0980648 154.666,81.4562 C154.797667,81.8143351 154.981998,82.1250653 155.219,82.3884 C155.456001,82.6517346 155.745665,82.8597659 156.088,83.0125 C156.430335,83.1652341 156.817431,83.2416 157.2493,83.2416 C157.681169,83.2416 158.068265,83.1652341 158.4106,83.0125 C158.752935,82.8597659 159.045232,82.6517346 159.2875,82.3884 C159.529768,82.1250653 159.716732,81.8143351 159.8484,81.4562 C159.980067,81.0980648 160.0459,80.713602 160.0459,80.3028 L160.0459,80.3028 Z M161.1835,80.3028 C161.1835,80.8610694 161.086067,81.3771976 160.8912,81.8512 C160.696332,82.3252023 160.425101,82.7359982 160.0775,83.0836 C159.729898,83.4312017 159.316469,83.7024324 158.8372,83.8973 C158.357931,84.0921676 157.828636,84.1896 157.2493,84.1896 C156.680497,84.1896 156.156469,84.0921676 155.6772,83.8973 C155.197931,83.7024324 154.784501,83.4312017 154.4369,83.0836 C154.089298,82.7359982 153.818067,82.3252023 153.6232,81.8512 C153.428332,81.3771976 153.3309,80.8610694 153.3309,80.3028 C153.3309,79.7445305 153.428332,79.2284023 153.6232,78.7543999 C153.818067,78.2803976 154.089298,77.8696017 154.4369,77.5219999 C154.784501,77.1743982 155.197931,76.9031676 155.6772,76.7082999 C156.156469,76.5134323 156.680497,76.4159999 157.2493,76.4159999 C157.828636,76.4159999 158.357931,76.5134323 158.8372,76.7082999 C159.316469,76.9031676 159.729898,77.1743982 160.0775,77.5219999 C160.425101,77.8696017 160.696332,78.2803976 160.8912,78.7543999 C161.086067,79.2284023 161.1835,79.7445305 161.1835,80.3028 L161.1835,80.3028 Z M163.3955,76.6055999 L165.1019,82.6096 L165.1335,82.6096 L167.1085,76.6055999 L168.1829,76.6055999 L170.1579,82.6096 L170.1895,82.6096 L171.8959,76.6055999 L173.1283,76.6055999 L170.7899,84 L169.6207,84 L167.6615,77.9327999 L167.6299,77.9327999 L165.6707,84 L164.5015,84 L162.1631,76.6055999 L163.3955,76.6055999 Z M181.6287,82.7202 L183.8881,76.6055999 L185.1521,76.6055999 L181.4549,85.9276 C181.233699,86.4964029 180.951935,86.9493317 180.6096,87.2864 C180.267265,87.6234684 179.774837,87.792 179.1323,87.792 C178.974299,87.792 178.813667,87.7867334 178.6504,87.7762 C178.487132,87.7656667 178.326501,87.734067 178.1685,87.6814 L178.2791,86.6702 C178.500301,86.7860673 178.763632,86.844 179.0691,86.844 C179.437768,86.844 179.727432,86.7281345 179.9381,86.4964 C180.148768,86.2646655 180.333099,85.9381355 180.4911,85.5168 L181.0283,84.0948 L177.9947,76.6055999 L179.3061,76.6055999 L181.6287,82.7202 Z M192.8309,80.3028 C192.8309,79.8919979 192.765067,79.5075351 192.6334,79.1493999 C192.501733,78.7912648 192.314768,78.4805346 192.0725,78.2171999 C191.830232,77.9538653 191.537935,77.745834 191.1956,77.5930999 C190.853265,77.4403658 190.466169,77.3639999 190.0343,77.3639999 C189.602431,77.3639999 189.215335,77.4403658 188.873,77.5930999 C188.530665,77.745834 188.241001,77.9538653 188.004,78.2171999 C187.766999,78.4805346 187.582667,78.7912648 187.451,79.1493999 C187.319333,79.5075351 187.2535,79.8919979 187.2535,80.3028 C187.2535,80.713602 187.319333,81.0980648 187.451,81.4562 C187.582667,81.8143351 187.766999,82.1250653 188.004,82.3884 C188.241001,82.6517346 188.530665,82.8597659 188.873,83.0125 C189.215335,83.1652341 189.602431,83.2416 190.0343,83.2416 C190.466169,83.2416 190.853265,83.1652341 191.1956,83.0125 C191.537935,82.8597659 191.830232,82.6517346 192.0725,82.3884 C192.314768,82.1250653 192.501733,81.8143351 192.6334,81.4562 C192.765067,81.0980648 192.8309,80.713602 192.8309,80.3028 L192.8309,80.3028 Z M193.9685,80.3028 C193.9685,80.8610694 193.871068,81.3771976 193.6762,81.8512 C193.481332,82.3252023 193.210102,82.7359982 192.8625,83.0836 C192.514898,83.4312017 192.101469,83.7024324 191.6222,83.8973 C191.142931,84.0921676 190.613636,84.1896 190.0343,84.1896 C189.465497,84.1896 188.941469,84.0921676 188.4622,83.8973 C187.982931,83.7024324 187.569502,83.4312017 187.2219,83.0836 C186.874298,82.7359982 186.603068,82.3252023 186.4082,81.8512 C186.213332,81.3771976 186.1159,80.8610694 186.1159,80.3028 C186.1159,79.7445305 186.213332,79.2284023 186.4082,78.7543999 C186.603068,78.2803976 186.874298,77.8696017 187.2219,77.5219999 C187.569502,77.1743982 187.982931,76.9031676 188.4622,76.7082999 C188.941469,76.5134323 189.465497,76.4159999 190.0343,76.4159999 C190.613636,76.4159999 191.142931,76.5134323 191.6222,76.7082999 C192.101469,76.9031676 192.514898,77.1743982 192.8625,77.5219999 C193.210102,77.8696017 193.481332,78.2803976 193.6762,78.7543999 C193.871068,79.2284023 193.9685,79.7445305 193.9685,80.3028 L193.9685,80.3028 Z M201.2049,84 C201.183833,83.7998657 201.170667,83.6023676 201.1654,83.4075 C201.160134,83.2126323 201.1575,83.0151343 201.1575,82.815 L201.1259,82.815 C201.010033,83.0151343 200.862568,83.1994658 200.6835,83.368 C200.504433,83.5365342 200.304301,83.6813661 200.0831,83.8025 C199.861899,83.9236339 199.627535,84.018433 199.38,84.0869 C199.132466,84.155367 198.887568,84.1896 198.6453,84.1896 C197.697295,84.1896 196.996836,83.9394358 196.5439,83.4391 C196.090965,82.9387642 195.8645,82.2251379 195.8645,81.2982 L195.8645,76.6055999 L196.9073,76.6055999 L196.9073,80.6978 C196.9073,81.108602 196.9389,81.4719984 197.0021,81.788 C197.0653,82.1040016 197.173266,82.3699656 197.326,82.5859 C197.478734,82.8018344 197.684132,82.9650994 197.9422,83.0757 C198.200268,83.1863005 198.524165,83.2416 198.9139,83.2416 C198.966567,83.2416 199.114032,83.2205335 199.3563,83.1784 C199.598568,83.1362664 199.853999,83.0204009 200.1226,82.8308 C200.391202,82.641199 200.630833,82.3568019 200.8415,81.9776 C201.052168,81.5983981 201.1575,81.0717367 201.1575,80.3976 L201.1575,76.6055999 L202.2003,76.6055999 L202.2003,82.3726 C202.2003,82.5727343 202.2082,82.8255318 202.224,83.131 C202.2398,83.4364682 202.258233,83.726132 202.2793,84 L201.2049,84 Z M204.7599,78.9123999 C204.7599,78.585865 204.752,78.2540683 204.7362,77.9169999 C204.7204,77.5799316 204.707234,77.1428026 204.6967,76.6055999 L205.7237,76.6055999 L205.7237,77.9801999 L205.7553,77.9801999 C205.829034,77.7800656 205.934366,77.5878342 206.0713,77.4034999 C206.208234,77.2191657 206.374133,77.0532673 206.569,76.9057999 C206.763868,76.7583325 206.990332,76.6398337 207.2484,76.5502999 C207.506468,76.4607661 207.798765,76.4159999 208.1253,76.4159999 C208.420235,76.4159999 208.678299,76.4475996 208.8995,76.5107999 L208.6941,77.5377999 C208.557166,77.485133 208.357035,77.4587999 208.0937,77.4587999 C207.693432,77.4587999 207.351102,77.5351658 207.0667,77.6878999 C206.782299,77.840634 206.545301,78.0354987 206.3557,78.2724999 C206.166099,78.5095011 206.026534,78.7649319 205.937,79.0387999 C205.847467,79.312668 205.8027,79.5759987 205.8027,79.8287999 L205.8027,84 L204.7599,84 L204.7599,78.9123999 Z M218.4901,80.3186 C218.226766,80.3186 217.897602,80.3317665 217.5026,80.3581 C217.107598,80.3844334 216.728402,80.4476328 216.365,80.5477 C216.001599,80.6477671 215.690868,80.8031322 215.4328,81.0138 C215.174732,81.2244677 215.0457,81.5141315 215.0457,81.8828 C215.0457,82.1250679 215.095733,82.3330991 215.1958,82.5069 C215.295868,82.6807009 215.430166,82.8228994 215.5987,82.9335 C215.767235,83.0441005 215.954199,83.1230998 216.1596,83.1705 C216.365001,83.2179002 216.573033,83.2416 216.7837,83.2416 C217.162902,83.2416 217.492066,83.1784006 217.7712,83.052 C218.050335,82.9255994 218.284699,82.7544344 218.4743,82.5385 C218.663901,82.3225656 218.803467,82.0697681 218.893,81.7801 C218.982534,81.4904319 219.0273,81.1823349 219.0273,80.8558 L219.0273,80.3186 L218.4901,80.3186 Z M219.0273,79.4653999 L219.0273,79.2757999 C219.0273,78.0012602 218.395307,77.3639999 217.1313,77.3639999 C216.267563,77.3639999 215.514437,77.6536637 214.8719,78.2329999 L214.2399,77.4903999 C214.935104,76.7741297 215.977893,76.4159999 217.3683,76.4159999 C217.726436,76.4159999 218.071399,76.468666 218.4032,76.5739999 C218.735002,76.6793338 219.022033,76.8399655 219.2643,77.0558999 C219.506568,77.2718343 219.701433,77.543065 219.8489,77.8695999 C219.996368,78.1961349 220.0701,78.5858643 220.0701,79.0387999 L220.0701,82.341 C220.0701,82.6254014 220.083267,82.9229651 220.1096,83.2337 C220.135934,83.5444349 220.1649,83.7998657 220.1965,84 L219.1853,84 C219.1537,83.8209324 219.130001,83.6260677 219.1142,83.4154 C219.0984,83.2047323 219.0905,82.9993343 219.0905,82.7992 L219.0589,82.7992 C218.753432,83.2942691 218.392669,83.6497656 217.9766,83.8657 C217.560532,84.0816344 217.052303,84.1896 216.4519,84.1896 C216.125365,84.1896 215.809369,84.1448338 215.5039,84.0553 C215.198432,83.9657662 214.927202,83.8288343 214.6902,83.6445 C214.453199,83.4601657 214.263601,83.2337013 214.1214,82.9651 C213.9792,82.6964986 213.9081,82.3831351 213.9081,82.025 C213.9081,81.424597 214.063466,80.953235 214.3742,80.6109 C214.684935,80.2685649 215.074665,80.0131341 215.5434,79.8445999 C216.012136,79.6760658 216.512464,79.5707335 217.0444,79.5285999 C217.576336,79.4864664 218.063498,79.4653999 218.5059,79.4653999 L219.0273,79.4653999 Z M227.827901,84 C227.806834,83.7998657 227.793667,83.6023676 227.788401,83.4075 C227.783134,83.2126323 227.780501,83.0151343 227.780501,82.815 L227.748901,82.815 C227.633033,83.0151343 227.485568,83.1994658 227.306501,83.368 C227.127433,83.5365342 226.927302,83.6813661 226.706101,83.8025 C226.484899,83.9236339 226.250535,84.018433 226.003001,84.0869 C225.755466,84.155367 225.510568,84.1896 225.268301,84.1896 C224.320296,84.1896 223.619836,83.9394358 223.1669,83.4391 C222.713965,82.9387642 222.4875,82.2251379 222.4875,81.2982 L222.4875,76.6055999 L223.530301,76.6055999 L223.530301,80.6978 C223.530301,81.108602 223.5619,81.4719984 223.625101,81.788 C223.688301,82.1040016 223.796266,82.3699656 223.949001,82.5859 C224.101735,82.8018344 224.307133,82.9650994 224.565201,83.0757 C224.823268,83.1863005 225.147165,83.2416 225.536901,83.2416 C225.589567,83.2416 225.737033,83.2205335 225.979301,83.1784 C226.221568,83.1362664 226.476999,83.0204009 226.745601,82.8308 C227.014202,82.641199 227.253833,82.3568019 227.464501,81.9776 C227.675168,81.5983981 227.780501,81.0717367 227.780501,80.3976 L227.780501,76.6055999 L228.823301,76.6055999 L228.823301,82.3726 C228.823301,82.5727343 228.8312,82.8255318 228.847001,83.131 C228.862801,83.4364682 228.881234,83.726132 228.902301,84 L227.827901,84 Z M231.904301,80.3028 C231.904301,80.713602 231.970133,81.0980648 232.101801,81.4562 C232.233468,81.8143351 232.420433,82.1250653 232.662701,82.3884 C232.904968,82.6517346 233.197266,82.8597659 233.539601,83.0125 C233.881936,83.1652341 234.269032,83.2416 234.700901,83.2416 C235.122236,83.2416 235.514599,83.1652341 235.878001,83.0125 C236.241402,82.8597659 236.554766,82.6517346 236.818101,82.3884 C237.081435,82.1250653 237.286833,81.8143351 237.434301,81.4562 C237.581768,81.0980648 237.655501,80.713602 237.655501,80.3028 C237.655501,79.8919979 237.581768,79.5075351 237.434301,79.1493999 C237.286833,78.7912648 237.081435,78.4805346 236.818101,78.2171999 C236.554766,77.9538653 236.241402,77.745834 235.878001,77.5930999 C235.514599,77.4403658 235.122236,77.3639999 234.700901,77.3639999 C234.269032,77.3639999 233.881936,77.4403658 233.539601,77.5930999 C233.197266,77.745834 232.904968,77.9538653 232.662701,78.2171999 C232.420433,78.4805346 232.233468,78.7912648 232.101801,79.1493999 C231.970133,79.5075351 231.904301,79.8919979 231.904301,80.3028 L231.904301,80.3028 Z M238.650901,84 L237.608101,84 L237.608101,82.7676 L237.576501,82.7676 C237.407966,83.0204013 237.207835,83.2363324 236.976101,83.4154 C236.744366,83.5944676 236.502102,83.7419328 236.249301,83.8578 C235.996499,83.9736672 235.735802,84.0579331 235.467201,84.1106 C235.198599,84.1632669 234.943169,84.1896 234.700901,84.1896 C234.121564,84.1896 233.59227,84.0921676 233.113001,83.8973 C232.633732,83.7024324 232.220302,83.4312017 231.872701,83.0836 C231.525099,82.7359982 231.253868,82.3252023 231.059001,81.8512 C230.864133,81.3771976 230.766701,80.8610694 230.766701,80.3028 C230.766701,79.7445305 230.864133,79.2284023 231.059001,78.7543999 C231.253868,78.2803976 231.525099,77.8696017 231.872701,77.5219999 C232.220302,77.1743982 232.633732,76.9031676 233.113001,76.7082999 C233.59227,76.5134323 234.121564,76.4159999 234.700901,76.4159999 C234.943169,76.4159999 235.198599,76.442333 235.467201,76.4949999 C235.735802,76.5476668 235.996499,76.6319327 236.249301,76.7477999 C236.502102,76.8636672 236.744366,77.0111324 236.976101,77.1901999 C237.207835,77.3692675 237.407966,77.5851987 237.576501,77.8379999 L237.608101,77.8379999 L237.608101,72.0551999 L238.650901,72.0551999 L238.650901,84 Z M246.677301,79.7339999 C246.677301,79.0282631 246.466636,78.4568355 246.045301,78.0196999 C245.623965,77.5825644 245.034105,77.3639999 244.275701,77.3639999 C243.938632,77.3639999 243.612102,77.4298326 243.296101,77.5614999 C242.980099,77.6931672 242.703602,77.8695988 242.466601,78.0907999 C242.2296,78.312001 242.040001,78.5647985 241.897801,78.8491999 C241.7556,79.1336014 241.684501,79.4285318 241.684501,79.7339999 L246.677301,79.7339999 Z M241.652901,80.5872 C241.684501,80.9558685 241.774033,81.303465 241.921501,81.63 C242.068968,81.9565349 242.263833,82.2382988 242.506101,82.4753 C242.748369,82.7123012 243.027499,82.899266 243.343501,83.0362 C243.659502,83.173134 244.001832,83.2416 244.370501,83.2416 C244.92877,83.2416 245.410665,83.1125679 245.816201,82.8545 C246.221736,82.596432 246.529833,82.2988683 246.740501,81.9618 L247.546301,82.6254 C247.103899,83.1836694 246.616737,83.5839321 246.084801,83.8262 C245.552865,84.0684679 244.981437,84.1896 244.370501,84.1896 C243.822765,84.1896 243.314536,84.0921676 242.845801,83.8973 C242.377065,83.7024324 241.974169,83.4312017 241.637101,83.0836 C241.300032,82.7359982 241.034068,82.3252023 240.839201,81.8512 C240.644333,81.3771976 240.546901,80.8610694 240.546901,80.3028 C240.546901,79.7445305 240.6417,79.2284023 240.831301,78.7543999 C241.020902,78.2803976 241.284232,77.8696017 241.621301,77.5219999 C241.958369,77.1743982 242.353365,76.9031676 242.806301,76.7082999 C243.259236,76.5134323 243.749031,76.4159999 244.275701,76.4159999 C244.83397,76.4159999 245.334299,76.5160656 245.776701,76.7161999 C246.219103,76.9163342 246.590399,77.1822983 246.890601,77.5140999 C247.190802,77.8459016 247.4199,78.235631 247.577901,78.6832999 C247.735902,79.1309688 247.814901,79.6075974 247.814901,80.1132 L247.814901,80.5872 L241.652901,80.5872 Z M250.706301,76.6055999 C250.727368,76.8057342 250.740534,77.0032323 250.745801,77.1980999 C250.751068,77.3929676 250.753701,77.5904656 250.753701,77.7905999 L250.785301,77.7905999 C250.901168,77.5904656 251.048633,77.4061341 251.227701,77.2375999 C251.406768,77.0690657 251.6069,76.9242339 251.828101,76.8030999 C252.049302,76.681966 252.283666,76.5871669 252.531201,76.5186999 C252.778735,76.4502329 253.023633,76.4159999 253.265901,76.4159999 C254.213906,76.4159999 254.914365,76.6661641 255.367301,77.1664999 C255.820236,77.6668358 256.046701,78.380462 256.046701,79.3073999 L256.046701,84 L255.003901,84 L255.003901,79.9078 C255.003901,79.0861958 254.861702,78.4568355 254.577301,78.0196999 C254.292899,77.5825644 253.766238,77.3639999 252.997301,77.3639999 C252.944634,77.3639999 252.797169,77.3850664 252.554901,77.4271999 C252.312633,77.4693335 252.057202,77.585199 251.788601,77.7747999 C251.519999,77.9644009 251.280369,78.248798 251.069701,78.6279999 C250.859033,79.0072018 250.753701,79.5338632 250.753701,80.208 L250.753701,84 L249.710901,84 L249.710901,78.2329999 C249.710901,78.0328656 249.703001,77.7800681 249.687201,77.4745999 C249.671401,77.1691317 249.652968,76.879468 249.631901,76.6055999 L250.706301,76.6055999 Z M260.012501,73.7615999 C260.012501,73.982801 259.933502,74.1644992 259.775501,74.3066999 C259.6175,74.4489006 259.443702,74.5199999 259.254101,74.5199999 C259.0645,74.5199999 258.890702,74.4489006 258.732701,74.3066999 C258.5747,74.1644992 258.495701,73.982801 258.495701,73.7615999 C258.495701,73.5403988 258.5747,73.3587006 258.732701,73.2164999 C258.890702,73.0742992 259.0645,73.0031999 259.254101,73.0031999 C259.443702,73.0031999 259.6175,73.0742992 259.775501,73.2164999 C259.933502,73.3587006 260.012501,73.5403988 260.012501,73.7615999 L260.012501,73.7615999 Z M259.775501,84 L258.732701,84 L258.732701,76.6055999 L259.775501,76.6055999 L259.775501,84 Z M267.675501,78.3435999 C267.496433,78.0697319 267.246269,77.8380009 266.925001,77.6483999 C266.603733,77.458799 266.237703,77.3639999 265.826901,77.3639999 C265.395032,77.3534665 265.007936,77.4219325 264.665601,77.5693999 C264.323266,77.7168673 264.030969,77.9222653 263.788701,78.1855999 C263.546433,78.4489346 263.362102,78.7622981 263.235701,79.1256999 C263.1093,79.4891018 263.046101,79.8814645 263.046101,80.3028 C263.046101,80.7241354 263.1093,81.1164981 263.235701,81.4799 C263.362102,81.8433018 263.546433,82.1566653 263.788701,82.42 C264.030969,82.6833346 264.323266,82.8887326 264.665601,83.0362 C265.007936,83.1836674 265.395032,83.2521334 265.826901,83.2416 C266.237703,83.2416 266.603733,83.1468009 266.925001,82.9572 C267.246269,82.767599 267.496433,82.535868 267.675501,82.262 L268.528701,82.9098 C268.160033,83.3416688 267.74397,83.660299 267.280501,83.8657 C266.817032,84.071101 266.332504,84.1790666 265.826901,84.1896 C265.226498,84.2001334 264.684037,84.1079676 264.199501,83.9131 C263.714965,83.7182324 263.301536,83.4470017 262.959201,83.0994 C262.616866,82.7517982 262.356169,82.338369 262.177101,81.8591 C261.998033,81.3798309 261.908501,80.8610694 261.908501,80.3028 C261.908501,79.7445305 261.998033,79.225769 262.177101,78.7464999 C262.356169,78.2672309 262.616866,77.8538017 262.959201,77.5061999 C263.301536,77.1585982 263.714965,76.8873676 264.199501,76.6924999 C264.684037,76.4976323 265.226498,76.4054665 265.826901,76.4159999 C266.332504,76.4265333 266.817032,76.5344989 267.280501,76.7398999 C267.74397,76.9453009 268.160033,77.2639311 268.528701,77.6957999 L267.675501,78.3435999 Z M275.654501,79.7339999 C275.654501,79.0282631 275.443837,78.4568355 275.022501,78.0196999 C274.601166,77.5825644 274.011305,77.3639999 273.252901,77.3639999 C272.915833,77.3639999 272.589303,77.4298326 272.273301,77.5614999 C271.9573,77.6931672 271.680802,77.8695988 271.443801,78.0907999 C271.2068,78.312001 271.017202,78.5647985 270.875001,78.8491999 C270.7328,79.1336014 270.661701,79.4285318 270.661701,79.7339999 L275.654501,79.7339999 Z M270.630101,80.5872 C270.661701,80.9558685 270.751234,81.303465 270.898701,81.63 C271.046168,81.9565349 271.241033,82.2382988 271.483301,82.4753 C271.725569,82.7123012 272.0047,82.899266 272.320701,83.0362 C272.636703,83.173134 272.979033,83.2416 273.347701,83.2416 C273.905971,83.2416 274.387866,83.1125679 274.793401,82.8545 C275.198936,82.596432 275.507033,82.2988683 275.717701,81.9618 L276.523501,82.6254 C276.081099,83.1836694 275.593937,83.5839321 275.062001,83.8262 C274.530065,84.0684679 273.958637,84.1896 273.347701,84.1896 C272.799965,84.1896 272.291737,84.0921676 271.823001,83.8973 C271.354265,83.7024324 270.951369,83.4312017 270.614301,83.0836 C270.277233,82.7359982 270.011269,82.3252023 269.816401,81.8512 C269.621533,81.3771976 269.524101,80.8610694 269.524101,80.3028 C269.524101,79.7445305 269.6189,79.2284023 269.808501,78.7543999 C269.998102,78.2803976 270.261433,77.8696017 270.598501,77.5219999 C270.935569,77.1743982 271.330565,76.9031676 271.783501,76.7082999 C272.236437,76.5134323 272.726232,76.4159999 273.252901,76.4159999 C273.811171,76.4159999 274.311499,76.5160656 274.753901,76.7161999 C275.196303,76.9163342 275.5676,77.1822983 275.867801,77.5140999 C276.168003,77.8459016 276.3971,78.235631 276.555101,78.6832999 C276.713102,79.1309688 276.792101,79.6075974 276.792101,80.1132 L276.792101,80.5872 L270.630101,80.5872 Z" id="Get-to-know-your-aud" fill="#464646" opacity="0.755655317"></path>
            </g>
        </g>
    </g>
</svg>