<?xml version="1.0" encoding="UTF-8" standalone="no"?>
<svg width="43px" height="52px" viewBox="0 0 43 52" version="1.1" xmlns="http://www.w3.org/2000/svg" xmlns:xlink="http://www.w3.org/1999/xlink">
    <!-- Generator: Sketch 3.8.3 (29802) - http://www.bohemiancoding.com/sketch -->
    <title>Group</title>
    <desc>Created with Sketch.</desc>
    <defs></defs>
    <g id="Page-1" stroke="none" stroke-width="1" fill="none" fill-rule="evenodd">
        <g id="Browser-Copy" transform="translate(-797.000000, -1751.000000)" fill="#B3B3B3">
            <g id="Group" transform="translate(797.000000, 1751.000000)">
                <path d="M42.5447692,38.6913913 C41.3814444,41.2925217 40.826094,42.4534783 39.3279915,44.7516522 C37.2409487,47.9609565 34.2962479,51.9581739 30.6472821,51.992087 C27.4058718,52.0226087 26.5728462,49.8623478 22.1725897,49.8883478 C17.7723333,49.9143478 16.8553333,52.0305217 13.6139231,52 C9.96495726,51.9672174 7.17700855,48.3577391 5.0877265,45.1461739 C-0.752410256,36.1705217 -1.36262393,25.6382609 2.23931624,20.0392174 C4.7988547,16.0578261 8.8385812,13.7313913 12.6353419,13.7313913 C16.5015214,13.7313913 18.9322991,15.8713043 22.1300427,15.8713043 C25.2314957,15.8713043 27.120359,13.728 31.5911538,13.728 C34.9702821,13.728 38.5509487,15.5853043 41.1026496,18.7946087 C32.7421624,23.4192174 34.1014274,35.4685217 42.5447692,38.6913913 L42.5447692,38.6913913 L42.5447692,38.6913913 Z" id="Shape"></path>
                <path d="M28.6710855,8.112 C30.2957094,6.00713043 31.5273333,3.03747826 31.0794701,0 C28.4258803,0.183130435 25.3244274,1.88782609 23.5128205,4.10913043 C21.8680427,6.12469565 20.5098974,9.11469565 21.0383761,12.0210435 C23.9326923,12.1126087 26.9300171,10.366087 28.6710855,8.112 L28.6710855,8.112 L28.6710855,8.112 Z" id="Shape"></path>
            </g>
        </g>
    </g>
</svg>