<?xml version="1.0" encoding="UTF-8" standalone="no"?>
<svg width="41px" height="30px" viewBox="0 0 41 30" version="1.1" xmlns="http://www.w3.org/2000/svg" xmlns:xlink="http://www.w3.org/1999/xlink">
    <!-- Generator: Sketch 3.8.3 (29802) - http://www.bohemiancoding.com/sketch -->
    <title>Group</title>
    <desc>Created with Sketch.</desc>
    <defs></defs>
    <g id="Page-1" stroke="none" stroke-width="1" fill="none" fill-rule="evenodd">
        <g id="Browser-Copy-11" transform="translate(-928.000000, -2625.000000)">
            <g id="Group-29" transform="translate(436.000000, 2604.000000)">
                <g id="flags-color-2_canada" transform="translate(492.500000, 21.000000)">
                    <g id="Group">
                        <rect id="Rectangle-path" fill="#FFFFFF" x="13.3333333" y="0" width="13.3333333" height="30"></rect>
                        <path d="M40,28.3333333 C40,29.2541667 39.2541667,30 38.3333333,30 L26.6666667,30 L26.6666667,0 L38.3333333,0 C39.2541667,0 40,0.745833333 40,1.66666667 L40,28.3333333 L40,28.3333333 Z" id="Shape" fill="#FE0000"></path>
                        <path d="M13.3333333,30 L1.66666667,30 C0.745833333,30 0,29.2541667 0,28.3333333 L0,1.66666667 C0,0.745833333 0.745833333,0 1.66666667,0 L13.3333333,0 L13.3333333,30 L13.3333333,30 Z" id="Shape" fill="#FE0000"></path>
                        <path d="M20.7291667,20.5733333 C20.7291667,20.5733333 20.3658333,17.795 20.5491667,17.8241667 C22.0825,18.0616667 22.805,18.1725 22.805,18.1725 C22.01,16.6708333 24.0075,15.9441667 25.0341667,15.0708333 C24.2383333,14.8016667 24.3466667,14.9 24.8591667,12.9891667 C23.1975,13.5166667 23.3333333,13.3625 22.9808333,12.5383333 C22.9808333,12.5383333 22.8516667,12.6858333 21.8116667,13.86 C21.6633333,14.0275 21.415,13.9158333 21.4666667,13.66 C22.0083333,10.9808333 22.0358333,10.8716667 22.0358333,10.8716667 C20.9808333,11.5083333 21.02,11.545 20.8533333,11.2158333 C20.2741667,10.0866667 20,9.53166667 20,9.53166667 C20,9.53166667 19.7258333,10.0875 19.1466667,11.215 C18.9791667,11.5433333 19.0183333,11.5075 17.9633333,10.8708333 C17.9633333,10.8708333 17.99,10.98 18.5325,13.6591667 C18.585,13.915 18.3358333,14.0275 18.1875,13.8591667 C17.1475,12.685 17.0191667,12.5375 17.0191667,12.5375 C16.6658333,13.3625 16.8033333,13.5158333 15.1408333,12.9883333 C15.6533333,14.8991667 15.7616667,14.8008333 14.9658333,15.07 C15.9933333,15.9433333 17.9908333,16.67 17.195,18.1716667 C17.195,18.1716667 17.9175,18.0608333 19.4508333,17.8233333 C19.6341667,17.7941667 19.3233333,20.625 19.3233333,20.625 L20.7291667,20.5733333 L20.7291667,20.5733333 Z" id="Shape" fill="#FE0000"></path>
                    </g>
                </g>
            </g>
        </g>
    </g>
</svg>