<?xml version="1.0" encoding="UTF-8" standalone="no"?>
<svg width="20px" height="20px" viewBox="0 0 20 20" version="1.1" xmlns="http://www.w3.org/2000/svg" xmlns:xlink="http://www.w3.org/1999/xlink">
    <!-- Generator: Sketch 3.8.3 (29802) - http://www.bohemiancoding.com/sketch -->
    <title>Shape</title>
    <desc>Created with Sketch.</desc>
    <defs></defs>
    <g id="Page-1" stroke="none" stroke-width="1" fill="none" fill-rule="evenodd">
        <g id="Browser-Copy-2" transform="translate(-1315.000000, -159.000000)" fill="#000000">
            <path d="M1334.6173,165.23809 L1325.4767,159.144389 C1325.18796,158.95187 1324.81205,158.95187 1324.52328,159.144389 L1315.38268,165.23809 C1315.15346,165.391915 1315,165.661366 1315,165.953016 L1315,172.046723 C1315,172.341723 1315.15789,172.614024 1315.38268,172.761581 L1324.52327,178.855356 C1324.66764,178.951581 1324.8339,179 1325.00011,179 C1325.16607,179 1325.33226,178.951581 1325.4767,178.855356 L1334.6173,172.761581 C1334.83841,172.618324 1335.00004,172.345086 1335.00004,172.046723 L1335.00004,165.953016 C1335.00004,165.676528 1334.85787,165.397428 1334.6173,165.23809 L1334.6173,165.23809 Z M1325.85945,161.465307 L1332.59307,165.954054 L1329.58537,167.96617 L1325.85945,165.473771 L1325.85945,161.465307 L1325.85945,161.465307 Z M1324.14056,161.465307 L1324.14056,165.473771 L1320.41484,167.96617 L1317.40691,165.954054 L1324.14056,161.465307 L1324.14056,161.465307 Z M1316.71885,167.561676 L1318.86908,168.999866 L1316.71885,170.438094 L1316.71885,167.561676 L1316.71885,167.561676 Z M1324.14056,176.534432 L1317.40691,172.045648 L1320.41484,170.034081 L1324.14056,172.525968 L1324.14056,176.534432 L1324.14056,176.534432 Z M1325.00012,171.033027 L1321.96037,168.999866 L1325.00012,166.966712 L1328.03964,168.999866 L1325.00012,171.033027 L1325.00012,171.033027 Z M1325.85945,176.534432 L1325.85945,172.525968 L1329.58537,170.034081 L1332.59306,172.045648 L1325.85945,176.534432 L1325.85945,176.534432 Z M1333.28112,170.438094 L1331.13117,168.999866 L1333.28112,167.561676 L1333.28112,170.438094 L1333.28112,170.438094 Z" id="Shape"></path>
        </g>
    </g>
</svg>