<?xml version="1.0" encoding="UTF-8" standalone="no"?>
<svg width="21px" height="24px" viewBox="0 0 21 24" version="1.1" xmlns="http://www.w3.org/2000/svg" xmlns:xlink="http://www.w3.org/1999/xlink">
    <!-- Generator: Sketch 3.8.3 (29802) - http://www.bohemiancoding.com/sketch -->
    <title>S Copy 6</title>
    <desc>Created with Sketch.</desc>
    <defs></defs>
    <g id="Page-1" stroke="none" stroke-width="1" fill="none" fill-rule="evenodd">
        <g id="Browser-Copy-2" transform="translate(-138.000000, -160.000000)" fill="#4A4A4A">
            <g id="Group-9" transform="translate(138.000000, 160.000000)">
                <path d="M4.19748507,23.2551874 C3.88306518,23.176834 3.57651039,23.074976 3.27781149,22.9496105 C2.47604077,22.6048553 1.83148966,22.1425769 1.34413883,21.5627614 C0.856788004,20.9829459 0.487350175,20.2777754 0.235814263,19.4472289 C-6.55037507e-07,18.6480237 -0.0589535001,17.8214072 0.0589539587,16.9673546 C0.176861417,16.113302 0.416602988,15.2866856 0.778185861,14.4874804 C1.13976873,13.6882752 1.60746131,12.9478462 2.18127761,12.2661712 C2.7550939,11.5844962 3.37213368,11.0242775 4.03241545,10.5854982 C4.89707015,10.0213533 5.82459491,9.60608627 6.81501757,9.33968455 C7.11371646,9.2613311 7.42420145,9.21431974 7.74648183,9.19864905 C8.06876222,9.18297836 8.38710759,9.21431927 8.70152748,9.29267271 C9.37753024,9.4650503 9.8884549,9.78237701 10.2343168,10.2446624 C10.5801787,10.7069477 10.7924089,11.2319079 10.8710139,11.8195588 C10.9496188,12.4072097 10.9181773,13.0144398 10.7766884,13.6412674 C10.6351994,14.268095 10.4151088,14.8165609 10.1164099,15.2866816 C9.94347897,15.5374126 9.75876005,15.7724694 9.56224762,15.9918591 C9.36573519,16.2112487 9.14171438,16.4071294 8.89017847,16.579507 C8.82729449,16.6265191 8.74083032,16.6852833 8.63078335,16.7558014 C8.52073639,16.8263195 8.40676089,16.8850837 8.28885343,16.9320958 C8.17094597,16.9791078 8.05304028,17.0104487 7.93513283,17.0261194 C7.81722537,17.0417901 7.71897063,17.0104492 7.64036565,16.9320958 C7.57748167,16.869413 7.54997035,16.8067312 7.55783084,16.7440484 C7.56569134,16.6813657 7.59320267,16.6186838 7.64036565,16.5560011 C7.68752864,16.4933183 7.7386211,16.4345541 7.79364458,16.3797067 C7.84866806,16.3248593 7.89976053,16.2817655 7.94692351,16.2504242 C8.10413346,16.1250586 8.25741085,16.0036126 8.4067603,15.8860824 C8.55610975,15.7685523 8.67008525,15.6236006 8.74869022,15.451223 C8.90590017,15.1534799 9.03559643,14.8008946 9.13778289,14.3934567 C9.23996936,13.9860188 9.28713163,13.5746693 9.27927114,13.1593961 C9.27141064,12.7441228 9.19280684,12.3523614 9.0434574,11.9841002 C8.89410795,11.615839 8.65436638,11.322018 8.32422549,11.1026283 C7.88403765,10.8205559 7.42813565,10.6716866 6.95650581,10.6560159 C6.48487598,10.6403452 6.02897397,10.7226151 5.58878613,10.902828 C5.14859828,11.083041 4.74378874,11.3337682 4.37434537,11.6550174 C4.004902,11.9762665 3.69441702,12.3327694 3.44288111,12.7245366 C3.00269326,13.4297176 2.65683657,14.2132404 2.40530066,15.0751283 C2.15376474,15.9370162 2.06730057,16.7832208 2.14590554,17.6137674 C2.17734753,17.9585225 2.24809095,18.3150254 2.35813791,18.6832866 C2.46818487,19.0515478 2.6096717,19.3845449 2.78260264,19.6822881 C2.97125457,20.0270432 3.23850747,20.3561228 3.58436935,20.6695366 C3.93023123,20.9829504 4.26036716,21.2493481 4.57478705,21.4687377 C4.98353291,21.7664809 5.43550472,21.9819496 5.93071605,22.1151505 C6.42592738,22.2483513 6.92506146,22.3110331 7.42813329,22.3031978 C7.93120511,22.2953625 8.42640901,22.2130926 8.91375984,22.0563857 C9.40111067,21.8996788 9.84915229,21.6724572 10.2578982,21.3747141 C10.4779921,21.2023365 10.6941525,21.014291 10.9063859,20.8105721 C11.1186194,20.6068531 11.3111987,20.395302 11.4841296,20.1759123 C11.7671075,19.8154864 12.0343604,19.404137 12.2858963,18.9418517 C12.5374322,18.4795663 12.7182209,18.0212055 12.8282679,17.5667555 C12.9697569,17.0496228 13.0405003,16.5011568 13.0405003,15.9213413 C13.0405003,15.1064655 12.8990134,14.3190251 12.6160355,13.5589967 C12.3330576,12.7989682 12.0579444,12.0428688 11.7906875,11.2906757 C11.6491985,10.867567 11.5195022,10.4444648 11.4015948,10.0213561 C11.2836873,9.59824752 11.1618514,9.17514524 11.0360835,8.75203662 C10.8788735,8.21923317 10.8002697,7.66684965 10.8002697,7.09486947 C10.8002697,6.5228893 10.867083,5.96658816 11.0007114,5.42594936 C11.1343399,4.88531056 11.3269192,4.36035033 11.5784551,3.85105292 C11.829991,3.3417555 12.1365458,2.87555948 12.4981287,2.45245085 C12.7182226,2.21739051 12.9501038,1.99016891 13.1937792,1.77077926 C13.4374546,1.5513896 13.6929169,1.35550892 13.9601738,1.18313133 C14.2588727,0.995083056 14.5732879,0.822708054 14.9034288,0.666001157 C15.2335697,0.50929426 15.571566,0.376095395 15.9174279,0.266400567 C16.3576157,0.14103505 16.8095875,0.0587651626 17.2733569,0.0195884383 C17.7371262,-0.019588286 18.1104942,-2.17647163e-07 18.3934721,0.078353231 C18.4563561,0.10969461 18.5231693,0.129282679 18.5939138,0.137118024 C18.6646583,0.144953368 18.7157507,0.156706209 18.7471927,0.172376899 C19.2817066,0.297742417 19.7100972,0.53671685 20.0323776,0.889307369 C20.354658,1.24189789 20.5943996,1.64932971 20.7516095,2.11161506 C20.9088195,2.5739004 20.9913534,3.06360211 20.9992139,3.58073487 C21.0070744,4.09786763 20.955982,4.5758165 20.845935,5.01459581 C20.7201671,5.50038719 20.5511689,5.93524231 20.3389355,6.31917421 C20.126702,6.70310611 19.8397982,7.0752794 19.4782153,7.43570527 C19.2109584,7.70210699 18.912264,7.92149336 18.5821231,8.09387095 C18.2519822,8.26624853 17.9061255,8.38377694 17.5445427,8.4464597 C17.4344957,8.47780108 17.3047995,8.50130676 17.15545,8.51697745 C17.0061006,8.53264814 16.8646137,8.52873053 16.7309853,8.50522449 C16.5973568,8.48171846 16.4794511,8.43470709 16.3772647,8.36418899 C16.2750782,8.29367089 16.2239857,8.18006009 16.2239857,8.02335319 C16.2082647,7.83530492 16.2514968,7.72952935 16.3536833,7.70602331 C16.4558698,7.68251728 16.5777056,7.67076444 16.7191946,7.67076444 C17.0964985,7.65509375 17.4227042,7.54931818 17.6978216,7.35343456 C17.972939,7.15755094 18.2048202,6.91074128 18.3934721,6.61299817 C18.5821241,6.31525507 18.7314713,5.99401075 18.8415182,5.64925557 C18.9515652,5.3045004 19.0223086,4.96758562 19.0537506,4.63850114 C19.0851926,4.35642872 19.0891228,4.05477247 19.0655413,3.73352333 C19.0419598,3.41227419 18.9830069,3.0988651 18.888681,2.79328665 C18.794355,2.4877082 18.6567984,2.20955763 18.4760069,1.95882659 C18.2952155,1.70809556 18.0633343,1.51221488 17.7803564,1.37117867 C17.4502155,1.21447177 17.1161494,1.1361195 16.778148,1.1361195 C16.4401466,1.1361195 16.1100107,1.20271893 15.7877303,1.33591979 C15.4654499,1.46912066 15.1706857,1.6532485 14.9034288,1.88830884 C14.6361719,2.12336919 14.4160813,2.38193169 14.2431503,2.66400411 C14.0387774,3.00875928 13.8697792,3.39660303 13.7361508,3.827547 C13.6025223,4.25849097 13.5278487,4.6698404 13.5121277,5.06160765 C13.4806858,5.71977661 13.5592895,6.35443003 13.7479415,6.96558693 C13.9365934,7.57674383 14.1409633,8.18005633 14.3610572,8.77554254 C14.4868252,9.12029771 14.6165214,9.45721249 14.7501499,9.78629697 C14.8837783,10.1153815 15.0056142,10.4601315 15.1156612,10.8205573 C15.3986391,11.6981159 15.6226599,12.5991671 15.7877303,13.5237378 C15.9528008,14.4483085 15.9488706,15.3728653 15.7759396,16.297436 C15.6501717,17.0182877 15.3907792,17.7234582 14.9977543,18.4129685 C14.6047294,19.1024789 14.1802689,19.7214618 13.7243601,20.269936 C13.2841723,20.7870687 12.7693174,21.2454295 12.1797801,21.6450321 C11.5902428,22.0446347 10.9574823,22.3854671 10.2814795,22.6675395 C9.60547676,22.9496119 8.91376338,23.1650807 8.20631863,23.3139522 C7.49887387,23.4628238 6.81502087,23.5294232 6.1547391,23.5137525 C5.82459822,23.5137525 5.49446228,23.4902468 5.1643214,23.4432348 C4.83418051,23.3962227 4.51190496,23.3335409 4.19748507,23.2551874 Z" id="S-Copy-6"></path>
            </g>
        </g>
    </g>
</svg>