<?xml version="1.0" encoding="UTF-8" standalone="no"?>
<svg width="23px" height="36px" viewBox="0 0 23 36" version="1.1" xmlns="http://www.w3.org/2000/svg" xmlns:xlink="http://www.w3.org/1999/xlink">
    <!-- Generator: Sketch 3.8.3 (29802) - http://www.bohemiancoding.com/sketch -->
    <title>arrows-color-1_fit-vertical</title>
    <desc>Created with Sketch.</desc>
    <defs></defs>
    <g id="Page-1" stroke="none" stroke-width="1" fill="none" fill-rule="evenodd">
        <g id="Browser-Copy-11" transform="translate(-600.000000, -1451.000000)">
            <g id="arrows-color-1_fit-vertical" transform="translate(600.000000, 1451.000000)">
                <g id="Group">
                    <path d="M6.45077933,23.1542139 L4.282554,25.3675252 L10.4158873,31.6283948 C10.7153627,31.9341052 11.1076813,32.0869565 11.5,32.0869565 C11.8923187,32.0869565 12.2846373,31.9341052 12.5841127,31.6283948 L18.717446,25.3675252 L16.5492207,23.1542139 L13.0333333,26.7429209 L13.0333333,9.25707913 L16.5492207,12.8457861 L18.717446,10.6324748 L12.5841127,4.37160522 C11.985369,3.7604113 11.0146233,3.7604113 10.4158873,4.37160522 L4.282554,10.6324748 L6.45077933,12.8457861 L9.96666667,9.25707913 L9.96666667,26.7429209 L6.45077933,23.1542139 L6.45077933,23.1542139 Z" id="Shape" fill="#72C472"></path>
                    <path d="M22.2333333,0 L0.766666667,0 C0.342907,0 0,0.350413043 0,0.782608696 C0,1.21480435 0.342907,1.56521739 0.766666667,1.56521739 L22.2333333,1.56521739 C22.657093,1.56521739 23,1.21480435 23,0.782608696 C23,0.350413043 22.657093,0 22.2333333,0 L22.2333333,0 Z" id="Shape" fill="#B3B3B3"></path>
                    <path d="M22.2333333,34.4347826 L0.766666667,34.4347826 C0.342907,34.4347826 0,34.7851957 0,35.2173913 C0,35.649587 0.342907,36 0.766666667,36 L22.2333333,36 C22.657093,36 23,35.649587 23,35.2173913 C23,34.7851957 22.657093,34.4347826 22.2333333,34.4347826 L22.2333333,34.4347826 Z" id="Shape" fill="#B3B3B3"></path>
                </g>
            </g>
        </g>
    </g>
</svg>