<?xml version="1.0" encoding="UTF-8" standalone="no"?>
<svg width="38px" height="25px" viewBox="0 0 38 25" version="1.1" xmlns="http://www.w3.org/2000/svg" xmlns:xlink="http://www.w3.org/1999/xlink">
    <!-- Generator: Sketch 3.8.3 (29802) - http://www.bohemiancoding.com/sketch -->
    <title>arrows-color-1_fit-horizontal</title>
    <desc>Created with Sketch.</desc>
    <defs></defs>
    <g id="Page-1" stroke="none" stroke-width="1" fill="none" fill-rule="evenodd">
        <g id="Browser-Copy-11" transform="translate(-499.000000, -1456.000000)">
            <g id="arrows-color-1_fit-horizontal" transform="translate(499.000000, 1456.000000)">
                <g id="Group">
                    <path d="M26.7768322,4.65495 L24.4405591,7.01171667 L28.2286387,10.8333333 L9.7713613,10.8333333 L13.5594409,7.01171667 L11.2231678,4.65495 L4.61447217,11.3216167 C3.96932304,11.972425 3.96932304,13.0275833 4.61447217,13.6783833 L11.2231678,20.34505 L13.5594409,17.9882833 L9.7713613,14.1666667 L28.2286387,14.1666667 L24.4405591,17.9882833 L26.7768322,20.34505 L33.3855278,13.6783833 C34.0306687,13.027575 34.0306687,11.9724167 33.3855278,11.3216167 L26.7768322,4.65495 L26.7768322,4.65495 Z" id="Shape" fill="#72C472"></path>
                    <path d="M0.826086957,0 C0.369880435,0 0,0.373125 0,0.833333333 L0,24.1666667 C0,24.626875 0.369880435,25 0.826086957,25 C1.28229348,25 1.65217391,24.626875 1.65217391,24.1666667 L1.65217391,0.833333333 C1.65217391,0.373125 1.28229348,0 0.826086957,0 L0.826086957,0 Z" id="Shape" fill="#B3B3B3"></path>
                    <path d="M37.173913,0 C36.7177065,0 36.3478261,0.373125 36.3478261,0.833333333 L36.3478261,24.1666667 C36.3478261,24.626875 36.7177065,25 37.173913,25 C37.6301196,25 38,24.626875 38,24.1666667 L38,0.833333333 C38,0.373125 37.6301196,0 37.173913,0 L37.173913,0 Z" id="Shape" fill="#B3B3B3"></path>
                </g>
            </g>
        </g>
    </g>
</svg>