<?xml version="1.0" encoding="UTF-8" standalone="no"?>
<svg width="69px" height="69px" viewBox="0 0 69 69" version="1.1" xmlns="http://www.w3.org/2000/svg" xmlns:xlink="http://www.w3.org/1999/xlink">
    <!-- Generator: Sketch 3.8.3 (29802) - http://www.bohemiancoding.com/sketch -->
    <title>social-color-1_logo-codepen</title>
    <desc>Created with Sketch.</desc>
    <defs></defs>
    <g id="Page-1" stroke="none" stroke-width="1" fill="none" fill-rule="evenodd">
        <g id="Browser-Copy" transform="translate(-743.000000, -224.000000)">
            <g id="social-color-1_logo-codepen" transform="translate(743.000000, 224.000000)">
                <g id="Group">
                    <circle id="Oval" fill="#030502" cx="34.5" cy="34.5" r="34.5"></circle>
                    <path d="M56.6197037,25.84763 L35.5963669,11.8321487 C34.9322562,11.3893556 34.0676719,11.3893556 33.4034894,11.8321487 L12.3801525,25.84763 C11.8529494,26.2014275 11.5,26.8211625 11.5,27.4919575 L11.5,41.5074531 C11.5,42.1859531 11.8631556,42.8122431 12.3801525,43.1516225 L33.403475,57.1672763 C33.7355231,57.3885937 34.1179269,57.4999569 34.5002156,57.4999569 C34.881915,57.4999569 35.2641462,57.3885938 35.5963525,57.1672763 L56.6196894,43.1516225 C57.1282481,42.8221331 57.5,42.1936869 57.5,41.5074531 L57.5,27.4919575 C57.5,26.8560362 57.1729975,26.2141063 56.6197037,25.84763 L56.6197037,25.84763 Z M36.4766775,17.1702475 L51.9639719,27.4943438 L45.0462906,32.1222025 L36.4766919,26.3896969 L36.4766919,17.1702475 L36.4766775,17.1702475 Z M32.5232363,17.1702475 L32.5232363,26.3896969 L23.9541119,32.1222025 L17.03587,27.4943438 L32.5232363,17.1702475 L32.5232363,17.1702475 Z M15.453355,31.1918669 L20.3988581,34.4996981 L15.453355,37.8076156 L15.453355,31.1918669 L15.453355,31.1918669 Z M32.5232363,51.8291631 L17.03587,41.5049806 L23.9541119,36.8783869 L32.5232363,42.6097137 L32.5232363,51.8291631 L32.5232363,51.8291631 Z M34.50023,39.1759575 L27.5088194,34.4996981 L34.50023,29.8234531 L41.4911087,34.4996981 L34.50023,39.1759575 L34.50023,39.1759575 Z M36.4766775,51.8291631 L36.4766775,42.6097137 L45.0462762,36.8783869 L51.9639575,41.5049806 L36.4766775,51.8291631 L36.4766775,51.8291631 Z M53.5464869,37.8076156 L48.6016163,34.4996981 L53.5464869,31.1918669 L53.5464869,37.8076156 L53.5464869,37.8076156 Z" id="Shape" fill="#FFFFFF"></path>
                </g>
            </g>
        </g>
    </g>
</svg>