<?xml version="1.0" encoding="UTF-8" standalone="no"?>
<svg width="481px" height="211px" viewBox="0 0 481 211" version="1.1" xmlns="http://www.w3.org/2000/svg" xmlns:xlink="http://www.w3.org/1999/xlink">
    <!-- Generator: Sketch 3.8.3 (29802) - http://www.bohemiancoding.com/sketch -->
    <title>social-color-1_logo-codepen</title>
    <desc>Created with Sketch.</desc>
    <defs>
        <rect id="path-1" x="0" y="0" width="481" height="211"></rect>
    </defs>
    <g id="Page-1" stroke="none" stroke-width="1" fill="none" fill-rule="evenodd" opacity="0.374183769">
        <g id="Browser-Copy" transform="translate(-519.000000, -139.000000)">
            <g id="social-color-1_logo-codepen" transform="translate(519.000000, 139.000000)">
                <mask id="mask-2" fill="white">
                    <use xlink:href="#path-1"></use>
                </mask>
                <use id="Mask" fill="#FFFFFF" xlink:href="#path-1"></use>
                <g opacity="0.0936333955" mask="url(#mask-2)" id="Group">
                    <g transform="translate(56.000000, -200.000000)">
                        <g>
                            <circle id="Oval" fill="#030502" cx="202" cy="202" r="202"></circle>
                            <path d="M331.512468,151.339747 L208.419307,69.2780883 C204.530892,66.6855025 199.468687,66.6855025 195.579851,69.2780883 L72.48669,151.339747 C69.3998775,153.411257 67.3333333,157.03985 67.3333333,160.967403 L67.3333333,243.029146 C67.3333333,247.001812 69.4596358,250.668786 72.48669,252.655877 L195.579767,334.718545 C197.523932,336.014375 199.762934,336.666414 202.001262,336.666414 C204.23614,336.666414 206.474132,336.014375 208.419223,334.718545 L331.512384,252.655877 C334.490032,250.726693 336.666667,247.047094 336.666667,243.029146 L336.666667,160.967403 C336.666667,157.244038 334.752043,153.485492 331.512468,151.339747 L331.512468,151.339747 Z M213.57359,100.533043 L304.252821,160.981375 L263.749296,188.077823 L213.573674,154.513588 L213.573674,100.533043 L213.57359,100.533043 Z M190.425905,100.533043 L190.425905,154.513588 L140.253061,188.077823 L99.7462533,160.981375 L190.425905,100.533043 L190.425905,100.533043 Z M90.4805133,182.630641 L119.436793,201.998233 L90.4805133,221.366329 L90.4805133,182.630641 L90.4805133,182.630641 Z M190.425905,303.463506 L99.7462533,243.014669 L140.253061,215.925628 L190.425905,249.482962 L190.425905,303.463506 L190.425905,303.463506 Z M202.001347,229.37807 L161.066131,201.998233 L202.001347,174.618479 L242.933448,201.998233 L202.001347,229.37807 L202.001347,229.37807 Z M213.57359,303.463506 L213.57359,249.482962 L263.749212,215.925628 L304.252737,243.014669 L213.57359,303.463506 L213.57359,303.463506 Z M313.518561,221.366329 L284.565985,201.998233 L313.518561,182.630641 L313.518561,221.366329 L313.518561,221.366329 Z" id="Shape" fill="#FFFFFF"></path>
                        </g>
                    </g>
                </g>
            </g>
        </g>
    </g>
</svg>