<?xml version="1.0" encoding="UTF-8" standalone="no"?>
<svg width="515px" height="226px" viewBox="0 0 515 226" version="1.1" xmlns="http://www.w3.org/2000/svg" xmlns:xlink="http://www.w3.org/1999/xlink">
    <!-- Generator: Sketch 3.8.3 (29802) - http://www.bohemiancoding.com/sketch -->
    <title>social-color-1_logo-codepen</title>
    <desc>Created with Sketch.</desc>
    <defs>
        <rect id="path-1" x="0" y="0" width="515" height="226"></rect>
    </defs>
    <g id="Page-1" stroke="none" stroke-width="1" fill="none" fill-rule="evenodd" opacity="0.374183769">
        <g id="Browser-Copy-2" transform="translate(-501.000000, -2371.000000)">
            <g id="social-color-1_logo-codepen" transform="translate(501.000000, 2371.000000)">
                <mask id="mask-2" fill="white">
                    <use xlink:href="#path-1"></use>
                </mask>
                <use id="Mask" fill="#FFFFFF" xlink:href="#path-1"></use>
                <g opacity="0.0936333955" mask="url(#mask-2)" id="Group">
                    <g transform="translate(52.463617, 9.639810)">
                        <g>
                            <ellipse id="Oval" fill="#030502" cx="216.278586" cy="216.36019" rx="216.278586" ry="216.36019"></ellipse>
                            <path d="M354.945782,162.098496 L223.151649,74.2030709 C218.988377,71.426178 213.568345,71.426178 209.404622,74.2030709 L77.6104893,162.098496 C74.3054821,164.31727 72.0928621,168.20382 72.0928621,172.410584 L72.0928621,260.306099 C72.0928621,264.561183 74.3694646,268.488842 77.6104893,270.617195 L209.404532,358.513702 C211.486123,359.901653 213.883391,360.600046 216.279938,360.600046 C218.67279,360.600046 221.068977,359.901653 223.151559,358.513702 L354.945692,270.617195 C358.133819,268.550865 360.46431,264.609684 360.46431,260.306099 L360.46431,172.410584 C360.46431,168.422524 358.41435,164.396783 354.945782,162.098496 L354.945782,162.098496 Z M228.670268,107.679942 L325.759257,172.425549 L282.392697,201.448285 L228.670358,165.497966 L228.670358,107.679942 L228.670268,107.679942 Z M203.886364,107.679942 L203.886364,165.497966 L150.166999,201.448285 L106.796924,172.425549 L203.886364,107.679942 L203.886364,107.679942 Z M96.8762253,195.613862 L127.87931,216.358296 L96.8762253,237.103272 L96.8762253,195.613862 L96.8762253,195.613862 Z M203.886364,325.036741 L106.796924,260.290594 L150.166999,231.275791 L203.886364,267.218717 L203.886364,325.036741 L203.886364,325.036741 Z M216.280028,245.684568 L172.451263,216.358296 L216.280028,187.032115 L260.105459,216.358296 L216.280028,245.684568 L216.280028,245.684568 Z M228.670268,325.036741 L228.670268,267.218717 L282.392607,231.275791 L325.759167,260.290594 L228.670268,325.036741 L228.670268,325.036741 Z M335.679956,237.103272 L304.680836,216.358296 L335.679956,195.613862 L335.679956,237.103272 L335.679956,237.103272 Z" id="Shape" fill="#FFFFFF"></path>
                        </g>
                    </g>
                </g>
            </g>
        </g>
    </g>
</svg>