<?xml version="1.0" encoding="UTF-8" standalone="no"?>
<svg width="109px" height="20px" viewBox="0 0 109 20" version="1.1" xmlns="http://www.w3.org/2000/svg" xmlns:xlink="http://www.w3.org/1999/xlink">
    <!-- Generator: Sketch 3.8.3 (29802) - http://www.bohemiancoding.com/sketch -->
    <title>Black-Vector</title>
    <desc>Created with Sketch.</desc>
    <defs></defs>
    <g id="Page-1" stroke="none" stroke-width="1" fill="none" fill-rule="evenodd">
        <g id="Browser-Copy-2" transform="translate(-147.000000, -2569.000000)" fill="#1A1918">
            <g id="Black-Vector" transform="translate(147.000000, 2569.000000)">
                <path d="M6.87860526,4.99563158 C8.09386842,4.99563158 9.20834211,5.43431579 10.0730789,6.16115789 L11.2496579,4.75878947 C10.0665,3.76405263 8.54176316,3.16378947 6.87860526,3.16378947 C3.1265,3.16378947 0.0741315789,6.21615789 0.0741315789,9.96826316 C0.0741315789,13.7201053 3.1265,16.7724737 6.87860526,16.7724737 C8.54176316,16.7724737 10.0665,16.1719474 11.2496579,15.1774737 L10.0730789,13.7748421 C9.20834211,14.5014211 8.09386842,14.9403684 6.87860526,14.9403684 C4.13676316,14.9403684 1.90597368,12.7098421 1.90597368,9.96826316 C1.90597368,7.22642105 4.13676316,4.99563158 6.87860526,4.99563158" id="Fill-1"></path>
                <path d="M44.5458947,14.5482105 L41.798,14.5482105 L41.798,5.38821053 L44.5458947,5.38821053 C47.0714211,5.38821053 49.1258947,7.44294737 49.1258947,9.96821053 C49.1258947,12.4934737 47.0714211,14.5482105 44.5458947,14.5482105 M44.5458947,3.55636842 L40.8819474,3.55636842 C40.3761579,3.55636842 39.9661579,3.96663158 39.9661579,4.47215789 L39.9661579,15.464 C39.9661579,15.9697895 40.3761579,16.3800526 40.8819474,16.3800526 L44.5458947,16.3800526 C48.0816842,16.3800526 50.9577368,13.5037368 50.9577368,9.96821053 C50.9577368,6.43268421 48.0816842,3.55636842 44.5458947,3.55636842" id="Fill-3"></path>
                <path d="M55.9177105,4.47226316 L55.9177105,15.4641053 C55.9177105,15.9698947 56.3279737,16.3801579 56.8335,16.3801579 L64.4669211,16.3801579 L64.4669211,14.5483158 L57.7498158,14.5483158 L57.7498158,10.8841053 L62.0242895,10.8841053 L62.0242895,9.05226316 L57.7498158,9.05226316 L57.7498158,5.38831579 L64.4669211,5.38831579 L64.4669211,3.55647368 L56.8335,3.55647368 C56.3279737,3.55647368 55.9177105,3.96647368 55.9177105,4.47226316" id="Fill-5"></path>
                <path d="M83.6448947,4.47226316 L83.6448947,15.4641053 C83.6448947,15.9698947 84.0551579,16.3801579 84.5606842,16.3801579 L92.1938421,16.3801579 L92.1938421,14.5483158 L85.4767368,14.5483158 L85.4767368,10.8841053 L89.7514737,10.8841053 L89.7514737,9.05226316 L85.4767368,9.05226316 L85.4767368,5.38831579 L92.1938421,5.38831579 L92.1938421,3.55647368 L84.5606842,3.55647368 C84.0551579,3.55647368 83.6448947,3.96647368 83.6448947,4.47226316" id="Fill-7"></path>
                <path d="M74.9275263,9.05221053 L71.8741053,9.05221053 L71.8741053,5.38826316 L74.9275263,5.38826316 C75.9377895,5.38826316 76.7593684,6.21010526 76.7593684,7.22036842 C76.7593684,8.23036842 75.9377895,9.05221053 74.9275263,9.05221053 M74.9275263,3.55642105 L70.9580526,3.55642105 C70.4522632,3.55642105 70.0422632,3.96642105 70.0422632,4.47221053 L70.0422632,16.3801053 L71.8741053,16.3801053 L71.8741053,10.8840526 L74.9275263,10.8840526 C76.9477895,10.8840526 78.5914737,9.24036842 78.5914737,7.22036842 C78.5914737,5.19984211 76.9477895,3.55642105 74.9275263,3.55642105" id="Fill-9"></path>
                <path d="M106.514947,3.55636842 L106.514947,12.9342632 L98.9749474,3.88584211 C98.7278421,3.58926316 98.3217895,3.47952632 97.9591579,3.61110526 C97.5965263,3.74242105 97.3549474,4.08663158 97.3549474,4.47215789 L97.3549474,16.3800526 L99.1870526,16.3800526 L99.1870526,7.00242105 L106.727316,16.0505789 C106.904684,16.2634737 107.164421,16.3800526 107.431,16.3800526 C107.535474,16.3800526 107.640737,16.3626842 107.742842,16.3255789 C108.105474,16.194 108.347053,15.8497895 108.347053,15.4642632 L108.347053,3.55636842 L106.514947,3.55636842 Z" id="Fill-11"></path>
                <path d="M29.4860263,8.95802632 L25.8455,6.52328947 L25.8455,2.60644737 L32.4249737,6.9925 L29.4860263,8.95802632 Z M30.9962895,9.96828947 L33.0973421,8.56302632 L33.0973421,11.3732895 L30.9962895,9.96828947 Z M25.8455,13.4132895 L29.4860263,10.9785526 L32.4249737,12.9440789 L25.8455,17.3301316 L25.8455,13.4132895 Z M20.5257632,10.9785526 L24.1662895,13.4132895 L24.1662895,17.3301316 L17.5870789,12.9440789 L20.5257632,10.9785526 Z M19.0155,9.96828947 L16.9147105,11.3732895 L16.9147105,8.56302632 L19.0155,9.96828947 Z M24.1662895,6.52328947 L20.5257632,8.95802632 L17.5870789,6.9925 L24.1662895,2.60644737 L24.1662895,6.52328947 Z M25.0060263,11.9546053 L22.0360263,9.96828947 L25.0060263,7.98171053 L27.9760263,9.96828947 L25.0060263,11.9546053 Z M34.7623421,6.84539474 C34.7578684,6.82144737 34.7539211,6.79802632 34.7476053,6.77486842 C34.7436579,6.76092105 34.7389211,6.74776316 34.7344474,6.73407895 C34.7278684,6.71355263 34.7212895,6.69302632 34.7128684,6.67276316 C34.7070789,6.65907895 34.7005,6.64539474 34.6941842,6.63197368 C34.6852368,6.61302632 34.6760263,6.59434211 34.6655,6.57618421 C34.6578684,6.56276316 34.6497105,6.55013158 34.6415526,6.53723684 C34.6302368,6.51986842 34.6186579,6.50276316 34.6060263,6.48618421 C34.5968158,6.47407895 34.5873421,6.46197368 34.5773421,6.45013158 C34.5641842,6.43434211 34.5499737,6.41934211 34.5355,6.40460526 C34.5244474,6.39328947 34.5133947,6.38223684 34.5020789,6.37171053 C34.4868158,6.35802632 34.4707632,6.34486842 34.4544474,6.33197368 C34.4418158,6.32223684 34.4294474,6.31223684 34.4162895,6.30328947 C34.4118158,6.29986842 34.4073421,6.29592105 34.4026053,6.29276316 L25.4715526,0.338815789 C25.1897105,0.150657895 24.8220789,0.150657895 24.5402368,0.338815789 L15.6094474,6.29276316 C15.6044474,6.29592105 15.6002368,6.29986842 15.5955,6.30328947 C15.5823421,6.31223684 15.5699737,6.32223684 15.5573421,6.33197368 C15.5412895,6.34486842 15.5249737,6.35802632 15.5099737,6.37171053 C15.4983947,6.38223684 15.4873421,6.39328947 15.4765526,6.40460526 C15.4618158,6.41934211 15.4478684,6.43434211 15.4344474,6.45013158 C15.4244474,6.46197368 15.4149737,6.47407895 15.4057632,6.48618421 C15.3931316,6.50276316 15.3815526,6.51986842 15.3702368,6.53723684 C15.3620789,6.55013158 15.3539211,6.56276316 15.3465526,6.57618421 C15.3357632,6.59434211 15.3265526,6.61302632 15.3178684,6.63197368 C15.3115526,6.64539474 15.3047105,6.65907895 15.2991842,6.67276316 C15.2910263,6.69302632 15.2839211,6.71355263 15.2773421,6.73407895 C15.2728684,6.74776316 15.2681316,6.76092105 15.2644474,6.77486842 C15.2583947,6.79802632 15.2539211,6.82144737 15.2497105,6.84539474 C15.2476053,6.8575 15.2447105,6.86934211 15.2428684,6.88144737 C15.2381316,6.91776316 15.2355,6.95434211 15.2355,6.99118421 L15.2355,12.9451316 C15.2355,12.9822368 15.2381316,13.0185526 15.2428684,13.0548684 C15.2447105,13.0672368 15.2476053,13.0790789 15.2497105,13.0911842 C15.2539211,13.1146053 15.2583947,13.1382895 15.2644474,13.1614474 C15.2681316,13.1753947 15.2728684,13.1888158 15.2773421,13.2022368 C15.2839211,13.2230263 15.2910263,13.2435526 15.2991842,13.2638158 C15.3047105,13.2777632 15.3115526,13.2909211 15.3178684,13.3043421 C15.3265526,13.3232895 15.3357632,13.3419737 15.3465526,13.3603947 C15.3539211,13.3735526 15.3620789,13.3864474 15.3702368,13.3988158 C15.3815526,13.4164474 15.3931316,13.4332895 15.4057632,13.4501316 C15.4149737,13.4627632 15.4244474,13.4746053 15.4344474,13.4864474 C15.4478684,13.5019737 15.4618158,13.5172368 15.4765526,13.5317105 C15.4873421,13.5427632 15.4983947,13.5540789 15.5099737,13.5643421 C15.5249737,13.5782895 15.5412895,13.5917105 15.5573421,13.6046053 C15.5699737,13.6143421 15.5823421,13.6240789 15.5955,13.6332895 C15.6002368,13.6367105 15.6044474,13.6403947 15.6094474,13.6435526 L24.5402368,19.5975 C24.6812895,19.6917105 24.8433947,19.7388158 25.0060263,19.7388158 C25.1683947,19.7388158 25.3307632,19.6917105 25.4715526,19.5975 L34.4026053,13.6435526 C34.4073421,13.6403947 34.4118158,13.6367105 34.4162895,13.6332895 C34.4294474,13.6240789 34.4418158,13.6143421 34.4544474,13.6046053 C34.4707632,13.5917105 34.4868158,13.5782895 34.5020789,13.5643421 C34.5133947,13.5540789 34.5244474,13.5427632 34.5355,13.5317105 C34.5499737,13.5172368 34.5641842,13.5019737 34.5773421,13.4864474 C34.5873421,13.4746053 34.5968158,13.4627632 34.6060263,13.4501316 C34.6186579,13.4332895 34.6302368,13.4164474 34.6415526,13.3988158 C34.6497105,13.3864474 34.6578684,13.3735526 34.6655,13.3603947 C34.6760263,13.3419737 34.6852368,13.3232895 34.6941842,13.3043421 C34.7005,13.2909211 34.7070789,13.2777632 34.7128684,13.2638158 C34.7212895,13.2435526 34.7278684,13.2230263 34.7344474,13.2022368 C34.7389211,13.1888158 34.7436579,13.1753947 34.7476053,13.1614474 C34.7539211,13.1382895 34.7578684,13.1146053 34.7623421,13.0911842 C34.7644474,13.0790789 34.7673421,13.0672368 34.7689211,13.0548684 C34.7736579,13.0185526 34.7765526,12.9822368 34.7765526,12.9451316 L34.7765526,6.99118421 C34.7765526,6.95434211 34.7736579,6.91776316 34.7689211,6.88144737 C34.7673421,6.86934211 34.7644474,6.8575 34.7623421,6.84539474 L34.7623421,6.84539474 Z" id="Fill-13"></path>
            </g>
        </g>
    </g>
</svg>