<?xml version="1.0" encoding="UTF-8" standalone="no"?>
<svg width="42px" height="62px" viewBox="0 0 42 62" version="1.1" xmlns="http://www.w3.org/2000/svg" xmlns:xlink="http://www.w3.org/1999/xlink">
    <!-- Generator: Sketch 3.8.3 (29802) - http://www.bohemiancoding.com/sketch -->
    <title>iPad_Mini</title>
    <desc>Created with Sketch.</desc>
    <defs></defs>
    <g id="Page-1" stroke="none" stroke-width="1" fill="none" fill-rule="evenodd">
        <g id="Browser-Copy" transform="translate(-616.000000, -934.000000)" fill="#4A4A4A">
            <path d="M653.04449,934 L619.969053,934 C617.786074,934 616,935.792708 616,937.983795 L616,991.101061 C616,993.292148 617.786074,995.084856 619.969053,995.084856 L653.04449,995.084856 C655.227469,995.084856 657.013543,993.292148 657.013543,991.101061 L657.013543,937.983795 C657.013543,935.792708 655.227469,934 653.04449,934 L653.04449,934 Z M636.506771,936.655863 C636.870601,936.655863 637.16828,936.954648 637.16828,937.319829 C637.16828,937.68501 636.870601,937.983795 636.506771,937.983795 C636.140296,937.983795 635.845263,937.68501 635.845263,937.319829 C635.845263,936.954648 636.140296,936.655863 636.506771,936.655863 L636.506771,936.655863 Z M636.506771,993.756924 C635.411313,993.756924 634.522245,992.864554 634.522245,991.765026 C634.522245,990.665499 635.411313,989.773129 636.506771,989.773129 C637.60223,989.773129 638.491298,990.665499 638.491298,991.765026 C638.491298,992.864554 637.60223,993.756924 636.506771,993.756924 L636.506771,993.756924 Z M654.367508,988.445197 L618.646035,988.445197 L618.646035,939.311727 L654.367508,939.311727 L654.367508,988.445197 L654.367508,988.445197 Z" id="iPad_Mini"></path>
        </g>
    </g>
</svg>