<?xml version="1.0" encoding="UTF-8" standalone="no"?>
<svg width="30px" height="58px" viewBox="0 0 30 58" version="1.1" xmlns="http://www.w3.org/2000/svg" xmlns:xlink="http://www.w3.org/1999/xlink">
    <!-- Generator: Sketch 3.8.3 (29802) - http://www.bohemiancoding.com/sketch -->
    <title>Samsung_Galaxy_S3</title>
    <desc>Created with Sketch.</desc>
    <defs></defs>
    <g id="Page-1" stroke="none" stroke-width="1" fill="none" fill-rule="evenodd">
        <g id="Browser-Copy" transform="translate(-728.000000, -937.000000)" fill="#4A4A4A">
            <path d="M750.069723,937 L735.356574,937 C732.10644,937 728,938.168133 728,941.430339 L728,988.687294 C728,991.9495 732.10644,994.594413 735.356574,994.594413 L750.069723,994.594413 C753.319857,994.594413 757.426297,991.9495 757.426297,988.687294 L757.426297,941.430339 C757.426297,938.168133 753.319857,937 750.069723,937 L750.069723,937 Z M749.334066,939.95356 C749.738677,939.95356 750.069723,940.285835 750.069723,940.69195 C750.069723,941.099541 749.738677,941.430339 749.334066,941.430339 C748.929454,941.430339 748.598408,941.099541 748.598408,940.69195 C748.598408,940.285835 748.929454,939.95356 749.334066,939.95356 L749.334066,939.95356 Z M739.770519,939.95356 L745.655778,939.95356 C746.06039,939.95356 746.391436,940.285835 746.391436,940.69195 C746.391436,941.099541 746.06039,941.430339 745.655778,941.430339 L739.770519,941.430339 C739.365907,941.430339 739.034861,941.099541 739.034861,940.69195 C739.034861,940.285835 739.365907,939.95356 739.770519,939.95356 L739.770519,939.95356 Z M745.655778,990.345717 C745.655778,991.060479 745.077552,991.640853 744.365435,991.640853 L741.060862,991.640853 C740.348746,991.640853 739.770519,991.060479 739.770519,990.345717 L739.770519,990.164074 L745.655778,990.164074 L745.655778,990.345717 L745.655778,990.345717 Z M755.954982,987.210514 L729.471315,987.210514 L729.471315,942.907119 L755.954982,942.907119 L755.954982,987.210514 L755.954982,987.210514 Z" id="Samsung_Galaxy_S3"></path>
        </g>
    </g>
</svg>