<?xml version="1.0" encoding="UTF-8" standalone="no"?>
<svg width="676px" height="204px" viewBox="0 0 676 204" version="1.1" xmlns="http://www.w3.org/2000/svg" xmlns:xlink="http://www.w3.org/1999/xlink">
    <!-- Generator: Sketch 3.8.3 (29802) - http://www.bohemiancoding.com/sketch -->
    <title>Group 7</title>
    <desc>Created with Sketch.</desc>
    <defs>
        <rect id="path-1" x="0" y="28.9808153" width="676" height="175.019185"></rect>
        <mask id="mask-2" maskContentUnits="userSpaceOnUse" maskUnits="objectBoundingBox" x="0" y="0" width="676" height="175.019185" fill="white">
            <use xlink:href="#path-1"></use>
        </mask>
        <rect id="path-3" x="0" y="0" width="253.434139" height="111.180946"></rect>
    </defs>
    <g id="Page-1" stroke="none" stroke-width="1" fill="none" fill-rule="evenodd">
        <g id="Browser-Copy-2" transform="translate(-423.000000, -434.000000)">
            <g id="Group-7" transform="translate(423.000000, 434.000000)">
                <g id="Group-5">
                    <g id="Group-4">
                        <use id="background" stroke="#ECECEC" mask="url(#mask-2)" stroke-width="2" fill="#FFFFFF" xlink:href="#path-1"></use>
                        <g id="Browser">
                            <path d="M6.99425439,0 C3.13143436,0 0,3.12899033 0,6.99696963 L0,28.9808153 L676,28.9808153 L676,6.99696963 C676,3.13265001 672.873591,0 669.005746,0 L6.99425439,0 Z" id="background" fill="#E4E4E4"></path>
                            <ellipse id="object" fill="#E96E4C" cx="13.4356976" cy="14.4904077" rx="3.95167576" ry="3.95192937"></ellipse>
                            <path d="M25.5541699,18.442337 C27.7366202,18.442337 29.5058457,16.672998 29.5058457,14.4904077 C29.5058457,12.3078174 27.7366202,10.5384783 25.5541699,10.5384783 C23.3717197,10.5384783 21.6024942,12.3078174 21.6024942,14.4904077 C21.6024942,16.672998 23.3717197,18.442337 25.5541699,18.442337 Z" id="object" fill="#E6AA34"></path>
                            <ellipse id="object" fill="#85C33D" cx="37.6726422" cy="14.4904077" rx="3.95167576" ry="3.95192937"></ellipse>
                            <rect id="search" fill="#FFFFFF" opacity="0.85" x="51.1083398" y="7.37693482" width="617.515199" height="14.2269457"></rect>
                        </g>
                    </g>
                    <g id="social-color-1_logo-codepen" opacity="0.374183769" transform="translate(210.756041, 28.980815)">
                        <mask id="mask-4" fill="white">
                            <use xlink:href="#path-3"></use>
                        </mask>
                        <use id="Mask" fill="#FFFFFF" xlink:href="#path-3"></use>
                        <g opacity="0.0936333955" mask="url(#mask-4)" id="Group">
                            <g transform="translate(29.505846, -105.384783)">
                                <g>
                                    <ellipse id="Oval" fill="#030502" cx="106.4318" cy="106.438631" rx="106.4318" ry="106.438631"></ellipse>
                                    <path d="M174.670638,79.7445319 L109.81407,36.5042816 C107.765302,35.1381861 105.098077,35.1381861 103.049087,36.5042816 L38.1925194,79.7445319 C36.5661085,80.83606 35.4772668,82.7480526 35.4772668,84.8175744 L35.4772668,128.057869 C35.4772668,130.151162 36.5975946,132.083378 38.1925194,133.130424 L103.049043,176.371206 C104.073405,177.05401 105.253113,177.397585 106.432466,177.397585 C107.61,177.397585 108.789176,177.05401 109.814026,176.371206 L174.670594,133.130424 C176.239487,132.113891 177.386334,130.175022 177.386334,128.057869 L177.386334,84.8175744 C177.386334,82.8556444 176.377538,80.8751762 174.670638,79.7445319 L174.670638,79.7445319 Z M112.52981,52.9732648 L160.3078,84.8249364 L138.966893,99.1027031 L112.529855,81.4169045 L112.529855,52.9732648 L112.52981,52.9732648 Z M100.333524,52.9732648 L100.333524,81.4169045 L73.8979494,99.1027031 L52.5553135,84.8249364 L100.333524,52.9732648 L100.333524,52.9732648 Z M47.6732868,96.2324523 L62.9300637,106.4377 L47.6732868,116.643213 L47.6732868,96.2324523 L47.6732868,96.2324523 Z M100.333524,159.902179 L52.5553135,128.050241 L73.8979494,113.776377 L100.333524,131.458539 L100.333524,159.902179 L100.333524,159.902179 Z M106.43251,120.864791 L84.86415,106.4377 L106.43251,92.0106527 L127.999229,106.4377 L106.43251,120.864791 L106.43251,120.864791 Z M112.52981,159.902179 L112.52981,131.458539 L138.966849,113.776377 L160.307755,128.050241 L112.52981,159.902179 L112.52981,159.902179 Z M165.189826,116.643213 L149.935001,106.4377 L165.189826,96.2324523 L165.189826,116.643213 L165.189826,116.643213 Z" id="Shape" fill="#FFFFFF"></path>
                                </g>
                            </g>
                        </g>
                    </g>
                    <g id="Group-8" transform="translate(263.445051, 73.769348)">
                        <g id="Group-19" transform="translate(0.000000, 84.780903)">
                            <g id="Group-2" transform="translate(90.307872, 0.000000)">
                                <path d="M0.725250939,3.71188229 L1.69087538,3.71188229 C1.95725587,3.71188229 2.18339841,3.68413474 2.36930979,3.62863881 C2.55522117,3.57314287 2.70367057,3.49961186 2.81466244,3.40804357 C2.92565431,3.31647528 3.00612221,3.20825983 3.05606855,3.08339397 C3.10601489,2.95852812 3.13098769,2.82395249 3.13098769,2.67966306 C3.13098769,2.54092323 3.10601489,2.40912236 3.05606855,2.2842565 C3.00612221,2.15939065 2.92565431,2.04978782 2.81466244,1.95544473 C2.70367057,1.86110164 2.55522117,1.78757063 2.36930979,1.7348495 C2.18339841,1.68212836 1.95725587,1.65576818 1.69087538,1.65576818 L0.725250939,1.65576818 L0.725250939,3.71188229 Z M0.125897838,1.10636117 L1.84071365,1.10636117 C2.44006975,1.10636117 2.9131655,1.23677466 3.26001509,1.49760556 C3.60686469,1.75843645 3.78028688,2.15245168 3.78028688,2.67966306 C3.78028688,3.20687445 3.60686469,3.60227705 3.26001509,3.86588274 C2.9131655,4.12948843 2.44006975,4.2612893 1.84071365,4.2612893 L0.725250939,4.2612893 L0.725250939,7 L0.125897838,7 L0.125897838,1.10636117 Z M7.73435248,4.75242587 C7.73435248,4.38060311 7.62336228,4.07954218 7.40137854,3.84923405 C7.1793948,3.61892592 6.86862222,3.50377358 6.46905149,3.50377358 C6.2914645,3.50377358 6.11942968,3.53845802 5.95294187,3.60782794 C5.78645407,3.67719785 5.64077943,3.77015215 5.51591357,3.88669361 C5.39104772,4.00323508 5.29115653,4.13642332 5.21623702,4.28626235 C5.14131751,4.43610137 5.10385832,4.59148766 5.10385832,4.75242587 L7.73435248,4.75242587 Z M5.08720962,5.2019407 C5.1038584,5.39617647 5.15102924,5.57931031 5.22872354,5.75134771 C5.30641785,5.9233851 5.40908379,6.0718345 5.53672444,6.19670036 C5.66436509,6.32156621 5.81142712,6.42007002 5.97791492,6.49221473 C6.14440273,6.56435945 6.32476181,6.60043127 6.51899758,6.60043127 C6.81312604,6.60043127 7.06701613,6.53244977 7.28067548,6.39648472 C7.49433483,6.26051968 7.656658,6.10374602 7.76764987,5.92615903 L8.19219165,6.27578167 C7.95910873,6.56991013 7.70244388,6.78079151 7.42218941,6.90843217 C7.14193494,7.03607282 6.840874,7.09989218 6.51899758,7.09989218 C6.23041872,7.09989218 5.96265485,7.04855921 5.71569794,6.94589173 C5.46874103,6.84322425 5.25647226,6.70032437 5.07888527,6.51718778 C4.90129828,6.33405119 4.76117314,6.11762029 4.65850566,5.86788859 C4.55583818,5.61815688 4.50450521,5.34623088 4.50450521,5.05210242 C4.50450521,4.75797397 4.55445081,4.48604796 4.65434349,4.23631626 C4.75423617,3.98658455 4.89297393,3.77015365 5.07056092,3.58701706 C5.24814791,3.40388048 5.45625455,3.26098059 5.69488707,3.15831311 C5.93351959,3.05564563 6.19157181,3.00431266 6.46905149,3.00431266 C6.76317994,3.00431266 7.02678168,3.05703301 7.25986461,3.16247528 C7.49294754,3.26791756 7.68856777,3.40804269 7.84673119,3.58285489 C8.0048946,3.75766708 8.12559645,3.96299896 8.20884035,4.19885669 C8.29208425,4.43471441 8.33370558,4.68582975 8.33370558,4.95221024 L8.33370558,5.2019407 L5.08720962,5.2019407 Z M9.85706138,3.10420484 C9.86816057,3.20964712 9.87509745,3.31370044 9.87787225,3.41636792 C9.88064705,3.5190354 9.88203443,3.62308871 9.88203443,3.72853099 L9.89868312,3.72853099 C9.95972865,3.62308871 10.0374218,3.52597228 10.1317649,3.43717879 C10.226108,3.34838529 10.3315487,3.27207953 10.4480901,3.2082592 C10.5646316,3.14443888 10.6881082,3.09449328 10.8185236,3.05842093 C10.9489391,3.02234857 11.0779652,3.00431266 11.2056059,3.00431266 C11.7050693,3.00431266 12.0741117,3.13611353 12.3127442,3.39971922 C12.5513767,3.66332491 12.6706912,4.03930423 12.6706912,4.52766846 L12.6706912,7 L12.1212842,7 L12.1212842,4.84399371 C12.1212842,4.41112541 12.0463658,4.07954218 11.8965268,3.84923405 C11.7466878,3.61892592 11.4692123,3.50377358 11.0640919,3.50377358 C11.036344,3.50377358 10.9586508,3.5148726 10.8310102,3.53707097 C10.7033695,3.55926935 10.5687939,3.62031396 10.4272793,3.72020664 C10.2857646,3.82009932 10.1595133,3.9699361 10.0485214,4.16972147 C9.93752953,4.36950683 9.88203443,4.64698235 9.88203443,5.00215633 L9.88203443,7 L9.33262742,7 L9.33262742,3.96161275 C9.33262742,3.85617048 9.32846528,3.72298223 9.32014089,3.56204402 C9.3118165,3.40110581 9.30210486,3.24849427 9.29100567,3.10420484 L9.85706138,3.10420484 Z M16.0254037,4.02820754 C15.9421598,3.86726933 15.8311696,3.73963059 15.6924298,3.6452875 C15.5536899,3.55094441 15.3844299,3.50377358 15.1846445,3.50377358 C15.0903014,3.50377358 14.9945724,3.5148726 14.8974545,3.53707097 C14.8003366,3.55926935 14.7129318,3.59395379 14.6352375,3.64112533 C14.5575432,3.68829687 14.4951112,3.74795411 14.4479396,3.82009883 C14.4007681,3.89224354 14.3771827,3.98103571 14.3771827,4.08647798 C14.3771827,4.26961457 14.4410021,4.40280281 14.5686427,4.48604672 C14.6962834,4.56929062 14.8877415,4.64143425 15.1430228,4.70247978 L15.7007541,4.83566936 C15.9726842,4.89671489 16.1988267,5.02019149 16.3791885,5.20610287 C16.5595503,5.39201425 16.6497299,5.62370631 16.6497299,5.90118598 C16.6497299,6.11207053 16.6067212,6.293817 16.5207025,6.44643082 C16.4346838,6.59904464 16.3209188,6.72390862 16.1794042,6.8210265 C16.0378895,6.91814439 15.8755664,6.98890065 15.6924298,7.03329739 C15.5092932,7.07769414 15.3233846,7.09989218 15.1346984,7.09989218 C14.8350204,7.09989218 14.5561575,7.0430097 14.2981014,6.92924304 C14.0400453,6.81547637 13.8194522,6.61985613 13.6363157,6.34237646 L14.1108035,6.01772686 C14.2217954,6.19531385 14.3619205,6.33682637 14.5311831,6.44226864 C14.7004457,6.54771092 14.9016155,6.60043127 15.1346984,6.60043127 C15.2456903,6.60043127 15.3566805,6.58794487 15.4676724,6.5629717 C15.5786642,6.53799853 15.677168,6.49915195 15.7631867,6.44643082 C15.8492054,6.39370968 15.9185743,6.32572818 15.9712954,6.24248428 C16.0240166,6.15924037 16.0503768,6.06212394 16.0503768,5.95113207 C16.0503768,5.7568963 15.9782331,5.61677117 15.8339437,5.53075247 C15.6896543,5.44473377 15.5148447,5.37675227 15.3095097,5.32680593 L14.7767514,5.2019407 C14.7101563,5.18529192 14.6199768,5.15754437 14.5062101,5.11869721 C14.3924434,5.07985006 14.2814532,5.0215802 14.1732361,4.94388589 C14.0650191,4.86619158 13.9720648,4.76491302 13.8943705,4.64004717 C13.8166762,4.51518131 13.7778296,4.3611824 13.7778296,4.17804582 C13.7778296,3.97826045 13.8180635,3.80345088 13.8985326,3.65361185 C13.9790017,3.50377283 14.0872172,3.3816836 14.2231822,3.28734051 C14.3591473,3.19299742 14.5131462,3.12224117 14.6851836,3.07506962 C14.857221,3.02789808 15.0348053,3.00431266 15.2179419,3.00431266 C15.489872,3.00431266 15.7423747,3.05703301 15.9754576,3.16247528 C16.2085405,3.26791756 16.3888996,3.44827664 16.5165403,3.70355794 L16.0254037,4.02820754 Z M18.5143839,6.60043127 C18.5143839,6.71697273 18.4727626,6.82102605 18.3895187,6.91259434 C18.3062748,7.00416263 18.1980594,7.04994609 18.0648691,7.04994609 C17.9316789,7.04994609 17.8234634,7.00416263 17.7402195,6.91259434 C17.6569756,6.82102605 17.6153543,6.71697273 17.6153543,6.60043127 C17.6153543,6.4838898 17.6569756,6.37983649 17.7402195,6.28826819 C17.8234634,6.1966999 17.9316789,6.15091644 18.0648691,6.15091644 C18.1980594,6.15091644 18.3062748,6.1966999 18.3895187,6.28826819 C18.4727626,6.37983649 18.5143839,6.4838898 18.5143839,6.60043127 L18.5143839,6.60043127 Z M18.5143839,3.51209793 C18.5143839,3.62863939 18.4727626,3.73269271 18.3895187,3.824261 C18.3062748,3.91582929 18.1980594,3.96161275 18.0648691,3.96161275 C17.9316789,3.96161275 17.8234634,3.91582929 17.7402195,3.824261 C17.6569756,3.73269271 17.6153543,3.62863939 17.6153543,3.51209793 C17.6153543,3.39555646 17.6569756,3.29150315 17.7402195,3.19993485 C17.8234634,3.10836656 17.9316789,3.0625831 18.0648691,3.0625831 C18.1980594,3.0625831 18.3062748,3.10836656 18.3895187,3.19993485 C18.4727626,3.29150315 18.5143839,3.39555646 18.5143839,3.51209793 L18.5143839,3.51209793 Z" id="Pens:" fill="#464646"></path>
                                <path d="M24.1516019,6.14016856 L26.5456424,3.76298751 C26.62994,3.68430973 26.7114265,3.59860843 26.7901043,3.50588105 C26.868782,3.41315367 26.939029,3.31621286 27.0008473,3.21505571 C27.0626655,3.11389856 27.1118384,3.00712318 27.1483674,2.89472635 C27.1848963,2.78232952 27.2031605,2.66431462 27.2031605,2.54067811 C27.2031605,2.39456223 27.1764667,2.26249794 27.1230782,2.14448127 C27.0696897,2.0264646 26.9966329,1.92671391 26.9039055,1.84522621 C26.8111781,1.7637385 26.7015928,1.70051624 26.5751464,1.6555575 C26.4487,1.61059877 26.3152307,1.58811974 26.1747347,1.58811974 C25.8825029,1.58811974 25.6408534,1.66960622 25.4497788,1.83258163 C25.2587042,1.99555703 25.1378794,2.22034731 25.0873008,2.50695923 L24.2106099,2.43109175 C24.2499488,2.1669592 24.3272205,1.93795409 24.4424272,1.74406956 C24.557634,1.55018503 24.7009378,1.38861702 24.8723429,1.25936066 C25.0437481,1.13010431 25.2404396,1.03456844 25.4624233,0.972750183 C25.6844071,0.910931927 25.9246517,0.880023262 26.1831644,0.880023262 C26.4416771,0.880023262 26.6847316,0.915146745 26.9123352,0.985394763 C27.1399388,1.05564278 27.3394401,1.15960829 27.5108453,1.2972944 C27.6822505,1.43498052 27.8171246,1.60638311 27.9154719,1.81150733 C28.0138191,2.01663154 28.062992,2.25687616 28.062992,2.53224839 C28.062992,2.72894284 28.0334882,2.91298988 27.9744799,3.08439505 C27.9154716,3.25580021 27.8381999,3.41736823 27.7426626,3.56910395 C27.6471253,3.72083967 27.53754,3.86414348 27.4139035,3.99901967 C27.290267,4.13389587 27.1610126,4.26596016 27.0261364,4.39521651 L25.0620116,6.29190352 L28.062992,6.29190352 L28.062992,7 L24.1516019,7 L24.1516019,6.14016856 Z M29.6899279,5.54165844 C29.7854652,5.82827035 29.9133147,6.04182112 30.0734802,6.18231716 C30.2336457,6.32281319 30.4710804,6.39306016 30.7857915,6.39306016 C30.9431471,6.39306016 31.0906657,6.36636631 31.2283518,6.31297782 C31.366038,6.25958932 31.4882677,6.18653248 31.5950447,6.0938051 C31.7018217,6.00107771 31.786118,5.88868257 31.8479363,5.7566163 C31.9097545,5.62455002 31.9406632,5.4770314 31.9406632,5.314056 C31.9406632,5.06678297 31.8886804,4.86868653 31.7847134,4.71976073 C31.6807463,4.57083494 31.5472771,4.45843979 31.3843017,4.38257193 C31.2213263,4.30670407 31.041494,4.2575312 30.8447996,4.23505183 C30.6481051,4.21257247 30.4542235,4.20133295 30.2631489,4.20133295 L30.2631489,3.49323647 C30.5722402,3.49323647 30.8251293,3.47216238 31.0218237,3.43001357 C31.2185182,3.38786476 31.3730615,3.32745237 31.4854583,3.24877459 C31.5978551,3.17009681 31.6765317,3.07175106 31.7214905,2.95373439 C31.7664492,2.83571772 31.7889282,2.70365342 31.7889282,2.55753755 C31.7889282,2.23720658 31.6933924,1.99555703 31.5023177,1.83258163 C31.3112431,1.66960622 31.0724035,1.58811974 30.7857915,1.58811974 C30.5666177,1.58811974 30.3685213,1.65134201 30.1914963,1.77778845 C30.0144713,1.90423488 29.881002,2.07142265 29.7910846,2.27935679 L28.964972,2.00117603 C29.1223276,1.61902681 29.3625722,1.33663401 29.6857131,1.15398916 C30.008854,0.971344316 30.3699234,0.880023262 30.7689321,0.880023262 C31.0105853,0.880023262 31.2424003,0.912336866 31.464384,0.976965043 C31.6863677,1.04159322 31.8816543,1.14134391 32.0502495,1.2762201 C32.2188448,1.4110963 32.352314,1.58109395 32.4506612,1.78621817 C32.5490085,1.99134238 32.5981813,2.231587 32.5981813,2.50695923 C32.5981813,2.82167035 32.5040504,3.10265821 32.3157857,3.34993123 C32.127521,3.59720425 31.8816567,3.76579697 31.5781852,3.85571443 L31.5781852,3.87257387 C31.76364,3.90629292 31.9294228,3.96811025 32.0755387,4.05802771 C32.2216546,4.14794517 32.3452892,4.26034032 32.4464464,4.39521651 C32.5476035,4.53009271 32.6234703,4.68042121 32.6740488,4.84620653 C32.7246274,5.01199186 32.7499163,5.18760927 32.7499163,5.37306404 C32.7499163,5.65967595 32.6951237,5.91116008 32.5855368,6.12752398 C32.4759499,6.34388787 32.3298362,6.5237201 32.1471913,6.66702606 C31.9645465,6.81033202 31.7538056,6.91851234 31.5149623,6.99157028 C31.2761191,7.06462822 31.0246349,7.10115664 30.7605024,7.10115664 C30.3052952,7.10115664 29.9048875,6.99719113 29.5592673,6.789257 C29.213647,6.58132287 28.9734024,6.25256707 28.8385262,5.80297976 L29.6899279,5.54165844 Z" id="23" fill="#000000"></path>
                            </g>
                            <g id="Group-2-Copy-2" transform="translate(136.937646, 0.000000)">
                                <path d="M0.784271481,3.71188229 L1.74989592,3.71188229 C2.01627641,3.71188229 2.24241895,3.68413474 2.42833033,3.62863881 C2.61424172,3.57314287 2.76269112,3.49961186 2.87368299,3.40804357 C2.98467486,3.31647528 3.06514275,3.20825983 3.1150891,3.08339397 C3.16503544,2.95852812 3.19000823,2.82395249 3.19000823,2.67966306 C3.19000823,2.54092323 3.16503544,2.40912236 3.1150891,2.2842565 C3.06514275,2.15939065 2.98467486,2.04978782 2.87368299,1.95544473 C2.76269112,1.86110164 2.61424172,1.78757063 2.42833033,1.7348495 C2.24241895,1.68212836 2.01627641,1.65576818 1.74989592,1.65576818 L0.784271481,1.65576818 L0.784271481,3.71188229 Z M0.18491838,1.10636117 L1.8997342,1.10636117 C2.49909029,1.10636117 2.97218604,1.23677466 3.31903564,1.49760556 C3.66588523,1.75843645 3.83930743,2.15245168 3.83930743,2.67966306 C3.83930743,3.20687445 3.66588523,3.60227705 3.31903564,3.86588274 C2.97218604,4.12948843 2.49909029,4.2612893 1.8997342,4.2612893 L0.784271481,4.2612893 L0.784271481,7 L0.18491838,7 L0.18491838,1.10636117 Z M8.10137392,5.05210242 C8.10137392,4.83566828 8.06668948,4.63311115 7.99731956,4.44442497 C7.92794964,4.25573879 7.82944584,4.09202824 7.70180519,3.9532884 C7.57416454,3.81454857 7.42016563,3.70494574 7.23980384,3.62447663 C7.05944205,3.54400753 6.85549755,3.50377358 6.62796421,3.50377358 C6.40043088,3.50377358 6.19648638,3.54400753 6.01612459,3.62447663 C5.8357628,3.70494574 5.68315127,3.81454857 5.55828542,3.9532884 C5.43341956,4.09202824 5.33630313,4.25573879 5.26693321,4.44442497 C5.1975633,4.63311115 5.16287886,4.83566828 5.16287886,5.05210242 C5.16287886,5.26853657 5.1975633,5.47109369 5.26693321,5.65977987 C5.33630313,5.84846605 5.43341956,6.0121766 5.55828542,6.15091644 C5.68315127,6.28965628 5.8357628,6.39925911 6.01612459,6.47972821 C6.19648638,6.56019732 6.40043088,6.60043127 6.62796421,6.60043127 C6.85549755,6.60043127 7.05944205,6.56019732 7.23980384,6.47972821 C7.42016563,6.39925911 7.57416454,6.28965628 7.70180519,6.15091644 C7.82944584,6.0121766 7.92794964,5.84846605 7.99731956,5.65977987 C8.06668948,5.47109369 8.10137392,5.26853657 8.10137392,5.05210242 L8.10137392,5.05210242 Z M8.70072702,5.05210242 C8.70072702,5.34623088 8.64939405,5.61815688 8.54672657,5.86788859 C8.44405909,6.11762029 8.3011592,6.33405119 8.11802262,6.51718778 C7.93488603,6.70032437 7.71706776,6.84322425 7.46456125,6.94589173 C7.21205475,7.04855921 6.93319186,7.09989218 6.62796421,7.09989218 C6.32828617,7.09989218 6.05219803,7.04855921 5.79969153,6.94589173 C5.54718502,6.84322425 5.32936675,6.70032437 5.14623016,6.51718778 C4.96309357,6.33405119 4.82019369,6.11762029 4.71752621,5.86788859 C4.61485873,5.61815688 4.56352576,5.34623088 4.56352576,5.05210242 C4.56352576,4.75797397 4.61485873,4.48604796 4.71752621,4.23631626 C4.82019369,3.98658455 4.96309357,3.77015365 5.14623016,3.58701706 C5.32936675,3.40388048 5.54718502,3.26098059 5.79969153,3.15831311 C6.05219803,3.05564563 6.32828617,3.00431266 6.62796421,3.00431266 C6.93319186,3.00431266 7.21205475,3.05564563 7.46456125,3.15831311 C7.71706776,3.26098059 7.93488603,3.40388048 8.11802262,3.58701706 C8.3011592,3.77015365 8.44405909,3.98658455 8.54672657,4.23631626 C8.64939405,4.48604796 8.70072702,4.75797397 8.70072702,5.05210242 L8.70072702,5.05210242 Z M11.7640873,4.02820754 C11.6808434,3.86726933 11.5698532,3.73963059 11.4311134,3.6452875 C11.2923735,3.55094441 11.1231135,3.50377358 10.9233281,3.50377358 C10.828985,3.50377358 10.733256,3.5148726 10.6361381,3.53707097 C10.5390202,3.55926935 10.4516154,3.59395379 10.3739211,3.64112533 C10.2962268,3.68829687 10.2337948,3.74795411 10.1866233,3.82009883 C10.1394517,3.89224354 10.1158663,3.98103571 10.1158663,4.08647798 C10.1158663,4.26961457 10.1796857,4.40280281 10.3073263,4.48604672 C10.434967,4.56929062 10.6264251,4.64143425 10.8817064,4.70247978 L11.4394377,4.83566936 C11.7113678,4.89671489 11.9375103,5.02019149 12.1178721,5.20610287 C12.2982339,5.39201425 12.3884135,5.62370631 12.3884135,5.90118598 C12.3884135,6.11207053 12.3454048,6.293817 12.2593861,6.44643082 C12.1733674,6.59904464 12.0596024,6.72390862 11.9180878,6.8210265 C11.7765731,6.91814439 11.61425,6.98890065 11.4311134,7.03329739 C11.2479768,7.07769414 11.0620682,7.09989218 10.873382,7.09989218 C10.573704,7.09989218 10.2948411,7.0430097 10.036785,6.92924304 C9.77872888,6.81547637 9.55813585,6.61985613 9.37499926,6.34237646 L9.84948713,6.01772686 C9.960479,6.19531385 10.1006041,6.33682637 10.2698667,6.44226864 C10.4391293,6.54771092 10.6402991,6.60043127 10.873382,6.60043127 C10.9843739,6.60043127 11.0953641,6.58794487 11.206356,6.5629717 C11.3173478,6.53799853 11.4158516,6.49915195 11.5018703,6.44643082 C11.587889,6.39370968 11.6572579,6.32572818 11.7099791,6.24248428 C11.7627002,6.15924037 11.7890604,6.06212394 11.7890604,5.95113207 C11.7890604,5.7568963 11.7169167,5.61677117 11.5726273,5.53075247 C11.4283379,5.44473377 11.2535283,5.37675227 11.0481933,5.32680593 L10.515435,5.2019407 C10.4488399,5.18529192 10.3586604,5.15754437 10.2448937,5.11869721 C10.131127,5.07985006 10.0201368,5.0215802 9.91191975,4.94388589 C9.80370267,4.86619158 9.71074838,4.76491302 9.63305407,4.64004717 C9.55535976,4.51518131 9.51651319,4.3611824 9.51651319,4.17804582 C9.51651319,3.97826045 9.55674714,3.80345088 9.63721624,3.65361185 C9.71768535,3.50377283 9.8259008,3.3816836 9.96186584,3.28734051 C10.0978309,3.19299742 10.2518298,3.12224117 10.4238672,3.07506962 C10.5959046,3.02789808 10.7734889,3.00431266 10.9566255,3.00431266 C11.2285556,3.00431266 11.4810583,3.05703301 11.7141412,3.16247528 C11.9472242,3.26791756 12.1275832,3.44827664 12.2552239,3.70355794 L11.7640873,4.02820754 Z M15.2603137,3.60366576 L14.1365267,3.60366576 L14.1365267,5.90118598 C14.1365267,6.04547541 14.1504004,6.16340251 14.1781484,6.2549708 C14.2058964,6.34653909 14.244743,6.41729535 14.2946893,6.46724169 C14.3446356,6.51718803 14.4042929,6.55187247 14.4736628,6.57129605 C14.5430327,6.59071962 14.6193385,6.60043127 14.7025824,6.60043127 C14.7969255,6.60043127 14.8940419,6.58655749 14.9939346,6.55880952 C15.0938273,6.53106156 15.1853942,6.49498974 15.2686381,6.45059299 L15.2936111,6.95837826 C15.0882762,7.05272135 14.841323,7.09989218 14.5527441,7.09989218 C14.4473018,7.09989218 14.337699,7.08601841 14.2239323,7.05827044 C14.1101657,7.03052247 14.0061124,6.97780213 13.9117693,6.90010782 C13.8174262,6.82241351 13.739733,6.71697281 13.6786875,6.58378257 C13.617642,6.45059232 13.5871197,6.27578275 13.5871197,6.05934861 L13.5871197,3.60366576 L12.7630092,3.60366576 L12.7630092,3.10420484 L13.5871197,3.10420484 L13.5871197,2.00539083 L14.1365267,2.00539083 L14.1365267,3.10420484 L15.2603137,3.10420484 L15.2603137,3.60366576 Z M18.0739436,4.02820754 C17.9906997,3.86726933 17.8797095,3.73963059 17.7409696,3.6452875 C17.6022298,3.55094441 17.4329697,3.50377358 17.2331844,3.50377358 C17.1388413,3.50377358 17.0431122,3.5148726 16.9459943,3.53707097 C16.8488764,3.55926935 16.7614717,3.59395379 16.6837774,3.64112533 C16.606083,3.68829687 16.5436511,3.74795411 16.4964795,3.82009883 C16.449308,3.89224354 16.4257225,3.98103571 16.4257225,4.08647798 C16.4257225,4.26961457 16.4895419,4.40280281 16.6171826,4.48604672 C16.7448232,4.56929062 16.9362813,4.64143425 17.1915626,4.70247978 L17.749294,4.83566936 C18.0212241,4.89671489 18.2473666,5.02019149 18.4277284,5.20610287 C18.6080902,5.39201425 18.6982697,5.62370631 18.6982697,5.90118598 C18.6982697,6.11207053 18.655261,6.293817 18.5692423,6.44643082 C18.4832236,6.59904464 18.3694587,6.72390862 18.227944,6.8210265 C18.0864294,6.91814439 17.9241062,6.98890065 17.7409696,7.03329739 C17.557833,7.07769414 17.3719244,7.09989218 17.1832383,7.09989218 C16.8835602,7.09989218 16.6046973,7.0430097 16.3466412,6.92924304 C16.0885851,6.81547637 15.8679921,6.61985613 15.6848555,6.34237646 L16.1593434,6.01772686 C16.2703353,6.19531385 16.4104604,6.33682637 16.579723,6.44226864 C16.7489856,6.54771092 16.9501553,6.60043127 17.1832383,6.60043127 C17.2942301,6.60043127 17.4052203,6.58794487 17.5162122,6.5629717 C17.6272041,6.53799853 17.7257079,6.49915195 17.8117266,6.44643082 C17.8977453,6.39370968 17.9671142,6.32572818 18.0198353,6.24248428 C18.0725564,6.15924037 18.0989166,6.06212394 18.0989166,5.95113207 C18.0989166,5.7568963 18.026773,5.61677117 17.8824836,5.53075247 C17.7381941,5.44473377 17.5633846,5.37675227 17.3580496,5.32680593 L16.8252913,5.2019407 C16.7586962,5.18529192 16.6685166,5.15754437 16.5547499,5.11869721 C16.4409833,5.07985006 16.3299931,5.0215802 16.221776,4.94388589 C16.1135589,4.86619158 16.0206046,4.76491302 15.9429103,4.64004717 C15.865216,4.51518131 15.8263694,4.3611824 15.8263694,4.17804582 C15.8263694,3.97826045 15.8666034,3.80345088 15.9470725,3.65361185 C16.0275416,3.50377283 16.1357571,3.3816836 16.2717221,3.28734051 C16.4076871,3.19299742 16.561686,3.12224117 16.7337234,3.07506962 C16.9057608,3.02789808 17.0833452,3.00431266 17.2664818,3.00431266 C17.5384118,3.00431266 17.7909146,3.05703301 18.0239975,3.16247528 C18.2570804,3.26791756 18.4374395,3.44827664 18.5650801,3.70355794 L18.0739436,4.02820754 Z M20.5629238,6.60043127 C20.5629238,6.71697273 20.5213025,6.82102605 20.4380586,6.91259434 C20.3548147,7.00416263 20.2465992,7.04994609 20.113409,7.04994609 C19.9802187,7.04994609 19.8720033,7.00416263 19.7887594,6.91259434 C19.7055155,6.82102605 19.6638942,6.71697273 19.6638942,6.60043127 C19.6638942,6.4838898 19.7055155,6.37983649 19.7887594,6.28826819 C19.8720033,6.1966999 19.9802187,6.15091644 20.113409,6.15091644 C20.2465992,6.15091644 20.3548147,6.1966999 20.4380586,6.28826819 C20.5213025,6.37983649 20.5629238,6.4838898 20.5629238,6.60043127 L20.5629238,6.60043127 Z M20.5629238,3.51209793 C20.5629238,3.62863939 20.5213025,3.73269271 20.4380586,3.824261 C20.3548147,3.91582929 20.2465992,3.96161275 20.113409,3.96161275 C19.9802187,3.96161275 19.8720033,3.91582929 19.7887594,3.824261 C19.7055155,3.73269271 19.6638942,3.62863939 19.6638942,3.51209793 C19.6638942,3.39555646 19.7055155,3.29150315 19.7887594,3.19993485 C19.8720033,3.10836656 19.9802187,3.0625831 20.113409,3.0625831 C20.2465992,3.0625831 20.3548147,3.10836656 20.4380586,3.19993485 C20.5213025,3.29150315 20.5629238,3.39555646 20.5629238,3.51209793 L20.5629238,3.51209793 Z" id="Posts:" fill="#464646"></path>
                                <path d="M25.2053821,6.14016856 L27.5994226,3.76298751 C27.6837202,3.68430973 27.7652067,3.59860843 27.8438845,3.50588105 C27.9225622,3.41315367 27.9928092,3.31621286 28.0546275,3.21505571 C28.1164457,3.11389856 28.1656186,3.00712318 28.2021476,2.89472635 C28.2386765,2.78232952 28.2569407,2.66431462 28.2569407,2.54067811 C28.2569407,2.39456223 28.2302469,2.26249794 28.1768584,2.14448127 C28.1234699,2.0264646 28.0504131,1.92671391 27.9576857,1.84522621 C27.8649583,1.7637385 27.755373,1.70051624 27.6289266,1.6555575 C27.5024802,1.61059877 27.3690109,1.58811974 27.2285149,1.58811974 C26.9362831,1.58811974 26.6946336,1.66960622 26.503559,1.83258163 C26.3124844,1.99555703 26.1916596,2.22034731 26.141081,2.50695923 L25.2643901,2.43109175 C25.303729,2.1669592 25.3810007,1.93795409 25.4962074,1.74406956 C25.6114142,1.55018503 25.754718,1.38861702 25.9261231,1.25936066 C26.0975283,1.13010431 26.2942198,1.03456844 26.5162035,0.972750183 C26.7381873,0.910931927 26.9784319,0.880023262 27.2369446,0.880023262 C27.4954573,0.880023262 27.7385118,0.915146745 27.9661154,0.985394763 C28.193719,1.05564278 28.3932204,1.15960829 28.5646255,1.2972944 C28.7360307,1.43498052 28.8709049,1.60638311 28.9692521,1.81150733 C29.0675993,2.01663154 29.1167722,2.25687616 29.1167722,2.53224839 C29.1167722,2.72894284 29.0872685,2.91298988 29.0282601,3.08439505 C28.9692518,3.25580021 28.8919801,3.41736823 28.7964428,3.56910395 C28.7009055,3.72083967 28.5913202,3.86414348 28.4676837,3.99901967 C28.3440472,4.13389587 28.2147928,4.26596016 28.0799166,4.39521651 L26.1157918,6.29190352 L29.1167722,6.29190352 L29.1167722,7 L25.2053821,7 L25.2053821,6.14016856 Z" id="2" fill="#000000"></path>
                            </g>
                            <g id="Group-16">
                                <g id="Group-2-Copy">
                                    <path d="M3.81125037,2.08030996 C3.55041948,1.69738801 3.17027802,1.50592991 2.67081461,1.50592991 C2.51542599,1.50592991 2.36281446,1.52674057 2.21297543,1.56836252 C2.06313641,1.60998447 1.92856079,1.67380384 1.80924453,1.75982254 C1.68992827,1.84584124 1.59419921,1.95683145 1.5220545,2.09279649 C1.44990978,2.22876153 1.41383797,2.38830995 1.41383797,2.57144653 C1.41383797,2.83782702 1.48875636,3.04454628 1.63859538,3.1916105 C1.7884344,3.33867473 1.974343,3.45937658 2.19632674,3.55371967 C2.41831048,3.64806276 2.66110155,3.73269279 2.92470724,3.8076123 C3.18831293,3.88253181 3.43110401,3.982423 3.65308775,4.10728885 C3.87507149,4.23215471 4.06098008,4.39725264 4.2108191,4.6025876 C4.36065813,4.80792256 4.43557652,5.08817282 4.43557652,5.44334681 C4.43557652,5.7097273 4.37869404,5.94974361 4.26492737,6.16340296 C4.1511607,6.37706231 4.00132393,6.55603402 3.81541255,6.70032345 C3.62950116,6.84461288 3.42139453,6.95560309 3.1910864,7.03329739 C2.96077827,7.1109917 2.72908621,7.14983828 2.49600329,7.14983828 C2.13527971,7.14983828 1.79259745,7.08185677 1.46794623,6.94589173 C1.14329501,6.80992669 0.867206878,6.58655891 0.639673545,6.27578167 L1.18075621,5.88453728 C1.30839686,6.10097143 1.48598118,6.27439363 1.71351452,6.40480907 C1.94104785,6.53522452 2.2101991,6.60043127 2.52097633,6.60043127 C2.67081536,6.60043127 2.82065214,6.57684585 2.97049116,6.5296743 C3.12033018,6.48250276 3.25490581,6.41313388 3.37422207,6.32156559 C3.49353833,6.22999729 3.59204214,6.11761971 3.66973644,5.98442947 C3.74743075,5.85123922 3.78627732,5.69862769 3.78627732,5.52659029 C3.78627732,5.32125533 3.74326862,5.15060789 3.65724992,5.01464285 C3.57123122,4.87867781 3.45746626,4.76491285 3.31595163,4.67334456 C3.17443699,4.58177627 3.0135012,4.5054705 2.83313941,4.44442497 C2.65277762,4.38337944 2.46686903,4.32233483 2.27540805,4.2612893 C2.08394707,4.20024377 1.89803848,4.1308749 1.71767669,4.05318059 C1.5373149,3.97548628 1.37637911,3.87698247 1.23486447,3.75766621 C1.09334984,3.63834995 0.979584877,3.48851317 0.893566178,3.30815139 C0.807547479,3.1277896 0.764538774,2.90164705 0.764538774,2.62971697 C0.764538774,2.3466877 0.818646499,2.0997345 0.926863572,1.88884994 C1.03508065,1.67796539 1.17936791,1.50315582 1.3597297,1.36441598 C1.54009149,1.22567614 1.74403599,1.1230102 1.97156932,1.05641508 C2.19910266,0.98981996 2.43218209,0.956522899 2.67081461,0.956522899 C3.00379022,0.956522899 3.30623853,1.00924325 3.57816861,1.11468552 C3.85009869,1.2201278 4.10260141,1.40603639 4.33568433,1.67241688 L3.81125037,2.08030996 Z M6.25028452,1.60582209 C6.25028452,1.72236355 6.20866319,1.81809261 6.12541929,1.89301212 C6.04217539,1.96793163 5.95060847,2.00539083 5.85071578,2.00539083 C5.7508231,2.00539083 5.65925618,1.96793163 5.57601228,1.89301212 C5.49276838,1.81809261 5.45114705,1.72236355 5.45114705,1.60582209 C5.45114705,1.48928063 5.49276838,1.39355158 5.57601228,1.31863206 C5.65925618,1.24371255 5.7508231,1.20625336 5.85071578,1.20625336 C5.95060847,1.20625336 6.04217539,1.24371255 6.12541929,1.31863206 C6.20866319,1.39355158 6.25028452,1.48928063 6.25028452,1.60582209 L6.25028452,1.60582209 Z M6.12541929,7 L5.57601228,7 L5.57601228,3.10420484 L6.12541929,3.10420484 L6.12541929,7 Z M7.97342468,3.10420484 C7.98452387,3.20964712 7.99146076,3.31370044 7.99423555,3.41636792 C7.99701035,3.5190354 7.99839773,3.62308871 7.99839773,3.72853099 L8.01504643,3.72853099 C8.07609195,3.62308871 8.1537851,3.52597228 8.24812819,3.43717879 C8.34247128,3.34838529 8.44791197,3.27207953 8.56445344,3.2082592 C8.6809949,3.14443888 8.8044715,3.09449328 8.93488695,3.05842093 C9.0653024,3.02234857 9.19432851,3.00431266 9.32196916,3.00431266 C9.82143257,3.00431266 10.190475,3.13611353 10.4291075,3.39971922 C10.66774,3.66332491 10.7870545,4.03930423 10.7870545,4.52766846 L10.7870545,7 L10.2376475,7 L10.2376475,4.84399371 C10.2376475,4.41112541 10.1627291,4.07954218 10.0128901,3.84923405 C9.86305107,3.61892592 9.58557556,3.50377358 9.18045523,3.50377358 C9.15270727,3.50377358 9.07501412,3.5148726 8.94737347,3.53707097 C8.81973282,3.55926935 8.6851572,3.62031396 8.54364256,3.72020664 C8.40212793,3.82009932 8.27587657,3.9699361 8.1648847,4.16972147 C8.05389283,4.36950683 7.99839773,4.64698235 7.99839773,5.00215633 L7.99839773,7 L7.44899072,7 L7.44899072,3.96161275 C7.44899072,3.85617048 7.44482859,3.72298223 7.4365042,3.56204402 C7.42817981,3.40110581 7.41846816,3.24849427 7.40736898,3.10420484 L7.97342468,3.10420484 Z M14.9159314,4.01988319 C14.8215883,3.87559376 14.6897875,3.75350454 14.5205249,3.65361185 C14.3512623,3.55371917 14.1584168,3.50377358 13.9419826,3.50377358 C13.7144493,3.49822398 13.5105048,3.5342958 13.330143,3.61199011 C13.1497812,3.68968442 12.9957823,3.79789987 12.8681417,3.93663971 C12.740501,4.07537954 12.6433846,4.24047747 12.5767895,4.43193845 C12.5101944,4.62339943 12.4768973,4.83011868 12.4768973,5.05210242 C12.4768973,5.27408616 12.5101944,5.48080542 12.5767895,5.67226639 C12.6433846,5.86372737 12.740501,6.0288253 12.8681417,6.16756514 C12.9957823,6.30630498 13.1497812,6.41452042 13.330143,6.49221473 C13.5105048,6.56990904 13.7144493,6.60598086 13.9419826,6.60043127 C14.1584168,6.60043127 14.3512623,6.55048567 14.5205249,6.45059299 C14.6897875,6.35070031 14.8215883,6.22861108 14.9159314,6.08432165 L15.3654463,6.42561994 C15.1712105,6.65315328 14.9520048,6.82102596 14.7078227,6.92924304 C14.4636406,7.03746011 14.2083631,7.09434259 13.9419826,7.09989218 C13.6256558,7.10544178 13.339856,7.05688356 13.0845747,6.95421608 C12.8292934,6.8515486 12.6114752,6.70864871 12.4311134,6.52551213 C12.2507516,6.34237554 12.1134012,6.12455727 12.0190581,5.87205076 C11.924715,5.61954426 11.8775442,5.34623088 11.8775442,5.05210242 C11.8775442,4.75797397 11.924715,4.48466059 12.0190581,4.23215408 C12.1134012,3.97964758 12.2507516,3.7618293 12.4311134,3.57869272 C12.6114752,3.39555613 12.8292934,3.25265624 13.0845747,3.14998876 C13.339856,3.04732128 13.6256558,2.99876307 13.9419826,3.00431266 C14.2083631,3.00986225 14.4636406,3.06674473 14.7078227,3.17496181 C14.9520048,3.28317888 15.1712105,3.45105157 15.3654463,3.6785849 L14.9159314,4.01988319 Z M19.1197275,4.75242587 C19.1197275,4.38060311 19.0087373,4.07954218 18.7867535,3.84923405 C18.5647698,3.61892592 18.2539972,3.50377358 17.8544265,3.50377358 C17.6768395,3.50377358 17.5048047,3.53845802 17.3383169,3.60782794 C17.1718291,3.67719785 17.0261544,3.77015215 16.9012886,3.88669361 C16.7764227,4.00323508 16.6765315,4.13642332 16.601612,4.28626235 C16.5266925,4.43610137 16.4892333,4.59148766 16.4892333,4.75242587 L19.1197275,4.75242587 Z M16.4725846,5.2019407 C16.4892334,5.39617647 16.5364042,5.57931031 16.6140986,5.75134771 C16.6917929,5.9233851 16.7944588,6.0718345 16.9220995,6.19670036 C17.0497401,6.32156621 17.1968021,6.42007002 17.3632899,6.49221473 C17.5297777,6.56435945 17.7101368,6.60043127 17.9043726,6.60043127 C18.198501,6.60043127 18.4523911,6.53244977 18.6660505,6.39648472 C18.8797098,6.26051968 19.042033,6.10374602 19.1530249,5.92615903 L19.5775667,6.27578167 C19.3444837,6.56991013 19.0878189,6.78079151 18.8075644,6.90843217 C18.5273099,7.03607282 18.226249,7.09989218 17.9043726,7.09989218 C17.6157937,7.09989218 17.3480299,7.04855921 17.1010729,6.94589173 C16.854116,6.84322425 16.6418473,6.70032437 16.4642603,6.51718778 C16.2866733,6.33405119 16.1465482,6.11762029 16.0438807,5.86788859 C15.9412132,5.61815688 15.8898802,5.34623088 15.8898802,5.05210242 C15.8898802,4.75797397 15.9398258,4.48604796 16.0397185,4.23631626 C16.1396112,3.98658455 16.2783489,3.77015365 16.4559359,3.58701706 C16.6335229,3.40388048 16.8416296,3.26098059 17.0802621,3.15831311 C17.3188946,3.05564563 17.5769468,3.00431266 17.8544265,3.00431266 C18.148555,3.00431266 18.4121567,3.05703301 18.6452396,3.16247528 C18.8783225,3.26791756 19.0739428,3.40804269 19.2321062,3.58285489 C19.3902696,3.75766708 19.5109715,3.96299896 19.5942154,4.19885669 C19.6774593,4.43471441 19.7190806,4.68582975 19.7190806,4.95221024 L19.7190806,5.2019407 L16.4725846,5.2019407 Z M21.7252486,6.60043127 C21.7252486,6.71697273 21.6836273,6.82102605 21.6003834,6.91259434 C21.5171395,7.00416263 21.408924,7.04994609 21.2757338,7.04994609 C21.1425435,7.04994609 21.0343281,7.00416263 20.9510842,6.91259434 C20.8678403,6.82102605 20.826219,6.71697273 20.826219,6.60043127 C20.826219,6.4838898 20.8678403,6.37983649 20.9510842,6.28826819 C21.0343281,6.1966999 21.1425435,6.15091644 21.2757338,6.15091644 C21.408924,6.15091644 21.5171395,6.1966999 21.6003834,6.28826819 C21.6836273,6.37983649 21.7252486,6.4838898 21.7252486,6.60043127 L21.7252486,6.60043127 Z M21.7252486,3.51209793 C21.7252486,3.62863939 21.6836273,3.73269271 21.6003834,3.824261 C21.5171395,3.91582929 21.408924,3.96161275 21.2757338,3.96161275 C21.1425435,3.96161275 21.0343281,3.91582929 20.9510842,3.824261 C20.8678403,3.73269271 20.826219,3.62863939 20.826219,3.51209793 C20.826219,3.39555646 20.8678403,3.29150315 20.9510842,3.19993485 C21.0343281,3.10836656 21.1425435,3.0625831 21.2757338,3.0625831 C21.408924,3.0625831 21.5171395,3.10836656 21.6003834,3.19993485 C21.6836273,3.29150315 21.7252486,3.39555646 21.7252486,3.51209793 L21.7252486,3.51209793 Z" id="Since:" fill="#464646"></path>
                                    <path d="M26.2053821,6.14016856 L28.5994226,3.76298751 C28.6837202,3.68430973 28.7652067,3.59860843 28.8438845,3.50588105 C28.9225622,3.41315367 28.9928092,3.31621286 29.0546275,3.21505571 C29.1164457,3.11389856 29.1656186,3.00712318 29.2021476,2.89472635 C29.2386765,2.78232952 29.2569407,2.66431462 29.2569407,2.54067811 C29.2569407,2.39456223 29.2302469,2.26249794 29.1768584,2.14448127 C29.1234699,2.0264646 29.0504131,1.92671391 28.9576857,1.84522621 C28.8649583,1.7637385 28.755373,1.70051624 28.6289266,1.6555575 C28.5024802,1.61059877 28.3690109,1.58811974 28.2285149,1.58811974 C27.9362831,1.58811974 27.6946336,1.66960622 27.503559,1.83258163 C27.3124844,1.99555703 27.1916596,2.22034731 27.141081,2.50695923 L26.2643901,2.43109175 C26.303729,2.1669592 26.3810007,1.93795409 26.4962074,1.74406956 C26.6114142,1.55018503 26.754718,1.38861702 26.9261231,1.25936066 C27.0975283,1.13010431 27.2942198,1.03456844 27.5162035,0.972750183 C27.7381873,0.910931927 27.9784319,0.880023262 28.2369446,0.880023262 C28.4954573,0.880023262 28.7385118,0.915146745 28.9661154,0.985394763 C29.193719,1.05564278 29.3932204,1.15960829 29.5646255,1.2972944 C29.7360307,1.43498052 29.8709049,1.60638311 29.9692521,1.81150733 C30.0675993,2.01663154 30.1167722,2.25687616 30.1167722,2.53224839 C30.1167722,2.72894284 30.0872685,2.91298988 30.0282601,3.08439505 C29.9692518,3.25580021 29.8919801,3.41736823 29.7964428,3.56910395 C29.7009055,3.72083967 29.5913202,3.86414348 29.4676837,3.99901967 C29.3440472,4.13389587 29.2147928,4.26596016 29.0799166,4.39521651 L27.1157918,6.29190352 L30.1167722,6.29190352 L30.1167722,7 L26.2053821,7 L26.2053821,6.14016856 Z M31.7437081,5.54165844 C31.8392454,5.82827035 31.9670949,6.04182112 32.1272604,6.18231716 C32.2874259,6.32281319 32.5248606,6.39306016 32.8395717,6.39306016 C32.9969273,6.39306016 33.1444459,6.36636631 33.282132,6.31297782 C33.4198182,6.25958932 33.5420479,6.18653248 33.6488249,6.0938051 C33.7556019,6.00107771 33.8398982,5.88868257 33.9017165,5.7566163 C33.9635347,5.62455002 33.9944434,5.4770314 33.9944434,5.314056 C33.9944434,5.06678297 33.9424606,4.86868653 33.8384936,4.71976073 C33.7345265,4.57083494 33.6010573,4.45843979 33.4380819,4.38257193 C33.2751065,4.30670407 33.0952742,4.2575312 32.8985798,4.23505183 C32.7018853,4.21257247 32.5080037,4.20133295 32.3169291,4.20133295 L32.3169291,3.49323647 C32.6260204,3.49323647 32.8789095,3.47216238 33.0756039,3.43001357 C33.2722984,3.38786476 33.4268417,3.32745237 33.5392385,3.24877459 C33.6516353,3.17009681 33.7303119,3.07175106 33.7752707,2.95373439 C33.8202294,2.83571772 33.8427084,2.70365342 33.8427084,2.55753755 C33.8427084,2.23720658 33.7471726,1.99555703 33.5560979,1.83258163 C33.3650233,1.66960622 33.1261837,1.58811974 32.8395717,1.58811974 C32.6203979,1.58811974 32.4223015,1.65134201 32.2452765,1.77778845 C32.0682515,1.90423488 31.9347822,2.07142265 31.8448648,2.27935679 L31.0187522,2.00117603 C31.1761078,1.61902681 31.4163524,1.33663401 31.7394933,1.15398916 C32.0626342,0.971344316 32.4237036,0.880023262 32.8227123,0.880023262 C33.0643655,0.880023262 33.2961805,0.912336866 33.5181642,0.976965043 C33.7401479,1.04159322 33.9354345,1.14134391 34.1040297,1.2762201 C34.272625,1.4110963 34.4060942,1.58109395 34.5044414,1.78621817 C34.6027887,1.99134238 34.6519616,2.231587 34.6519616,2.50695923 C34.6519616,2.82167035 34.5578306,3.10265821 34.3695659,3.34993123 C34.1813012,3.59720425 33.9354369,3.76579697 33.6319654,3.85571443 L33.6319654,3.87257387 C33.8174202,3.90629292 33.983203,3.96811025 34.1293189,4.05802771 C34.2754348,4.14794517 34.3990694,4.26034032 34.5002266,4.39521651 C34.6013837,4.53009271 34.6772505,4.68042121 34.727829,4.84620653 C34.7784076,5.01199186 34.8036965,5.18760927 34.8036965,5.37306404 C34.8036965,5.65967595 34.7489039,5.91116008 34.639317,6.12752398 C34.5297301,6.34388787 34.3836164,6.5237201 34.2009715,6.66702606 C34.0183267,6.81033202 33.8075858,6.91851234 33.5687425,6.99157028 C33.3298993,7.06462822 33.0784151,7.10115664 32.8142826,7.10115664 C32.3590754,7.10115664 31.9586677,6.99719113 31.6130475,6.789257 C31.2674272,6.58132287 31.0271826,6.25256707 30.8923064,5.80297976 L31.7437081,5.54165844 Z M40.1734282,1.03175822 L40.9068138,1.03175822 L43.461019,7 L42.5168903,7 L41.9183802,5.524799 L39.0775646,5.524799 L38.4874842,7 L37.5433555,7 L40.1734282,1.03175822 Z M41.62334,4.81670251 L40.510617,2.07704351 L40.4937575,2.07704351 L39.364175,4.81670251 L41.62334,4.81670251 Z M44.0426697,3.00431271 L44.8013445,3.00431271 L44.8013445,3.57753367 L44.8182039,3.57753367 C44.9643198,3.3639797 45.1652261,3.19819686 45.4209289,3.08018019 C45.6766317,2.96216352 45.9393553,2.90315607 46.2091077,2.90315607 C46.518199,2.90315607 46.7977819,2.95654376 47.0478648,3.06332075 C47.2979478,3.17009774 47.5114986,3.3190213 47.6885236,3.51009591 C47.8655486,3.70117052 48.0018277,3.92455587 48.097365,4.18025865 C48.1929023,4.43596144 48.2406702,4.7099246 48.2406702,5.00215635 C48.2406702,5.30000795 48.1929023,5.57678099 48.097365,5.83248378 C48.0018277,6.08818656 47.8655486,6.31016697 47.6885236,6.49843166 C47.5114986,6.68669635 47.2979478,6.83421497 47.0478648,6.94099196 C46.7977819,7.04776895 46.518199,7.10115664 46.2091077,7.10115664 C45.9224958,7.10115664 45.6527474,7.04074425 45.3998546,6.91991766 C45.1469617,6.79909107 44.9530801,6.63471317 44.8182039,6.42677904 L44.8013445,6.42677904 L44.8013445,9.37718105 L44.0426697,9.37718105 L44.0426697,3.00431271 Z M46.1163808,3.61125255 C45.9140665,3.61125255 45.7314244,3.64637603 45.568449,3.71662405 C45.4054736,3.78687207 45.2677895,3.88240794 45.1553927,4.00323453 C45.0429959,4.12406112 44.9558896,4.27017481 44.8940714,4.44157997 C44.8322531,4.61298514 44.8013445,4.79984206 44.8013445,5.00215635 C44.8013445,5.20447065 44.8322531,5.39132757 44.8940714,5.56273274 C44.9558896,5.7341379 45.0429959,5.88025159 45.1553927,6.00107818 C45.2677895,6.12190477 45.4054736,6.21744064 45.568449,6.28768866 C45.7314244,6.35793668 45.9140665,6.39306016 46.1163808,6.39306016 C46.3186951,6.39306016 46.5013372,6.35793668 46.6643126,6.28768866 C46.827288,6.21744064 46.964972,6.12190477 47.0773689,6.00107818 C47.1897657,5.88025159 47.2768719,5.7341379 47.3386902,5.56273274 C47.4005084,5.39132757 47.4314171,5.20447065 47.4314171,5.00215635 C47.4314171,4.79984206 47.4005084,4.61298514 47.3386902,4.44157997 C47.2768719,4.27017481 47.1897657,4.12406112 47.0773689,4.00323453 C46.964972,3.88240794 46.827288,3.78687207 46.6643126,3.71662405 C46.5013372,3.64637603 46.3186951,3.61125255 46.1163808,3.61125255 L46.1163808,3.61125255 Z M49.1932286,3.00431271 L49.9519034,3.00431271 L49.9519034,3.61968227 L49.9687628,3.61968227 C50.0193414,3.51290528 50.0867785,3.41596447 50.1710761,3.32885693 C50.2553737,3.24174939 50.3495047,3.1672876 50.4534717,3.10546935 C50.5574388,3.04365109 50.6712389,2.99447822 50.7948754,2.95794925 C50.9185119,2.92142028 51.0421466,2.90315607 51.1657831,2.90315607 C51.2894196,2.90315607 51.4018147,2.92001534 51.5029719,2.95373439 L51.469253,3.77141723 C51.4074347,3.75455771 51.3456174,3.74050831 51.2837992,3.72926863 C51.2219809,3.71802895 51.1601636,3.71240919 51.0983453,3.71240919 C50.7274358,3.71240919 50.443638,3.8163747 50.2469436,4.02430883 C50.0502491,4.23224297 49.9519034,4.555379 49.9519034,4.99372663 L49.9519034,7 L49.1932286,7 L49.1932286,3.00431271 Z M52.371233,3.00431271 L53.1299078,3.00431271 L53.1299078,7 L52.371233,7 L52.371233,3.00431271 Z M52.1942089,1.5712603 C52.1942089,1.41952459 52.2490016,1.28886523 52.3585885,1.17927832 C52.4681754,1.06969142 52.5988347,1.01489878 52.7505704,1.01489878 C52.9023062,1.01489878 53.0329655,1.06969142 53.1425524,1.17927832 C53.2521393,1.28886523 53.306932,1.41952459 53.306932,1.5712603 C53.306932,1.72299602 53.2521393,1.85365538 53.1425524,1.96324229 C53.0329655,2.07282919 52.9023062,2.12762183 52.7505704,2.12762183 C52.5988347,2.12762183 52.4681754,2.07282919 52.3585885,1.96324229 C52.2490016,1.85365538 52.1942089,1.72299602 52.1942089,1.5712603 L52.1942089,1.5712603 Z M54.3943658,0.627131662 L55.1530406,0.627131662 L55.1530406,7 L54.3943658,7 L54.3943658,0.627131662 Z M58.5164989,6.14016856 L60.9105394,3.76298751 C60.994837,3.68430973 61.0763235,3.59860843 61.1550013,3.50588105 C61.2336791,3.41315367 61.3039261,3.31621286 61.3657443,3.21505571 C61.4275626,3.11389856 61.4767354,3.00712318 61.5132644,2.89472635 C61.5497934,2.78232952 61.5680576,2.66431462 61.5680576,2.54067811 C61.5680576,2.39456223 61.5413637,2.26249794 61.4879752,2.14448127 C61.4345868,2.0264646 61.3615299,1.92671391 61.2688025,1.84522621 C61.1760751,1.7637385 61.0664899,1.70051624 60.9400434,1.6555575 C60.813597,1.61059877 60.6801278,1.58811974 60.5396317,1.58811974 C60.2474,1.58811974 60.0057504,1.66960622 59.8146758,1.83258163 C59.6236012,1.99555703 59.5027764,2.22034731 59.4521979,2.50695923 L58.575507,2.43109175 C58.6148459,2.1669592 58.6921175,1.93795409 58.8073243,1.74406956 C58.922531,1.55018503 59.0658348,1.38861702 59.23724,1.25936066 C59.4086452,1.13010431 59.6053367,1.03456844 59.8273204,0.972750183 C60.0493041,0.910931927 60.2895488,0.880023262 60.5480615,0.880023262 C60.8065742,0.880023262 61.0496287,0.915146745 61.2772322,0.985394763 C61.5048358,1.05564278 61.7043372,1.15960829 61.8757424,1.2972944 C62.0471475,1.43498052 62.1820217,1.60638311 62.2803689,1.81150733 C62.3787162,2.01663154 62.427889,2.25687616 62.427889,2.53224839 C62.427889,2.72894284 62.3983853,2.91298988 62.339377,3.08439505 C62.2803686,3.25580021 62.203097,3.41736823 62.1075597,3.56910395 C62.0120224,3.72083967 61.9024371,3.86414348 61.7788006,3.99901967 C61.6551641,4.13389587 61.5259097,4.26596016 61.3910335,4.39521651 L59.4269087,6.29190352 L62.427889,6.29190352 L62.427889,7 L58.5164989,7 L58.5164989,6.14016856 Z M63.1022666,4.01587911 C63.1022666,3.79670529 63.1135061,3.56910513 63.1359855,3.33307179 C63.1584649,3.09703845 63.1992081,2.86522347 63.2582165,2.63761989 C63.3172248,2.41001631 63.3959014,2.19225072 63.4942486,1.98431659 C63.5925958,1.77638245 63.7190404,1.59514528 63.873586,1.44059964 C64.0281317,1.286054 64.2107738,1.16241935 64.4215178,1.06969196 C64.6322619,0.976964579 64.8781262,0.930601583 65.1591183,0.930601583 C65.4401104,0.930601583 65.6859748,0.976964579 65.8967188,1.06969196 C66.1074629,1.16241935 66.290105,1.286054 66.4446506,1.44059964 C66.5991963,1.59514528 66.7256408,1.77638245 66.823988,1.98431659 C66.9223352,2.19225072 67.0010118,2.41001631 67.0600202,2.63761989 C67.1190285,2.86522347 67.1597718,3.09703845 67.1822511,3.33307179 C67.2047305,3.56910513 67.21597,3.79670529 67.21597,4.01587911 C67.21597,4.33059023 67.1878712,4.66777566 67.1316728,5.02744551 C67.0754744,5.38711537 66.9715089,5.72149092 66.8197732,6.0305822 C66.6680374,6.33967348 66.4587015,6.59537243 66.191759,6.79768672 C65.9248166,7.00000101 65.5806064,7.10115664 65.1591183,7.10115664 C64.7376302,7.10115664 64.3934201,7.00000101 64.1264776,6.79768672 C63.8595351,6.59537243 63.6501992,6.33967348 63.4984635,6.0305822 C63.3467278,5.72149092 63.2427622,5.38711537 63.1865638,5.02744551 C63.1303654,4.66777566 63.1022666,4.33059023 63.1022666,4.01587911 L63.1022666,4.01587911 Z M63.9115198,4.01587911 C63.9115198,4.21257356 63.9241642,4.44579348 63.9494535,4.71554587 C63.9747428,4.98529826 64.0295354,5.24521203 64.113833,5.49529498 C64.1981307,5.74537792 64.3231703,5.95752375 64.4889556,6.13173884 C64.6547409,6.30595392 64.8781262,6.39306016 65.1591183,6.39306016 C65.4401104,6.39306016 65.6634957,6.30595392 65.8292811,6.13173884 C65.9950664,5.95752375 66.120106,5.74537792 66.2044036,5.49529498 C66.2887012,5.24521203 66.3434939,4.98529826 66.3687831,4.71554587 C66.3940724,4.44579348 66.4067169,4.21257356 66.4067169,4.01587911 C66.4067169,3.88100292 66.4025021,3.72786453 66.3940723,3.55645937 C66.3856425,3.38505421 66.3659734,3.21084173 66.3350643,3.03381673 C66.3041551,2.85679172 66.260602,2.68538913 66.2044036,2.51960381 C66.1482052,2.35381848 66.0737434,2.20489492 65.981016,2.07282865 C65.8882886,1.94076237 65.7744886,1.83539193 65.6396124,1.75671414 C65.5047362,1.67803636 65.3445731,1.63869806 65.1591183,1.63869806 C64.9736635,1.63869806 64.8135005,1.67803636 64.6786243,1.75671414 C64.5437481,1.83539193 64.429948,1.94076237 64.3372206,2.07282865 C64.2444932,2.20489492 64.1700314,2.35381848 64.113833,2.51960381 C64.0576346,2.68538913 64.0140815,2.85679172 63.9831724,3.03381673 C63.9522632,3.21084173 63.9325941,3.38505421 63.9241643,3.55645937 C63.9157346,3.72786453 63.9115198,3.88100292 63.9115198,4.01587911 L63.9115198,4.01587911 Z M69.7786049,1.95902743 L68.6827413,2.97059383 L68.210677,2.40580259 L69.8713318,1.03175822 L70.587858,1.03175822 L70.587858,7 L69.7786049,7 L69.7786049,1.95902743 Z M76.1599029,1.79043303 L73.7405733,1.79043303 L73.7152841,3.28249347 C73.754623,3.26563395 73.8108206,3.24877467 73.8838785,3.23191515 C73.9569365,3.21505562 74.0313983,3.20100623 74.1072661,3.18976655 C74.183134,3.17852687 74.2575958,3.17009723 74.3306537,3.16447739 C74.4037116,3.15885755 74.465529,3.15604767 74.5161075,3.15604767 C74.7970996,3.15604767 75.0513936,3.2038156 75.2789972,3.29935291 C75.5066008,3.39489021 75.7018873,3.52976439 75.8648627,3.70397947 C76.0278382,3.87819456 76.1528777,4.08612557 76.2399853,4.32777875 C76.3270928,4.56943193 76.3706459,4.8363704 76.3706459,5.12860215 C76.3706459,5.42645375 76.3158533,5.69620209 76.2062664,5.93785528 C76.0966795,6.17950846 75.946351,6.38743947 75.7552764,6.56165456 C75.5642018,6.73586964 75.3422214,6.86933888 75.0893285,6.96206626 C74.8364356,7.05479364 74.5638774,7.10115664 74.2716457,7.10115664 C73.8670171,7.10115664 73.5017329,6.99719113 73.1757821,6.789257 C72.8498313,6.58132287 72.6166113,6.28347574 72.4761153,5.89570668 L73.2937981,5.61752592 C73.4005751,5.89289815 73.5438789,6.09099459 73.7237139,6.21182118 C73.9035488,6.33264777 74.1283391,6.39306016 74.3980915,6.39306016 C74.555447,6.39306016 74.7057755,6.36496137 74.8490815,6.30876296 C74.9923874,6.25256454 75.1160221,6.172483 75.2199892,6.06851594 C75.3239562,5.96454887 75.4068477,5.8366994 75.4686659,5.68496368 C75.5304842,5.53322796 75.5613928,5.36182536 75.5613928,5.17075075 C75.5613928,4.73240312 75.4279236,4.40505227 75.1609811,4.18868837 C74.8940387,3.97232448 74.5470187,3.86414415 74.1199107,3.86414415 C73.968175,3.86414415 73.7756983,3.890838 73.5424749,3.94422649 C73.3092515,3.99761499 73.0914859,4.07488665 72.8891716,4.17604379 L72.9566093,1.03175822 L76.1599029,1.03175822 L76.1599029,1.79043303 Z" id="23-April-2015" fill="#000000"></path>
                                </g>
                            </g>
                        </g>
                        <g id="Group-12" transform="translate(6.322681, 47.100065)" fill="#000000">
                            <path d="M7.14654848,3.21830845 L0.505855028,3.21830845 L0.505855028,1.57185553 L15.5983401,1.57185553 L15.5983401,3.21830845 L8.95764669,3.21830845 L8.95764669,21 L7.14654848,21 L7.14654848,3.21830845 Z M18.1229013,0.25469319 L19.7693542,0.25469319 L19.7693542,10.5450239 L19.824236,10.5450239 C20.1535282,9.84985146 20.7023404,9.25073153 21.4706889,8.74764618 C22.2390374,8.24456082 23.1354306,7.99302192 24.1598953,7.99302192 C25.147772,7.99302192 25.9526965,8.1485187 26.574693,8.45951692 C27.1966894,8.77051513 27.6860469,9.17755081 28.0427801,9.68063617 C28.3995134,10.1837215 28.6464789,10.7645477 28.783684,11.4231322 C28.9208891,12.0817166 28.9894906,12.758585 28.9894906,13.4537574 L28.9894906,21 L27.3430376,21 L27.3430376,13.5360801 C27.3430376,13.0238477 27.2973033,12.5253434 27.2058332,12.040552 C27.1143632,11.5557607 26.954293,11.1212844 26.7256178,10.7371101 C26.4969426,10.3529359 26.1768022,10.0465157 25.7651869,9.81784058 C25.3535716,9.58916542 24.8184798,9.47482955 24.1598953,9.47482955 C23.5561929,9.47482955 22.9845136,9.58001855 22.4448402,9.79039969 C21.9051668,10.0007808 21.4386765,10.3209213 21.0453552,10.7508306 C20.6520339,11.1807399 20.3410404,11.7204051 20.1123652,12.3698426 C19.8836901,13.0192801 19.7693542,13.7830436 19.7693542,14.6611563 L19.7693542,21 L18.1229013,21 L18.1229013,0.25469319 Z M44.5759116,18.6126433 C43.9356211,19.5822259 43.1444169,20.277388 42.2022753,20.6981503 C41.2601336,21.1189126 40.2219639,21.3292906 39.0877352,21.3292906 C38.1181525,21.3292906 37.240053,21.1646469 36.4534105,20.8353547 C35.6667679,20.5060625 34.9898996,20.0441456 34.4227852,19.4495902 C33.8556708,18.8550347 33.4211945,18.1507258 33.1193433,17.3366422 C32.8174921,16.5225587 32.6665688,15.6215921 32.6665688,14.6337154 C32.6665688,13.6824267 32.8220655,12.8043273 33.1330638,11.9993907 C33.444062,11.1944541 33.8831117,10.4947186 34.4502261,9.90016322 C35.0173405,9.3056078 35.6850619,8.83911748 36.4534105,8.50067824 C37.221759,8.162239 38.0724179,7.99302192 39.0054125,7.99302192 C39.9749952,7.99302192 40.8302275,8.162239 41.571135,8.50067824 C42.3120425,8.83911748 42.9340296,9.28731407 43.437115,9.84528146 C43.9402003,10.4032488 44.3197954,11.0389563 44.5759116,11.7524228 C44.8320277,12.4658893 44.9600839,13.1884919 44.9600839,13.9202524 L44.9600839,15.0727695 L34.3130217,15.0727695 C34.3130217,15.4203557 34.3816232,15.8639789 34.5188283,16.4036523 C34.6560334,16.9433256 34.9075723,17.4692706 35.2734526,17.981503 C35.6393328,18.4937353 36.1286903,18.9327851 36.7415397,19.2986653 C37.3543892,19.6645456 38.1455934,19.847483 39.115176,19.847483 C39.9567006,19.847483 40.770772,19.6462518 41.5574145,19.2437836 C42.3440571,18.8413153 42.9477505,18.2925031 43.3685127,17.5973306 L44.5759116,18.6126433 Z M43.313631,13.5909619 C43.313631,13.0238475 43.1992951,12.493329 42.97062,11.9993907 C42.7419448,11.5054524 42.4309512,11.0709761 42.03763,10.6959488 C41.6443087,10.3209215 41.1778184,10.0236483 40.638145,9.80412013 C40.0984716,9.58459198 39.5267923,9.47482955 38.9230899,9.47482955 C38.0266832,9.47482955 37.2812134,9.65776693 36.686658,10.0236472 C36.0921026,10.3895274 35.6210388,10.8102834 35.2734526,11.2859278 C34.9258663,11.7615721 34.6789008,12.223489 34.5325487,12.6716923 C34.3861966,13.1198956 34.3130217,13.4263157 34.3130217,13.5909619 L43.313631,13.5909619 Z M56.7596632,17.4052445 C57.2353075,18.228475 57.8527212,18.8413153 58.6119227,19.2437836 C59.3711242,19.6462518 60.2355034,19.847483 61.2050861,19.847483 C61.8087885,19.847483 62.3758944,19.7560143 62.9064208,19.5730741 C63.4369471,19.390134 63.898864,19.1340217 64.2921853,18.8047294 C64.6855066,18.4754372 64.9965001,18.0775484 65.2251753,17.6110511 C65.4538504,17.1445537 65.5681863,16.6186088 65.5681863,16.0332004 C65.5681863,15.3563219 65.4264098,14.7983629 65.1428526,14.3593066 C64.8592954,13.9202502 64.4797004,13.5589489 64.004056,13.2753917 C63.5284117,12.9918345 62.9933198,12.7494425 62.3987644,12.5482083 C61.804209,12.3469742 61.1913688,12.1457431 60.5602253,11.9445089 C59.9290819,11.7432748 59.3162417,11.5146031 58.7216862,11.2584869 C58.1271308,11.0023707 57.592039,10.66851 57.1163946,10.2568947 C56.6407503,9.8452794 56.2611552,9.32848129 55.977598,8.70648485 C55.6940408,8.08448842 55.5522644,7.3161514 55.5522644,6.40145076 C55.5522644,5.54163216 55.7214814,4.77786858 56.0599207,4.11013711 C56.3983599,3.44240565 56.8557034,2.88444662 57.4319648,2.43624331 C58.0082262,1.98804 58.6713742,1.64960584 59.4214287,1.42093068 C60.1714833,1.19225552 60.958114,1.07791965 61.7813446,1.07791965 C62.8423973,1.07791965 63.8256858,1.26543047 64.7312394,1.64045773 C65.636793,2.01548499 66.4188504,2.64204554 67.0774348,3.52015815 L65.5133045,4.64523431 C65.0559542,4.00494387 64.5208624,3.52473323 63.9080129,3.20458801 C63.2951635,2.88444278 62.5679874,2.72437257 61.7264628,2.72437257 C61.1410544,2.72437257 60.5830954,2.80212096 60.052569,2.95762007 C59.5220426,3.11311918 59.0601258,3.34179091 58.6668045,3.64364212 C58.2734832,3.94549333 57.9579162,4.3250884 57.720094,4.78243872 C57.4822719,5.23978904 57.3633626,5.77945433 57.3633626,6.40145076 C57.3633626,7.37103344 57.6103281,8.11650328 58.1042664,8.63788265 C58.5982047,9.15926201 59.2156184,9.57087113 59.9565259,9.87272234 C60.6974335,10.1745736 61.5023579,10.4398328 62.3713236,10.6685079 C63.2402892,10.8971831 64.0452137,11.2036032 64.7861212,11.5877775 C65.5270287,11.9719517 66.1444424,12.5070436 66.6383807,13.1930691 C67.1323191,13.8790945 67.3792845,14.8257955 67.3792845,16.0332004 C67.3792845,16.911313 67.2146409,17.6887969 66.8853486,18.3656753 C66.5560564,19.0425538 66.1124333,19.6142331 65.5544659,20.0807305 C64.9964985,20.5472278 64.3516442,20.8993822 63.6198837,21.1372044 C62.8881232,21.3750266 62.128933,21.4939359 61.3422905,21.4939359 C60.0617096,21.4939359 58.8817635,21.2698376 57.8024167,20.8216343 C56.7230699,20.373431 55.7992361,19.6188142 55.0308876,18.5577615 L56.7596632,17.4052445 Z M81.7583067,17.4326853 C81.7583067,17.6705075 81.7674536,17.9586339 81.7857476,18.2970731 C81.8040416,18.6355124 81.8177619,18.97852 81.8269089,19.3261062 C81.8360559,19.6736924 81.8497762,19.9984063 81.8680702,20.3002575 C81.8863642,20.6021087 81.8955111,20.8353539 81.8955111,21 L80.2490582,21 C80.2307642,20.5243557 80.2170439,20.0670122 80.2078969,19.6279559 C80.1987499,19.1888996 80.1758827,18.9053466 80.1392947,18.7772886 L80.056972,18.7772886 C79.7276798,19.472461 79.1788676,20.071581 78.4105191,20.5746663 C77.6421706,21.0777517 76.7457774,21.3292906 75.7213127,21.3292906 C74.733436,21.3292906 73.923938,21.1737938 73.2927946,20.8627956 C72.6616512,20.5517974 72.1677202,20.1447617 71.810987,19.6416763 C71.4542537,19.138591 71.2118617,18.5577648 71.0838036,17.8991803 C70.9557455,17.2405959 70.8917174,16.5637275 70.8917174,15.8685551 L70.8917174,8.3223125 L72.5381703,8.3223125 L72.5381703,15.7862324 C72.5381703,16.2984648 72.5839047,16.7969691 72.6753748,17.2817605 C72.7668448,17.7665518 72.926915,18.2010281 73.1555902,18.5852024 C73.3842653,18.9693767 73.7044058,19.2757968 74.1160211,19.5044719 C74.5276363,19.7331471 75.0627282,19.847483 75.7213127,19.847483 C76.3250151,19.847483 76.8966944,19.742294 77.4363678,19.5319128 C77.9760412,19.3215317 78.4425315,19.0013912 78.8358528,18.5714819 C79.229174,18.1415726 79.5401676,17.6019074 79.7688428,16.9524699 C79.9975179,16.3030324 80.1118538,15.5392689 80.1118538,14.6611563 L80.1118538,8.3223125 L81.7583067,8.3223125 L81.7583067,17.4326853 Z M86.5604611,8.3223125 L88.206914,8.3223125 L88.206914,21 L86.5604611,21 L86.5604611,8.3223125 Z M86.1488478,3.30063109 C86.1488478,2.95304485 86.2677571,2.66034504 86.5055793,2.42252287 C86.7434015,2.1847007 87.0361013,2.0657914 87.3836875,2.0657914 C87.7312738,2.0657914 88.0239736,2.1847007 88.2617957,2.42252287 C88.4996179,2.66034504 88.6185272,2.95304485 88.6185272,3.30063109 C88.6185272,3.64821734 88.4996179,3.94091715 88.2617957,4.17873932 C88.0239736,4.41656149 87.7312738,4.53547079 87.3836875,4.53547079 C87.0361013,4.53547079 86.7434015,4.41656149 86.5055793,4.17873932 C86.2677571,3.94091715 86.1488478,3.64821734 86.1488478,3.30063109 L86.1488478,3.30063109 Z M99.0735033,9.80412013 L95.4513068,9.80412013 L95.4513068,18.0638256 C95.4513068,18.63094 95.6068036,19.0699897 95.9178018,19.380988 C96.2288,19.6919862 96.6587029,19.847483 97.2075233,19.847483 C97.5185215,19.847483 97.8340885,19.806322 98.1542337,19.723999 C98.4743789,19.6416759 98.7807991,19.5364869 99.0735033,19.4084288 L99.2107077,20.8902365 C98.8997095,21.0000005 98.5429816,21.1006161 98.1405133,21.1920862 C97.738045,21.2835562 97.3813171,21.3292906 97.0703189,21.3292906 C96.4849105,21.3292906 95.9818327,21.2423953 95.5610704,21.0686022 C95.1403081,20.8948091 94.8018739,20.6615639 94.5457577,20.3688597 C94.2896415,20.0761555 94.1021307,19.7331479 93.9832196,19.3398266 C93.8643086,18.9465054 93.8048539,18.5211759 93.8048539,18.0638256 L93.8048539,9.80412013 L91.0607657,9.80412013 L91.0607657,8.3223125 L93.8048539,8.3223125 L93.8048539,4.6726752 L95.4513068,4.6726752 L95.4513068,8.3223125 L99.0735033,8.3223125 L99.0735033,9.80412013 Z M112.629299,19.13402 C112.007303,19.8840745 111.302994,20.4374601 110.516351,20.7941934 C109.729709,21.1509266 108.87905,21.3292906 107.964349,21.3292906 C106.994766,21.3292906 106.098373,21.1646469 105.275143,20.8353547 C104.451912,20.5060625 103.747603,20.0441456 103.162195,19.4495902 C102.576786,18.8550347 102.119443,18.1507258 101.790151,17.3366422 C101.460858,16.5225587 101.296215,15.6307389 101.296215,14.6611563 C101.296215,13.6915736 101.460858,12.7997538 101.790151,11.9856703 C102.119443,11.1715867 102.576786,10.4672778 103.162195,9.87272234 C103.747603,9.27816692 104.451912,8.81625003 105.275143,8.4869578 C106.098373,8.15766557 106.994766,7.99302192 107.964349,7.99302192 C108.897344,7.99302192 109.761723,8.18510617 110.557512,8.56928044 C111.353302,8.95345471 112.062184,9.49312 112.684181,10.1882925 L111.367018,11.1761642 C110.891374,10.6456379 110.370003,10.2294553 109.802888,9.9276041 C109.235774,9.62575289 108.622933,9.47482955 107.964349,9.47482955 C107.196,9.47482955 106.500838,9.61203259 105.878842,9.88644278 C105.256846,10.160853 104.726327,10.5313012 104.287271,10.9977985 C103.848215,11.4642958 103.514354,12.013108 103.285679,12.6442514 C103.057003,13.2753949 102.942668,13.9476898 102.942668,14.6611563 C102.942668,15.3746228 103.057003,16.0469176 103.285679,16.6780611 C103.514354,17.3092045 103.848215,17.8580167 104.287271,18.324514 C104.726327,18.7910113 105.256846,19.1614595 105.878842,19.4358697 C106.500838,19.7102799 107.196,19.847483 107.964349,19.847483 C108.659522,19.847483 109.295229,19.6874127 109.87149,19.3672675 C110.447752,19.0471223 110.946256,18.6217929 111.367018,18.0912665 L112.629299,19.13402 Z M125.060019,15.6764689 C125.060019,16.2984653 125.064592,16.8564243 125.073739,17.3503627 C125.082886,17.844301 125.096606,18.3016445 125.1149,18.7224068 C125.133194,19.1431691 125.156061,19.5364845 125.183503,19.9023647 C125.210944,20.268245 125.252104,20.6341197 125.306986,21 L123.770297,21 C123.660533,20.3780036 123.605652,19.6919884 123.605652,18.9419338 L123.55077,18.9419338 C123.075126,19.7651644 122.485153,20.3688578 121.780833,20.7530321 C121.076514,21.1372063 120.184694,21.3292906 119.105347,21.3292906 C118.556527,21.3292906 118.016861,21.2606891 117.486335,21.123484 C116.955809,20.9862789 116.480172,20.766754 116.059409,20.4649028 C115.638647,20.1630516 115.295639,19.7743096 115.030376,19.2986653 C114.765113,18.823021 114.632483,18.2467682 114.632483,17.5698897 C114.632483,16.6003071 114.879449,15.8319701 115.373387,15.2648557 C115.867326,14.6977413 116.475592,14.2724118 117.198206,13.9888546 C117.920819,13.7052974 118.689156,13.5223601 119.50324,13.440037 C120.317323,13.3577139 121.035353,13.316553 121.657349,13.316553 L123.578211,13.316553 L123.578211,12.5482083 C123.578211,11.4505676 123.239777,10.6639368 122.562898,10.1882925 C121.88602,9.71264815 121.035361,9.47482955 120.010896,9.47482955 C118.547375,9.47482955 117.257667,9.95046675 116.141732,10.9017554 L115.181301,9.77667925 C115.785003,9.19127084 116.535047,8.74764769 117.431453,8.44579647 C118.32786,8.14394526 119.187666,7.99302192 120.010896,7.99302192 C121.547593,7.99302192 122.773274,8.35432325 123.687974,9.07693676 C124.602675,9.79955027 125.060019,10.9657761 125.060019,12.5756492 L125.060019,15.6764689 Z M121.767113,14.6337154 C121.07194,14.6337154 120.399645,14.6794497 119.750208,14.7709198 C119.10077,14.8623898 118.515371,15.0178866 117.993991,15.2374148 C117.472612,15.4569429 117.056429,15.7496427 116.745431,16.115523 C116.434433,16.4814033 116.278936,16.9387467 116.278936,17.4875671 C116.278936,17.8717414 116.365832,18.214749 116.539625,18.5166002 C116.713418,18.8184514 116.937516,19.0654169 117.211926,19.257504 C117.486336,19.4495911 117.792757,19.595941 118.131196,19.6965581 C118.469635,19.7971752 118.812643,19.847483 119.160229,19.847483 C120.038342,19.847483 120.760944,19.7194268 121.328059,19.4633106 C121.895173,19.2071944 122.347943,18.8733337 122.686382,18.4617184 C123.024821,18.0501031 123.258067,17.5836128 123.386125,17.0622334 C123.514183,16.5408541 123.578211,16.0149091 123.578211,15.4843827 L123.578211,14.6337154 L121.767113,14.6337154 Z M129.478001,17.7619759 C129.825587,18.4388544 130.337811,18.9556525 131.01469,19.3123858 C131.691568,19.669119 132.405024,19.847483 133.155079,19.847483 C133.502665,19.847483 133.850246,19.7926017 134.197832,19.6828377 C134.545418,19.5730736 134.856412,19.4175768 135.130822,19.2163427 C135.405232,19.0151085 135.629331,18.7727165 135.803124,18.4891593 C135.976917,18.2056021 136.063812,17.8808882 136.063812,17.515008 C136.063812,16.9295996 135.876301,16.4905499 135.501274,16.1978456 C135.126247,15.9051414 134.66433,15.6764697 134.11551,15.5118236 C133.566689,15.3471775 132.962996,15.205401 132.304411,15.0864899 C131.645827,14.9675788 131.042134,14.7846415 130.493313,14.5376723 C129.944493,14.2907031 129.482576,13.9476955 129.107549,13.5086392 C128.732521,13.0695829 128.545011,12.4475958 128.545011,11.6426592 C128.545011,11.0206628 128.673067,10.4809975 128.929183,10.0236472 C129.185299,9.56629687 129.51916,9.1867018 129.930775,8.88485059 C130.34239,8.58299937 130.804307,8.35890108 131.31654,8.21254898 C131.828772,8.06619687 132.350144,7.99302192 132.88067,7.99302192 C133.923429,7.99302192 134.824395,8.18510617 135.583597,8.56928044 C136.342798,8.95345471 136.932771,9.55714808 137.353534,10.3803787 L135.871726,11.2584869 C135.560728,10.6730785 135.171986,10.2294553 134.705489,9.9276041 C134.238991,9.62575289 133.630724,9.47482955 132.88067,9.47482955 C132.587966,9.47482955 132.281546,9.5205639 131.9614,9.61203396 C131.641255,9.70350402 131.353129,9.83156019 131.097013,9.99620631 C130.840896,10.1608524 130.625945,10.3712304 130.452152,10.6273466 C130.278359,10.8834628 130.191463,11.1761626 130.191463,11.5054548 C130.191463,12.0725692 130.378974,12.4933252 130.754002,12.7677354 C131.129029,13.0421456 131.590946,13.257097 132.139766,13.4125961 C132.688586,13.5680952 133.29228,13.7007248 133.950864,13.8104889 C134.609449,13.920253 135.213142,14.0986169 135.761963,14.3455861 C136.310783,14.5925553 136.7727,14.9492832 137.147727,15.4157805 C137.522754,15.8822778 137.710265,16.5454259 137.710265,17.4052445 C137.710265,18.0638289 137.586782,18.6355082 137.339813,19.1202996 C137.092844,19.6050909 136.75441,20.0121266 136.324501,20.3414188 C135.894591,20.6707111 135.405234,20.9176765 134.856413,21.0823226 C134.307593,21.2469688 133.73134,21.3292906 133.127638,21.3292906 C132.029997,21.3292906 131.028415,21.1189126 130.122861,20.6981503 C129.217308,20.277388 128.517572,19.6279603 128.023634,18.7498477 L129.478001,17.7619759 Z M152.336255,18.6126433 C151.695965,19.5822259 150.904761,20.277388 149.962619,20.6981503 C149.020477,21.1189126 147.982308,21.3292906 146.848079,21.3292906 C145.878496,21.3292906 145.000397,21.1646469 144.213754,20.8353547 C143.427112,20.5060625 142.750243,20.0441456 142.183129,19.4495902 C141.616015,18.8550347 141.181538,18.1507258 140.879687,17.3366422 C140.577836,16.5225587 140.426912,15.6215921 140.426912,14.6337154 C140.426912,13.6824267 140.582409,12.8043273 140.893407,11.9993907 C141.204406,11.1944541 141.643455,10.4947186 142.21057,9.90016322 C142.777684,9.3056078 143.445406,8.83911748 144.213754,8.50067824 C144.982103,8.162239 145.832762,7.99302192 146.765756,7.99302192 C147.735339,7.99302192 148.590571,8.162239 149.331479,8.50067824 C150.072386,8.83911748 150.694373,9.28731407 151.197459,9.84528146 C151.700544,10.4032488 152.080139,11.0389563 152.336255,11.7524228 C152.592371,12.4658893 152.720428,13.1884919 152.720428,13.9202524 L152.720428,15.0727695 L142.073365,15.0727695 C142.073365,15.4203557 142.141967,15.8639789 142.279172,16.4036523 C142.416377,16.9433256 142.667916,17.4692706 143.033796,17.981503 C143.399677,18.4937353 143.889034,18.9327851 144.501883,19.2986653 C145.114733,19.6645456 145.905937,19.847483 146.87552,19.847483 C147.717044,19.847483 148.531116,19.6462518 149.317758,19.2437836 C150.104401,18.8413153 150.708094,18.2925031 151.128856,17.5973306 L152.336255,18.6126433 Z M151.073975,13.5909619 C151.073975,13.0238475 150.959639,12.493329 150.730964,11.9993907 C150.502289,11.5054524 150.191295,11.0709761 149.797974,10.6959488 C149.404652,10.3209215 148.938162,10.0236483 148.398489,9.80412013 C147.858815,9.58459198 147.287136,9.47482955 146.683434,9.47482955 C145.787027,9.47482955 145.041557,9.65776693 144.447002,10.0236472 C143.852446,10.3895274 143.381383,10.8102834 143.033796,11.2859278 C142.68621,11.7615721 142.439245,12.223489 142.292892,12.6716923 C142.14654,13.1198956 142.073365,13.4263157 142.073365,13.5909619 L151.073975,13.5909619 Z" id="The-Suitcase"></path>
                        </g>
                        <g id="social-color-1_logo-codepen" transform="translate(65.334373, 0.000000)">
                            <g id="Group">
                                <ellipse id="Oval" fill="#030502" cx="18.1777085" cy="18.1788751" rx="18.1777085" ry="18.1788751"></ellipse>
                                <path d="M29.8323614,13.6197344 L18.7553733,6.23464215 C18.40546,6.00132386 17.9499191,6.00132386 17.5999679,6.23464215 L6.52297981,13.6197344 C6.2452017,13.8061588 6.05923617,14.132712 6.05923617,14.4861699 L6.05923617,21.8712697 C6.05923617,22.2287876 6.25057927,22.5587948 6.52297981,22.7376219 L17.5999603,30.122805 C17.7749132,30.2394225 17.9763979,30.2981024 18.1778221,30.2981024 C18.3789357,30.2981024 18.5803296,30.2394225 18.7553658,30.122805 L29.8323539,22.7376219 C30.1003084,22.5640061 30.2961808,22.2328627 30.2961808,21.8712697 L30.2961808,14.4861699 C30.2961808,14.1510878 30.1238864,13.8128395 29.8323614,13.6197344 L29.8323614,13.6197344 Z M19.2192003,9.04741404 L27.3793024,14.4874273 L23.7344446,16.9259567 L19.2192079,13.9053624 L19.2192079,9.04741404 L19.2192003,9.04741404 Z M17.1361712,9.04741404 L17.1361712,13.9053624 L12.6211844,16.9259567 L8.97603127,14.4874273 L17.1361712,9.04741404 L17.1361712,9.04741404 Z M8.14221978,16.4357406 L10.7479564,18.178716 L8.14221978,19.9217369 L8.14221978,16.4357406 L8.14221978,16.4357406 Z M17.1361712,27.3100256 L8.97603127,21.8699669 L12.6211844,19.432104 L17.1361712,22.4520772 L17.1361712,27.3100256 L17.1361712,27.3100256 Z M18.1778297,20.6427489 L14.4941246,18.178716 L18.1778297,15.7146907 L21.8612545,18.178716 L18.1778297,20.6427489 L18.1778297,20.6427489 Z M19.2192003,27.3100256 L19.2192003,22.4520772 L23.7344371,19.432104 L27.3792948,21.8699669 L19.2192003,27.3100256 L19.2192003,27.3100256 Z M28.2131139,19.9217369 L25.6077105,18.178716 L28.2131139,16.4357406 L28.2131139,19.9217369 L28.2131139,19.9217369 Z" id="Shape" fill="#FFFFFF"></path>
                            </g>
                        </g>
                    </g>
                    <g id="Group-9" transform="translate(10.010912, 40.046218)" fill="#4A4A4A">
                        <path d="M2.21161333,12.2537144 C2.04594861,12.2124281 1.88442792,12.1587567 1.72704643,12.0926986 C1.30460137,11.9110389 0.964993774,11.6674533 0.708213446,11.3619347 C0.451433118,11.056416 0.256779983,10.6848448 0.124248201,10.24721 C-3.45132778e-07,9.82608967 -0.0310620157,9.39052567 0.0310622573,8.94050494 C0.0931865302,8.4904842 0.21950399,8.05492021 0.410018427,7.63379989 C0.600532864,7.21267957 0.84695545,6.82252983 1.14929358,6.46333897 C1.45163171,6.10414811 1.77674386,5.80895545 2.12463979,5.57775213 C2.58021779,5.28049073 3.0689214,5.06167659 3.5907653,4.92130315 C3.74814679,4.88001685 3.91173825,4.85524543 4.0815446,4.84698817 C4.25135094,4.83873091 4.41908397,4.85524519 4.58474869,4.89653149 C4.94092786,4.98736136 5.210129,5.1545684 5.3923602,5.3981576 C5.5745914,5.64174681 5.68641342,5.91836091 5.7278296,6.2280082 C5.76924578,6.53765549 5.75267956,6.85761957 5.67813043,7.18791001 C5.6035813,7.51820046 5.48761773,7.80720027 5.33023624,8.0549181 C5.23912064,8.18703428 5.14179407,8.31089134 5.03825362,8.426493 C4.93471316,8.54209465 4.81667882,8.64530887 4.68414703,8.73613874 C4.65101409,8.76091053 4.60545697,8.79187479 4.54747432,8.82903247 C4.48949166,8.86619014 4.4294391,8.89715441 4.36731483,8.92192619 C4.30519055,8.94669798 4.24306721,8.96321225 4.18094294,8.97146951 C4.11881867,8.97972677 4.06704921,8.9632125 4.02563303,8.92192619 C3.99250009,8.88889715 3.97800464,8.8558686 3.98214626,8.82283955 C3.98628788,8.78981051 4.00078332,8.75678196 4.02563303,8.72375291 C4.05048274,8.69072387 4.07740286,8.6597596 4.10639418,8.63085919 C4.13538551,8.60195878 4.16230563,8.57925165 4.18715533,8.56273713 C4.2699877,8.49667904 4.35074804,8.43268622 4.42943879,8.37075676 C4.50812953,8.3088273 4.5681821,8.23244878 4.60959828,8.14161891 C4.69243064,7.98473095 4.76076632,7.79894536 4.81460735,7.58425657 C4.86844839,7.36956778 4.89329773,7.15281792 4.88915611,6.9340005 C4.88501449,6.71518308 4.84359893,6.50875465 4.76490818,6.31470901 C4.68621744,6.12066337 4.55989998,5.96584205 4.38595201,5.85024039 C4.1540214,5.70160969 3.91381114,5.62316688 3.66531405,5.61490962 C3.41681696,5.60665236 3.17660671,5.65000233 2.94467609,5.74496084 C2.71274547,5.83991934 2.49945533,5.97203354 2.30479928,6.14130739 C2.11014322,6.31058125 1.94655176,6.49843112 1.81401998,6.70486265 C1.58208936,7.0764394 1.39986089,7.48929627 1.26732911,7.94344563 C1.13479732,8.397595 1.08924021,8.84348041 1.13065639,9.28111526 C1.14722286,9.462775 1.18449687,9.65062488 1.24247952,9.84467052 C1.30046218,10.0387162 1.37501019,10.2141803 1.46612579,10.3710683 C1.56552462,10.552728 1.70633753,10.7261279 1.88856873,10.8912731 C2.07079993,11.0564184 2.24474529,11.1967897 2.41041001,11.3123914 C2.62577416,11.4692793 2.86391363,11.582815 3.12483558,11.6530017 C3.38575753,11.7231884 3.64874634,11.7562169 3.9138099,11.7520883 C4.17887347,11.7479597 4.4397915,11.7046097 4.69657183,11.6220371 C4.95335215,11.5394645 5.18942085,11.419736 5.404785,11.262848 C5.52075031,11.1720182 5.6346431,11.0729325 5.74646679,10.9655881 C5.85829048,10.8582437 5.9597586,10.7467724 6.0508742,10.6311707 C6.19997246,10.4412537 6.34078537,10.2245038 6.47331715,9.98091464 C6.60584893,9.73732544 6.70110472,9.49580417 6.75908737,9.2563436 C6.8336365,8.98385398 6.87091051,8.69485417 6.87091051,8.38933551 C6.87091051,7.95995793 6.7963625,7.54503678 6.64726424,7.14455961 C6.49816599,6.74408244 6.35321152,6.34567557 6.21239651,5.94932703 C6.13784738,5.72638098 6.0695117,5.50343827 6.00738743,5.28049222 C5.94526316,5.05754616 5.88106904,4.83460346 5.81480315,4.6116574 C5.73197078,4.33091052 5.69055522,4.03984643 5.69055522,3.7384564 C5.69055522,3.43706637 5.72575845,3.14393799 5.79616596,2.85906248 C5.86657347,2.57418697 5.96804159,2.29757287 6.10057337,2.02921188 C6.23310516,1.76085089 6.39462584,1.51520106 6.58514028,1.29225501 C6.70110559,1.16839609 6.82328149,1.0486676 6.95167166,0.93306594 C7.08006182,0.817464284 7.21466239,0.714250067 7.35547741,0.623420194 C7.5128589,0.52433306 7.67852115,0.433504549 7.85246911,0.350931937 C8.02641707,0.268359326 8.20450399,0.198173658 8.38673519,0.14037283 C8.6186658,0.0743147405 8.85680528,0.0309647696 9.10116075,0.0103216166 C9.34551623,-0.0103215363 9.54224014,-1.14683495e-07 9.69133839,0.0412861912 C9.72447134,0.0578007136 9.75967457,0.0681221353 9.79694913,0.0722507659 C9.83422369,0.0763793964 9.86114381,0.0825722494 9.87771028,0.0908295106 C10.1593403,0.1568876 10.3850551,0.282808944 10.5548615,0.468597321 C10.7246678,0.654385698 10.8509853,0.869071268 10.9338176,1.11266047 C11.01665,1.35624968 11.0601363,1.61428522 11.064278,1.88677484 C11.0684196,2.15926446 11.0414995,2.41110715 10.9835168,2.64231046 C10.9172509,2.89828556 10.8282075,3.12742112 10.7163838,3.32972402 C10.6045601,3.53202691 10.4533933,3.72813393 10.2628788,3.91805093 C10.1220638,4.05842437 9.9646847,4.1740243 9.79073673,4.26485417 C9.61678877,4.35568404 9.4345603,4.41761257 9.24404587,4.45064162 C9.18606321,4.46715614 9.11772754,4.47954185 9.03903679,4.48779911 C8.96034604,4.49605637 8.88579804,4.49399208 8.81539053,4.48160619 C8.74498302,4.4692203 8.68285968,4.44444889 8.62901864,4.40729121 C8.5751776,4.37013354 8.54825749,4.31026929 8.54825749,4.22769668 C8.53997425,4.12860955 8.56275281,4.07287387 8.61659385,4.06048798 C8.67043488,4.04810208 8.734629,4.04190923 8.80917813,4.04190923 C9.0079758,4.03365197 9.17985038,3.97791629 9.32480702,3.87470053 C9.46976365,3.77148476 9.59193956,3.64143485 9.69133839,3.48454689 C9.79073723,3.32765893 9.8694268,3.15838761 9.92740945,2.97672787 C9.98539211,2.79506812 10.0226661,2.61753967 10.0392326,2.44413718 C10.0557991,2.29550648 10.0578698,2.13655659 10.045445,1.96728273 C10.0330201,1.79800888 10.0019585,1.63286613 9.95225904,1.47184954 C9.90255962,1.31083295 9.83008239,1.16426876 9.73482517,1.03215258 C9.63956795,0.9000364 9.51739205,0.796822184 9.36829379,0.722506833 C9.19434583,0.639934221 9.01832969,0.598648534 8.84024011,0.598648534 C8.66215053,0.598648534 8.48820517,0.633741368 8.31839883,0.703928088 C8.14859248,0.774114808 7.99328413,0.871136172 7.85246911,0.994995089 C7.71165409,1.11885401 7.59569052,1.25509677 7.50457492,1.40372747 C7.39689285,1.58538722 7.30784939,1.78975137 7.23744188,2.01682605 C7.16703437,2.24390073 7.12768959,2.46065059 7.11940636,2.66708212 C7.10283988,3.01388709 7.14425544,3.34830115 7.24365428,3.67033434 C7.34305312,3.99236752 7.45073357,4.31026731 7.56669888,4.62404323 C7.63296477,4.80570298 7.70130045,4.98323143 7.77170796,5.15663392 C7.84211547,5.3300364 7.90630959,5.51169342 7.96429224,5.70161043 C8.1133905,6.16401706 8.23142485,6.63880245 8.31839883,7.12598086 C8.40537281,7.61315927 8.40330203,8.10033038 8.31218643,8.58750879 C8.24592054,8.9673428 8.10924919,9.33891398 7.90216828,9.70223347 C7.69508737,10.065553 7.47144334,10.3917099 7.23122949,10.680714 C6.99929887,10.9532036 6.72802695,11.1947249 6.41740558,11.4052851 C6.10678422,11.6158452 5.77338895,11.795438 5.41720979,11.9440687 C5.06103062,12.0926994 4.69657369,12.206235 4.32382805,12.284679 C3.95108241,12.363123 3.59076704,12.3982158 3.24287111,12.3899585 C3.06892314,12.3899585 2.89497779,12.3775728 2.72102982,12.3528011 C2.54708186,12.3280293 2.37727806,12.2950007 2.21161333,12.2537144 Z" id="S-Copy-6"></path>
                    </g>
                </g>
            </g>
        </g>
    </g>
</svg>