<?xml version="1.0" encoding="UTF-8" standalone="no"?>
<svg width="48px" height="40px" viewBox="0 0 48 40" version="1.1" xmlns="http://www.w3.org/2000/svg" xmlns:xlink="http://www.w3.org/1999/xlink">
    <!-- Generator: Sketch 3.8.3 (29802) - http://www.bohemiancoding.com/sketch -->
    <title>social-color-1_logo-twitter</title>
    <desc>Created with Sketch.</desc>
    <defs></defs>
    <g id="Page-1" stroke="none" stroke-width="1" fill="none" fill-rule="evenodd">
        <g id="Browser-Copy-2" transform="translate(-911.000000, -1585.000000)" fill="#69ACE0">
            <g id="social-color-1_logo-twitter" transform="translate(911.000000, 1585.000000)">
                <path d="M48,5.11341 C46.23397,5.89663 44.33611,6.42609 42.34393,6.66408 C44.37725,5.44535 45.93873,3.51541 46.67394,1.2158 C44.77126,2.34435 42.6637,3.16391 40.4205,3.6056 C38.62414,1.6916 36.06476,0.49568 33.23245,0.49568 C27.7936,0.49568 23.38438,4.90491 23.38438,10.34324 C23.38438,11.11515 23.47148,11.86664 23.63933,12.58746 C15.45493,12.17681 8.19863,8.25625 3.34155,2.29823 C2.49387,3.75272 2.0083,5.44432 2.0083,7.24909 C2.0083,10.66558 3.74688,13.67982 6.38923,15.44585 C4.77496,15.39476 3.25651,14.9517 1.92873,14.21408 C1.92804,14.25523 1.92789,14.29639 1.92789,14.33788 C1.92789,19.10932 5.32241,23.08956 9.82749,23.99418 C9.00107,24.21912 8.13108,24.3395 7.23299,24.3395 C6.59841,24.3395 5.9815,24.27777 5.38019,24.16289 C6.63338,28.07523 10.2702,30.92247 14.57948,31.00203 C11.20912,33.64319 6.96294,35.21752 2.34916,35.21752 C1.55427,35.21751 0.77036,35.17088 0,35.08 C4.35814,37.87408 9.53447,39.50431 15.09573,39.50431 C33.20947,39.50431 43.11463,24.4986 43.11463,11.48515 C43.11463,11.05821 43.10504,10.63351 43.08617,10.21121 C45.01011,8.82274 46.67978,7.08826 48,5.11341 L48,5.11341 Z" id="Shape"></path>
            </g>
        </g>
    </g>
</svg>