<?xml version="1.0" encoding="UTF-8" standalone="no"?>
<svg width="41px" height="44px" viewBox="0 0 41 44" version="1.1" xmlns="http://www.w3.org/2000/svg" xmlns:xlink="http://www.w3.org/1999/xlink">
    <!-- Generator: Sketch 3.8.3 (29802) - http://www.bohemiancoding.com/sketch -->
    <title>design-color-2_browser-ie</title>
    <desc>Created with Sketch.</desc>
    <defs></defs>
    <g id="Page-1" stroke="none" stroke-width="1" fill="none" fill-rule="evenodd">
        <g id="Browser-Copy-2" transform="translate(-1000.000000, -861.000000)" fill="#43A6DD">
            <g id="design-color-2_browser-ie" transform="translate(1000.000000, 861.642857)">
                <path d="M39.626746,9.5485 C43.591004,-0.706642857 35.8906935,0.0111428571 35.8906935,0.0111428571 C30.9502742,0.0111428571 24.77475,4.49614286 24.77475,4.49614286 C24.77475,4.49614286 17.4088306,2.51735714 10.0419798,6.95871429 C2.01379839,12.0593571 2.27833065,21.1185 2.27833065,21.1185 C8.806875,11.7956429 17.8931855,8.0145 17.8931855,8.0145 L17.8931855,8.63014286 C4.48400806,17.771 1.30868952,31.1442857 0.51416129,33.8705714 C-0.279435484,36.5968571 0.249629032,42.7142857 5.89608871,42.7142857 C11.5425484,42.7142857 17.2765645,38.1800714 17.2765645,38.1800714 C17.2765645,38.1800714 18.5116694,38.4437857 21.8639637,38.4437857 C35.9791815,38.4437857 39.3314758,26 39.3314758,26 L26.8043831,26 C26.8043831,26 25.9222984,30.0894286 21.4233871,30.0894286 C15.2478629,30.0894286 15.6008831,23.6692857 15.6008831,23.6692857 L39.5084516,23.6692857 C40.6550685,7.13514286 26.1868306,4.75985714 26.1868306,4.75985714 C26.1868306,4.75985714 31.2995685,1.15421429 35.7146492,1.15421429 C42.7117137,1.15421429 39.4031976,9.32564286 39.4031976,9.32564286 L39.626746,9.5485 L39.626746,9.5485 Z M16.5761129,37.9971429 C16.5761129,37.9971429 7.96018548,43.2101429 4.09186694,39.598 C2.0193871,35.9858571 5.38658468,30.8703571 5.38658468,30.8703571 C5.38658468,30.8703571 8.23589516,36.1381429 16.5761129,37.9971429 L16.5761129,37.9971429 Z M26.940375,18.0421429 L15.5701452,18.0421429 C15.5701452,18.0421429 15.4257702,12.5180714 21.3991694,12.5180714 C27.1676492,12.5180714 26.940375,18.0421429 26.940375,18.0421429 L26.940375,18.0421429 Z" id="Shape"></path>
            </g>
        </g>
    </g>
</svg>