<?xml version="1.0" encoding="UTF-8" standalone="no"?>
<svg width="83px" height="20px" viewBox="0 0 83 20" version="1.1" xmlns="http://www.w3.org/2000/svg" xmlns:xlink="http://www.w3.org/1999/xlink">
    <!-- Generator: Sketch 3.8.3 (29802) - http://www.bohemiancoding.com/sketch -->
    <title>nucleo-logo</title>
    <desc>Created with Sketch.</desc>
    <defs></defs>
    <g id="Page-1" stroke="none" stroke-width="1" fill="none" fill-rule="evenodd">
        <g id="Browser-Copy-2" transform="translate(-1291.000000, -2569.000000)">
            <g id="nucleo-logo" transform="translate(1291.000000, 2569.000000)">
                <path d="M6.03636364,18.7586207 C7.27107438,19.3103448 8.57438017,19.6551724 10.014876,19.6551724 C11.4553719,19.6551724 12.8272727,19.3103448 13.9933884,18.7586207 C12.6900826,17.862069 11.3181818,16.7586207 10.014876,15.5862069 C8.71157025,16.7586207 7.33966942,17.862069 6.03636364,18.7586207 L6.03636364,18.7586207 Z M18.246281,14.8965517 C19.0694215,13.4482759 19.5495868,11.7931034 19.5495868,10 C19.5495868,8.55172414 19.2066116,7.17241379 18.6578512,6 C17.2173554,8.13793103 15.1595041,10.5517241 12.8272727,12.8965517 C12.3471074,13.3793103 11.7983471,13.9310345 11.2495868,14.4137931 C11.0438017,14.2068966 10.8380165,14 10.5636364,13.7931034 C11.1123967,13.3103448 11.661157,12.7586207 12.1413223,12.2068966 C14.6793388,9.65517241 16.8057851,7.10344828 18.177686,4.96551724 C19.7553719,2.55172414 20.1669421,1.03448276 19.4809917,0.275862069 C19.4123967,0.137931034 19.0694215,0 18.7264463,0 C17.9033058,0 16.531405,0.620689655 14.885124,1.72413793 C13.4446281,0.896551724 11.7983471,0.344827586 10.014876,0.344827586 C8.23140496,0.344827586 6.58512397,0.827586207 5.1446281,1.72413793 C3.49834711,0.620689655 2.12644628,0 1.30330579,0 C0.891735537,0 0.617355372,0.137931034 0.411570248,0.344827586 C-1.23471074,2 3.90991736,8.4137931 7.75123967,12.2758621 C12.2785124,16.8275862 16.8057851,20 18.7264463,20 C19.1380165,20 19.4123967,19.862069 19.6181818,19.6551724 C20.3041322,18.9655172 19.892562,17.3793103 18.314876,14.9655172 C18.314876,14.9655172 18.314876,14.9655172 18.246281,14.8965517 L18.246281,14.8965517 Z M18.7264463,0.896551724 C18.7950413,0.896551724 18.9322314,0.896551724 19.0008264,0.965517241 C19.2066116,1.17241379 19.1380165,2.06896552 17.7661157,4.27586207 C17.2173554,3.51724138 16.531405,2.75862069 15.7082645,2.20689655 C17.0801653,1.37931034 18.1090909,0.896551724 18.7264463,0.896551724 L18.7264463,0.896551724 Z M2.26363636,4.27586207 C1.09752066,2.4137931 0.754545455,1.24137931 1.02892562,0.965517241 C1.09752066,0.896551724 1.23471074,0.896551724 1.30330579,0.896551724 C1.92066116,0.896551724 2.94958678,1.37931034 4.3214876,2.20689655 C3.56694215,2.82758621 2.88099174,3.51724138 2.26363636,4.27586207 L2.26363636,4.27586207 Z M19.0008264,19.0344828 C18.9322314,19.1034483 18.7950413,19.1034483 18.7264463,19.1034483 C18.1090909,19.1034483 17.0801653,18.6206897 15.7082645,17.7931034 C16.4628099,17.2413793 17.2173554,16.5517241 17.7661157,15.7241379 C19.1380165,17.9310345 19.2066116,18.8275862 19.0008264,19.0344828 L19.0008264,19.0344828 Z M8.91735537,14.5517241 C8.3,14 7.68264463,13.4482759 7.1338843,12.8275862 C4.87024793,10.5517241 2.67520661,8 1.30330579,5.93103448 C0.754545455,7.17241379 0.411570248,8.55172414 0.411570248,9.93103448 C0.411570248,11.7241379 0.891735537,13.3793103 1.71487603,14.8275862 L1.64628099,14.8965517 C0.0685950413,17.3103448 -0.342975207,18.8275862 0.342975207,19.5862069 C0.548760331,19.7931034 0.891735537,19.9310345 1.23471074,19.9310345 C2.74380165,19.9310345 5.83057851,18 9.26033058,14.9655172 C9.19173554,14.8965517 9.05454545,14.7586207 8.91735537,14.5517241 L8.91735537,14.5517241 Z M1.30330579,19.1034483 C1.23471074,19.1034483 1.09752066,19.1034483 1.02892562,19.0344828 C0.823140496,18.8275862 0.891735537,17.9310345 2.26363636,15.7241379 C2.81239669,16.4827586 3.49834711,17.1724138 4.3214876,17.7931034 C2.94958678,18.6206897 1.92066116,19.1034483 1.30330579,19.1034483 L1.30330579,19.1034483 Z" id="path-1" fill="#766DCC"></path>
                <g id="Group" transform="translate(25.380165, 2.068966)" fill="#212121">
                    <polygon id="Shape" points="0.411570248 13.862069 0.411570248 1.44827586 2.88099174 1.44827586 9.60330579 9.44827586 9.60330579 1.44827586 12.4842975 1.44827586 12.4842975 13.862069 10.014876 13.862069 3.29256198 5.79310345 3.29256198 13.862069"></polygon>
                    <path d="M17.3545455,5.5862069 L17.3545455,10.137931 C17.3545455,10.4827586 17.4231405,11.1034483 17.8347107,11.4482759 C18.0404959,11.5862069 18.3834711,11.862069 18.9322314,11.862069 C19.4123967,11.862069 19.8239669,11.7241379 20.0297521,11.4482759 C20.4413223,11.1034483 20.4413223,10.5517241 20.4413223,10.137931 L20.4413223,5.5862069 L23.1165289,5.5862069 L23.1165289,10.4137931 C23.1165289,11.3793103 23.0479339,12.2758621 22.2247934,13.1034483 C21.2644628,14 19.892562,14.2068966 18.9322314,14.2068966 C17.9033058,14.2068966 16.531405,14.0689655 15.5710744,13.1034483 C14.8165289,12.3448276 14.6793388,11.5172414 14.6793388,10.6206897 L14.6793388,5.5862069 L17.3545455,5.5862069 L17.3545455,5.5862069 Z" id="Shape"></path>
                    <path d="M31.2793388,8.20689655 C30.6619835,7.65517241 29.9760331,7.5862069 29.5644628,7.5862069 C28.7413223,7.5862069 28.261157,8 28.0553719,8.20689655 C27.7123967,8.55172414 27.4380165,9.10344828 27.4380165,9.79310345 C27.4380165,10.4137931 27.6438017,10.8965517 27.9867769,11.3103448 C28.3983471,11.7241379 29.0157025,12 29.5644628,12 C30.0446281,12 30.6619835,11.862069 31.2793388,11.3793103 L31.2793388,13.7931034 C30.5933884,14.2068966 29.907438,14.2758621 29.1528926,14.2758621 C27.7809917,14.2758621 26.6834711,13.7931034 25.9289256,13.0344828 C25.3115702,12.4137931 24.6256198,11.3793103 24.6256198,9.86206897 C24.6256198,8.4137931 25.2429752,7.31034483 25.9975207,6.55172414 C26.8892562,5.65517241 27.9867769,5.37931034 29.1528926,5.37931034 C29.907438,5.37931034 30.5247934,5.51724138 31.2107438,5.86206897 L31.2107438,8.20689655 L31.2793388,8.20689655 Z" id="Shape"></path>
                    <polygon id="Shape" points="35.6694215 0.344827586 35.6694215 13.9310345 32.9942149 13.9310345 32.9942149 0.344827586"></polygon>
                    <path d="M46.0958678,10.2068966 L39.922314,10.2068966 C39.922314,10.6206897 40.0595041,11.2413793 40.4024793,11.6551724 C40.8140496,12.0689655 41.3628099,12.2068966 41.7743802,12.2068966 C42.1859504,12.2068966 42.5975207,12.137931 42.8719008,11.9310345 C42.9404959,11.9310345 43.214876,11.7241379 43.4206612,11.2413793 L45.9586777,11.5172414 C45.6157025,12.6896552 44.861157,13.3103448 44.3809917,13.5862069 C43.5578512,14.0689655 42.6661157,14.2068966 41.7743802,14.2068966 C40.5396694,14.2068966 39.4421488,14 38.4818182,13.0344828 C37.7272727,12.2758621 37.2471074,11.2413793 37.2471074,9.86206897 C37.2471074,8.68965517 37.6586777,7.44827586 38.4818182,6.55172414 C39.5107438,5.51724138 40.7454545,5.37931034 41.6371901,5.37931034 C42.5289256,5.37931034 43.9008264,5.51724138 44.9297521,6.62068966 C45.8900826,7.65517241 46.0958678,8.96551724 46.0958678,10 L46.0958678,10.2068966 L46.0958678,10.2068966 Z M43.6264463,8.62068966 C43.6264463,8.55172414 43.4892562,8 43.077686,7.65517241 C42.8033058,7.37931034 42.3231405,7.17241379 41.8429752,7.17241379 C41.1570248,7.17241379 40.7454545,7.44827586 40.4710744,7.72413793 C40.2652893,7.93103448 40.0595041,8.27586207 39.9909091,8.62068966 L43.6264463,8.62068966 L43.6264463,8.62068966 Z" id="Shape"></path>
                    <path d="M55.6991736,12.8275862 C54.9446281,13.5862069 53.7099174,14.137931 52.0636364,14.137931 C50.4859504,14.137931 49.1826446,13.5172414 48.4280992,12.8275862 C47.6049587,12 47.1933884,10.8275862 47.1933884,9.72413793 C47.1933884,8.68965517 47.6049587,7.44827586 48.4280992,6.62068966 C49.1826446,5.86206897 50.4173554,5.31034483 52.0636364,5.31034483 C53.6413223,5.31034483 54.9446281,5.93103448 55.6991736,6.62068966 C56.522314,7.44827586 56.9338843,8.62068966 56.9338843,9.72413793 C56.9338843,10.8275862 56.522314,12 55.6991736,12.8275862 L55.6991736,12.8275862 Z M50.5545455,8.13793103 C50.1429752,8.55172414 49.9371901,9.03448276 49.9371901,9.72413793 C49.9371901,10.4827586 50.2115702,10.9655172 50.5545455,11.3103448 C50.8975207,11.6551724 51.377686,11.9310345 52.0636364,11.9310345 C52.6809917,11.9310345 53.161157,11.7241379 53.5727273,11.3103448 C53.9842975,10.8965517 54.1900826,10.4137931 54.1900826,9.72413793 C54.1900826,9.03448276 53.9842975,8.55172414 53.5727273,8.13793103 C53.161157,7.72413793 52.6809917,7.51724138 52.0636364,7.51724138 C51.446281,7.5862069 50.9661157,7.79310345 50.5545455,8.13793103 L50.5545455,8.13793103 Z" id="Shape"></path>
                </g>
            </g>
        </g>
    </g>
</svg>