<?xml version="1.0" encoding="UTF-8" standalone="no"?>
<svg width="41px" height="52px" viewBox="0 0 41 52" version="1.1" xmlns="http://www.w3.org/2000/svg" xmlns:xlink="http://www.w3.org/1999/xlink">
    <!-- Generator: Sketch 3.8.3 (29802) - http://www.bohemiancoding.com/sketch -->
    <title>design-color-2_android</title>
    <desc>Created with Sketch.</desc>
    <defs></defs>
    <g id="Page-1" stroke="none" stroke-width="1" fill="none" fill-rule="evenodd">
        <g id="Browser-Copy" transform="translate(-700.000000, -1751.000000)">
            <g id="design-color-2_android" transform="translate(700.000000, 1751.000000)">
                <g id="Group">
                    <path d="M2.7991453,33.9130435 L2.7991453,33.9130435 C1.25289744,33.9130435 0,32.648087 0,31.0869565 L0,18.6521739 C0,17.0910435 1.25289744,15.826087 2.7991453,15.826087 L2.7991453,15.826087 C4.34539316,15.826087 5.5982906,17.0910435 5.5982906,18.6521739 L5.5982906,31.0869565 C5.5982906,32.648087 4.34539316,33.9130435 2.7991453,33.9130435 L2.7991453,33.9130435 Z" id="Shape" fill="#72C472"></path>
                    <path d="M37.508547,33.9130435 L37.508547,33.9130435 C35.9622991,33.9130435 34.7094017,32.648087 34.7094017,31.0869565 L34.7094017,18.6521739 C34.7094017,17.0910435 35.9622991,15.826087 37.508547,15.826087 L37.508547,15.826087 C39.0547949,15.826087 40.3076923,17.0910435 40.3076923,18.6521739 L40.3076923,31.0869565 C40.3076923,32.648087 39.0547949,33.9130435 37.508547,33.9130435 L37.508547,33.9130435 Z" id="Shape" fill="#72C472"></path>
                    <path d="M6.71794872,15.826087 L6.71794872,39.5652174 C6.71794872,40.8143478 7.72004274,41.826087 8.95726496,41.826087 L11.1965812,41.826087 L11.1965812,49.173913 C11.1965812,50.7350435 12.4494786,52 13.9957265,52 C15.5419744,52 16.7948718,50.7350435 16.7948718,49.173913 L16.7948718,41.826087 L23.5128205,41.826087 L23.5128205,49.173913 C23.5128205,50.7350435 24.7657179,52 26.3119658,52 C27.8582137,52 29.1111111,50.7350435 29.1111111,49.173913 L29.1111111,41.826087 L31.3504274,41.826087 C32.5876496,41.826087 33.5897436,40.8143478 33.5897436,39.5652174 L33.5897436,15.826087 L6.71794872,15.826087 L6.71794872,15.826087 Z" id="Shape" fill="#72C472"></path>
                    <path d="M26.7195214,4.00626087 L29.0047436,1.00043478 C29.1928462,0.752869565 29.1469402,0.397913043 28.901735,0.208 C28.6565299,0.015826087 28.3049573,0.0655652174 28.1168547,0.312 L25.7039915,3.48513043 C24.0110684,2.7073913 22.1367607,2.26086957 20.1538462,2.26086957 C18.1709316,2.26086957 16.2966239,2.7073913 14.6037009,3.48626087 L12.1908376,0.313130435 C12.0038547,0.0666956522 11.6534017,0.0203478261 11.4059573,0.209130435 C11.1607521,0.399043478 11.1148462,0.754 11.3029487,1.00156522 L13.5881709,4.0073913 C9.80484615,6.15747826 7.15125641,10.095913 6.77393162,14.6956522 L33.5337607,14.6956522 C33.1564359,10.095913 30.5028462,6.15747826 26.7195214,4.00626087 L26.7195214,4.00626087 Z" id="Shape" fill="#72C472"></path>
                    <ellipse id="Oval" fill="#FFFFFF" cx="13.9957265" cy="8.47826087" rx="1.67948718" ry="1.69565217"></ellipse>
                    <ellipse id="Oval" fill="#FFFFFF" cx="26.3119658" cy="8.47826087" rx="1.67948718" ry="1.69565217"></ellipse>
                </g>
            </g>
        </g>
    </g>
</svg>