<?xml version="1.0" encoding="UTF-8" standalone="no"?>
<svg width="43px" height="54px" viewBox="0 0 43 54" version="1.1" xmlns="http://www.w3.org/2000/svg" xmlns:xlink="http://www.w3.org/1999/xlink">
    <!-- Generator: Sketch 3.8.3 (29802) - http://www.bohemiancoding.com/sketch -->
    <title>Group 7</title>
    <desc>Created with Sketch.</desc>
    <defs></defs>
    <g id="Page-1" stroke="none" stroke-width="1" fill="none" fill-rule="evenodd">
        <g id="Browser-Copy" transform="translate(-895.000000, -1751.000000)">
            <g id="Group-7" transform="translate(895.000000, 1751.000000)">
                <g id="Group-Copy" fill="#B3B3B3">
                    <path d="M42.5447692,38.6913913 C41.3814444,41.2925217 40.826094,42.4534783 39.3279915,44.7516522 C37.2409487,47.9609565 34.2962479,51.9581739 30.6472821,51.992087 C27.4058718,52.0226087 26.5728462,49.8623478 22.1725897,49.8883478 C17.7723333,49.9143478 16.8553333,52.0305217 13.6139231,52 C9.96495726,51.9672174 7.17700855,48.3577391 5.0877265,45.1461739 C-0.752410256,36.1705217 -1.36262393,25.6382609 2.23931624,20.0392174 C4.7988547,16.0578261 8.8385812,13.7313913 12.6353419,13.7313913 C16.5015214,13.7313913 18.9322991,15.8713043 22.1300427,15.8713043 C25.2314957,15.8713043 27.120359,13.728 31.5911538,13.728 C34.9702821,13.728 38.5509487,15.5853043 41.1026496,18.7946087 C32.7421624,23.4192174 34.1014274,35.4685217 42.5447692,38.6913913 L42.5447692,38.6913913 L42.5447692,38.6913913 Z" id="Shape"></path>
                    <path d="M28.6710855,8.112 C30.2957094,6.00713043 31.5273333,3.03747826 31.0794701,0 C28.4258803,0.183130435 25.3244274,1.88782609 23.5128205,4.10913043 C21.8680427,6.12469565 20.5098974,9.11469565 21.0383761,12.0210435 C23.9326923,12.1126087 26.9300171,10.366087 28.6710855,8.112 L28.6710855,8.112 L28.6710855,8.112 Z" id="Shape"></path>
                </g>
                <g id="users-color_mobile-contact-copy" transform="translate(30.000000, 36.000000)">
                    <g id="Group">
                        <path d="M1.57142857,18 C0.7036073,18 0,17.2673179 0,16.3636372 L0,1.56521739 C0,0.700771657 0.703552575,0 1.57142857,0 L9.42857143,0 C10.2963927,0 11,0.732682096 11,1.63636431 L11,16.3636372 C11,17.2673179 10.2963927,18 9.42857143,18 L1.57142857,18 L1.57142857,18 Z" id="Shape" fill="#444444"></path>
                        <path d="M4.71428571,16.4347826 C4.71428571,16.0023915 5.06628568,15.6521739 5.5,15.6521739 C5.93371433,15.6521739 6.28571429,16.0023915 6.28571429,16.4347826 C6.28571429,16.8671737 5.93371433,17.2173913 5.5,17.2173913 C5.06628568,17.2173913 4.71428571,16.8671737 4.71428571,16.4347826" id="Shape" fill="#B3B3B3"></path>
                        <path d="M0.785714286,1.95618588 C0.785714286,1.74025976 0.9615056,1.56521739 1.17884454,1.56521739 L9.8211577,1.56521739 C10.0382745,1.56521739 10.2142857,1.74323023 10.2142857,1.95618588 L10.2142857,14.4785967 C10.2142857,14.6945228 10.0384933,14.8695652 9.8211573,14.8695652 L1.17884454,14.8695652 C0.961724382,14.8695652 0.785714286,14.6915509 0.785714286,14.4785967 L0.785714286,1.95618588 L0.785714286,1.95618588 Z" id="Shape" fill="#FFFFFF"></path>
                    </g>
                </g>
            </g>
        </g>
    </g>
</svg>