<?xml version="1.0" encoding="UTF-8" standalone="no"?>
<svg width="43px" height="43px" viewBox="0 0 43 43" version="1.1" xmlns="http://www.w3.org/2000/svg" xmlns:xlink="http://www.w3.org/1999/xlink">
    <!-- Generator: Sketch 3.8.3 (29802) - http://www.bohemiancoding.com/sketch -->
    <title>design-color-2_browser-safari</title>
    <desc>Created with Sketch.</desc>
    <defs></defs>
    <g id="Page-1" stroke="none" stroke-width="1" fill="none" fill-rule="evenodd">
        <g id="Browser-Copy-2" transform="translate(-566.000000, -862.000000)">
            <g id="design-color-2_browser-safari" transform="translate(566.000000, 862.000000)">
                <g id="Group">
                    <ellipse id="Oval" fill="#43A6DD" cx="21.4233871" cy="21.3571429" rx="20.4919355" ry="20.4285714"></ellipse>
                    <path d="M21.4233871,0 C9.60978629,0 0,9.58007143 0,21.3571429 C0,33.1342143 9.60978629,42.7142857 21.4233871,42.7142857 C33.2369879,42.7142857 42.8467742,33.1342143 42.8467742,21.3571429 C42.8467742,9.58007143 33.2369879,0 21.4233871,0 L21.4233871,0 Z M21.4233871,40.8571429 C10.6381089,40.8571429 1.86290323,32.1090714 1.86290323,21.3571429 C1.86290323,10.6052143 10.6381089,1.85714286 21.4233871,1.85714286 C32.2086653,1.85714286 40.983871,10.6052143 40.983871,21.3571429 C40.983871,32.1090714 32.2086653,40.8571429 21.4233871,40.8571429 L21.4233871,40.8571429 Z" id="Shape" fill="#E6E6E6"></path>
                    <polygon id="Shape" fill="#E6E6E6" points="10.2459677 32.5 23.2862903 23.2142857 19.5604839 19.5"></polygon>
                    <polygon id="Shape" fill="#E86C60" points="19.5604839 19.5 23.2862903 23.2142857 32.6008065 10.2142857"></polygon>
                </g>
            </g>
        </g>
    </g>
</svg>