<?xml version="1.0" encoding="UTF-8" standalone="no"?>
<svg width="32px" height="35px" viewBox="0 0 32 35" version="1.1" xmlns="http://www.w3.org/2000/svg" xmlns:xlink="http://www.w3.org/1999/xlink">
    <!-- Generator: Sketch 3.8.3 (29802) - http://www.bohemiancoding.com/sketch -->
    <title>design-color-2_html5</title>
    <desc>Created with Sketch.</desc>
    <defs></defs>
    <g id="Page-1" stroke="none" stroke-width="1" fill="none" fill-rule="evenodd">
        <g id="Browser-Copy-11" transform="translate(-783.000000, -1123.000000)">
            <g id="design-color-2_html5" transform="translate(783.000000, 1123.000000)">
                <g id="Group">
                    <path d="M31.5654348,0.503695652 C31.2770652,0.182608696 30.8661957,0 30.4347826,0 L1.52173913,0 C1.09032609,0 0.679456522,0.182608696 0.391086957,0.503695652 C0.101956522,0.824021739 -0.0365217391,1.2523913 0.00836956522,1.68076087 L3.05184783,30.5938043 C3.11728261,31.2207609 3.56391304,31.7427174 4.17336957,31.9055435 L15.586413,34.9490217 C15.7142391,34.9832609 15.8466304,35 15.9782609,35 C16.1098913,35 16.2422826,34.9832609 16.3701087,34.9490217 L27.7831522,31.9055435 C28.3926087,31.7427174 28.8384783,31.2215217 28.9046739,30.5938043 L31.9481522,1.68076087 C31.9930435,1.2523913 31.8545652,0.824021739 31.5654348,0.503695652 L31.5654348,0.503695652 Z" id="Shape" fill="#EA9860"></path>
                    <polygon id="Shape" fill="#FFFFFF" points="25.1086957 9.89130435 10.0358696 9.89130435 10.5205435 15.2173913 24.4923913 15.2173913 23.4827174 26.3230435 15.9782609 28.1993478 8.36956522 26.2971739 8.36956522 21.3043478 11.4130435 21.3043478 11.4130435 23.9202174 15.9782609 25.0615217 20.6477174 23.8943478 21.1597826 18.2608696 7.74032609 18.2608696 6.70326087 6.84782609 25.1086957 6.84782609"></polygon>
                </g>
            </g>
        </g>
    </g>
</svg>