<?xml version="1.0" encoding="UTF-8" standalone="no"?>
<svg width="46px" height="39px" viewBox="0 0 46 39" version="1.1" xmlns="http://www.w3.org/2000/svg" xmlns:xlink="http://www.w3.org/1999/xlink">
    <!-- Generator: Sketch 3.8.3 (29802) - http://www.bohemiancoding.com/sketch -->
    <title>design-color_code-editor</title>
    <desc>Created with Sketch.</desc>
    <defs></defs>
    <g id="Page-1" stroke="none" stroke-width="1" fill="none" fill-rule="evenodd">
        <g id="Browser-Copy-11" transform="translate(-494.000000, -1740.000000)">
            <g id="design-color_code-editor" transform="translate(494.000000, 1740.000000)">
                <g id="Group">
                    <path d="M46,7 L46,2 C46,0.895 45.105,0 44,0 L2,0 C0.895,0 0,0.895 0,2 L0,7 L46,7 L46,7 Z" id="Shape" fill="#444444"></path>
                    <path d="M44,39 L14,39 L14,7 L46,7 L46,37 C46,38.105 45.105,39 44,39 L44,39 Z" id="Shape" fill="#606060"></path>
                    <circle id="Oval" fill="#E86C60" cx="3.5" cy="3.5" r="1.5"></circle>
                    <circle id="Oval" fill="#EFD358" cx="8.5" cy="3.5" r="1.5"></circle>
                    <circle id="Oval" fill="#72C472" cx="13.5" cy="3.5" r="1.5"></circle>
                    <path d="M15,39 L2,39 C0.895,39 0,38.105 0,37 L0,7 L15,7 L15,39 L15,39 Z" id="Shape" fill="#4F4F4F"></path>
                    <rect id="Rectangle-path" fill="#B3B3B3" x="4" y="10" width="7" height="2"></rect>
                    <rect id="Rectangle-path" fill="#B3B3B3" x="4" y="16" width="5" height="2"></rect>
                    <rect id="Rectangle-path" fill="#B3B3B3" x="4" y="22" width="7" height="2"></rect>
                    <rect id="Rectangle-path" fill="#B3B3B3" x="4" y="28" width="5" height="2"></rect>
                    <rect id="Rectangle-path" fill="#B3B3B3" x="4" y="34" width="7" height="2"></rect>
                    <rect id="Rectangle-path" fill="#E86C60" x="19" y="10" width="5" height="2"></rect>
                    <rect id="Rectangle-path" fill="#EFD358" x="23" y="16" width="7" height="2"></rect>
                    <rect id="Rectangle-path" fill="#FFFFFF" x="26" y="22" width="10" height="2"></rect>
                    <rect id="Rectangle-path" fill="#EFD358" x="23" y="28" width="7" height="2"></rect>
                    <rect id="Rectangle-path" fill="#E86C60" x="19" y="34" width="5" height="2"></rect>
                </g>
            </g>
        </g>
    </g>
</svg>