<?xml version="1.0" encoding="UTF-8" standalone="no"?>
<svg width="43px" height="43px" viewBox="0 0 43 43" version="1.1" xmlns="http://www.w3.org/2000/svg" xmlns:xlink="http://www.w3.org/1999/xlink">
    <!-- Generator: Sketch 3.8.3 (29802) - http://www.bohemiancoding.com/sketch -->
    <title>design-color-2_browser-chrome</title>
    <desc>Created with Sketch.</desc>
    <defs></defs>
    <g id="Page-1" stroke="none" stroke-width="1" fill="none" fill-rule="evenodd">
        <g id="Browser-Copy-2" transform="translate(-414.000000, -862.000000)">
            <g id="design-color-2_browser-chrome" transform="translate(414.000000, 862.000000)">
                <g id="Group">
                    <path d="M0,21.3571429 C0,33.1332857 9.61071774,42.7142857 21.4233871,42.7142857 C33.2360565,42.7142857 42.8467742,33.1332857 42.8467742,21.3571429 C42.8467742,9.581 33.2360565,0 21.4233871,0 C9.61071774,0 0,9.581 0,21.3571429 L0,21.3571429 Z" id="Shape" fill="#FFFFFF"></path>
                    <path d="M12.1805927,20.254 C12.7301492,15.6529286 16.6627379,12.0714286 21.4233871,12.0714286 L40.7128185,12.0714286 C37.2422298,4.9335 29.9005282,0 21.4233871,0 C14.7979718,0 8.86555645,3.01507143 4.93296774,7.73964286 L12.1805927,20.254 L12.1805927,20.254 Z" id="Shape" fill="#E86C60"></path>
                    <ellipse id="Oval" fill="#43A6DD" cx="21.4233871" cy="21.3571429" rx="7.4516129" ry="7.42857143"></ellipse>
                    <path d="M25.0839919,29.8935 C23.9587984,30.3745 22.7227621,30.6428571 21.4233871,30.6428571 C17.9826048,30.6428571 14.9786734,28.7680714 13.3663306,25.9944286 L13.3570161,26 L3.71556048,9.35164286 C1.37295968,12.7752857 0,16.9092857 0,21.3571429 C0,31.915 7.72545968,40.7020714 17.8354355,42.4087857 L25.0839919,29.8935 L25.0839919,29.8935 Z" id="Shape" fill="#72C472"></path>
                    <path d="M26.987879,13.9285714 C29.2587581,15.6232143 30.7379032,18.3179286 30.7379032,21.3571429 C30.7379032,23.0471429 30.2749718,24.6285 29.4804435,25.9944286 L29.4897581,26 L19.847371,42.6502143 C20.3680524,42.6882857 20.8924597,42.7142857 21.4233871,42.7142857 C33.2369879,42.7142857 42.8467742,33.1342143 42.8467742,21.3571429 C42.8467742,18.746 42.3726653,16.2435 41.5082782,13.9285714 L26.987879,13.9285714 L26.987879,13.9285714 Z" id="Shape" fill="#EFD358"></path>
                </g>
            </g>
        </g>
    </g>
</svg>