<?xml version="1.0" encoding="UTF-8" standalone="no"?>
<svg width="43px" height="43px" viewBox="0 0 43 43" version="1.1" xmlns="http://www.w3.org/2000/svg" xmlns:xlink="http://www.w3.org/1999/xlink">
    <!-- Generator: Sketch 3.8.3 (29802) - http://www.bohemiancoding.com/sketch -->
    <title>design-color-2_browser-firefox</title>
    <desc>Created with Sketch.</desc>
    <defs></defs>
    <g id="Page-1" stroke="none" stroke-width="1" fill="none" fill-rule="evenodd">
        <g id="Browser-Copy-2" transform="translate(-710.000000, -862.000000)">
            <g id="design-color-2_browser-firefox" transform="translate(710.000000, 862.000000)">
                <g id="Group">
                    <ellipse id="Oval" fill="#458BC4" cx="21.4233871" cy="20.4285714" rx="20.4919355" ry="20.4285714"></ellipse>
                    <path d="M15.7219718,17.1952857 C16.6124395,16.0791429 19.7449113,15.0902143 20.3904073,13.52 C20.5431653,13.1485714 20.7164153,12.2747857 20.2162258,12.0918571 C19.3863024,11.8931429 17.4144194,11.8875714 16.6860242,11.8931429 C15.2981613,11.9042857 14.6778145,10.8893571 14.5306452,10.3962857 C14.3844073,9.90321429 14.0984516,8.72764286 17.3864758,6.02457143 C13.7314597,5.49342857 11.8611048,8.021 11.6198589,8.40357143 C9.65077016,7.91607143 7.97974597,8.034 6.58256855,8.47971429 C6.58070565,8.47878571 6.57884274,8.47692857 6.57697984,8.476 C4.26604839,7.37192857 4.12167339,4.32714286 4.12167339,4.32714286 C4.12167339,4.32714286 1.19225806,6.6755 1.91040726,12.0277857 C-1.9076129,19.8677143 0.906302419,29.1209286 2.54006855,31.9075714 C4.02945968,34.4518571 9.5017379,42.7142857 22.3948911,42.7142857 C35.2880444,42.7142857 41.9292944,30.8062857 40.8674395,27.9444286 C42.4453185,24.8142143 43.0908145,21.1101429 42.7703952,17.7245714 C42.0224395,9.82428571 34.6285766,4.54628571 34.6285766,4.54628571 C34.6285766,4.54628571 34.7189274,5.05235714 34.8549194,6.13135714 C32.9025968,4.03 31.2930484,2.95285714 28.5769355,2.95285714 C32.3073992,5.63364286 35.8748589,12.9907143 35.584246,19.1722143 C34.7450081,17.0374286 33.5955968,16.1506429 33.5955968,16.1506429 C34.5726895,25.0556429 29.838121,31.4590714 26.1365323,32.1861429 C23.3663952,32.7302857 18.2005645,32.5037143 14.8771452,28.6213571 C16.9431048,29.1255714 19.7439798,28.9110714 21.4140726,27.7596429 C22.4228347,27.0632143 23.5452339,26.1058571 24.620129,26.156 C25.457504,26.195 25.958625,25.5310714 25.3326895,24.8160714 C24.7095484,24.1010714 23.0562218,22.7490714 21.1374315,23.6553571 C15.871004,26.1420714 12.3575685,22.4658571 12.9658065,20.3106429 C13.3579476,18.9196429 14.6629113,19.1462143 15.6167177,20.0181429 C15.6167177,20.0181429 16.1085242,18.5129286 15.7219718,17.1952857 L15.7219718,17.1952857 Z" id="Shape" fill="#EA9860"></path>
                </g>
            </g>
        </g>
    </g>
</svg>