<?xml version="1.0" encoding="UTF-8" standalone="no"?>
<svg width="43px" height="43px" viewBox="0 0 43 43" version="1.1" xmlns="http://www.w3.org/2000/svg" xmlns:xlink="http://www.w3.org/1999/xlink">
    <!-- Generator: Sketch 3.8.3 (29802) - http://www.bohemiancoding.com/sketch -->
    <title>Group</title>
    <desc>Created with Sketch.</desc>
    <defs></defs>
    <g id="Page-1" stroke="none" stroke-width="1" fill="none" fill-rule="evenodd">
        <g id="Browser-Copy-2" transform="translate(-855.000000, -862.000000)">
            <g id="Group" transform="translate(855.000000, 862.000000)">
                <path d="M21.4233871,0 C9.59115726,0 0,9.5615 0,21.3571429 C0,33.1527857 9.59115726,42.7142857 21.4233871,42.7142857 C33.2556169,42.7142857 42.8467742,33.1527857 42.8467742,21.3571429 C42.8467742,9.5615 33.2556169,0 21.4233871,0 L21.4233871,0 Z M21.4233871,37.1428571 C15.2506573,37.1428571 10.2459677,30.0755 10.2459677,21.3571429 C10.2459677,12.6387857 15.2506573,5.57142857 21.4233871,5.57142857 C27.5961169,5.57142857 32.6008065,12.6387857 32.6008065,21.3571429 C32.6008065,30.0755 27.5961169,37.1428571 21.4233871,37.1428571 L21.4233871,37.1428571 Z" id="Shape" fill="#C94F49"></path>
                <path d="M27.0120968,39.9285714 C17.7525363,39.9285714 10.2459677,31.6141429 10.2459677,21.3571429 C10.2459677,11.1001429 17.7525363,2.78571429 27.0120968,2.78571429 C30.3010524,2.78571429 33.3599395,3.85078571 35.949375,5.66335714 C32.1304234,2.14964286 27.0297944,0 21.4233871,0 C9.59115726,0 0,9.5615 0,21.3571429 C0,33.1527857 9.59115726,42.7142857 21.4233871,42.7142857 C27.0297944,42.7142857 32.1304234,40.5646429 35.949375,37.0509286 C33.3599395,38.8635 30.3010524,39.9285714 27.0120968,39.9285714 L27.0120968,39.9285714 Z" id="Shape" fill="#E86C60"></path>
            </g>
        </g>
    </g>
</svg>