<?xml version="1.0" encoding="UTF-8" standalone="no"?>
<svg width="81px" height="57px" viewBox="0 0 81 57" version="1.1" xmlns="http://www.w3.org/2000/svg" xmlns:xlink="http://www.w3.org/1999/xlink">
    <!-- Generator: Sketch 3.8.3 (29802) - http://www.bohemiancoding.com/sketch -->
    <title>Group 3</title>
    <desc>Created with Sketch.</desc>
    <defs></defs>
    <g id="Page-1" stroke="none" stroke-width="1" fill="none" fill-rule="evenodd">
        <g id="Browser-Copy" transform="translate(-826.000000, -937.000000)" fill="#4A4A4A">
            <g id="Group-3" transform="translate(826.000000, 937.000000)">
                <path d="M77.7573749,0.605324505 L2.85257098,0.605324505 C1.45604073,0.605324505 0.313425081,1.74589375 0.313425081,3.13992282 L0.313425081,48.7626926 C0.313425081,50.1567216 1.45604073,51.2972909 2.85257098,51.2972909 L77.7573749,51.2972909 C79.1539052,51.2972909 80.2965208,50.1567216 80.2965208,48.7626926 L80.2965208,3.13992282 C80.2965208,1.74589375 79.1539052,0.605324505 77.7573749,0.605324505 L77.7573749,0.605324505 Z M39.0354,3.13992282 C39.3845326,3.13992282 39.6701865,3.42506513 39.6701865,3.7735724 C39.6701865,4.12207967 39.3845326,4.40722198 39.0354,4.40722198 C38.6849979,4.40722198 38.4006135,4.12207967 38.4006135,3.7735724 C38.4006135,3.42506513 38.6849979,3.13992282 39.0354,3.13992282 L39.0354,3.13992282 Z M40.9397594,50.0299917 L38.4006135,50.0299917 L38.4006135,47.4953934 L40.9397594,47.4953934 L40.9397594,50.0299917 L40.9397594,50.0299917 Z M75.218229,46.2280942 L5.39171687,46.2280942 L5.39171687,5.67452114 L75.218229,5.67452114 L75.218229,46.2280942 L75.218229,46.2280942 Z" id="Microsoft_Surface"></path>
                <polygon id="Rectangle-63" points="35.5033358 50.0085121 44.7397847 50.0085121 46.7074401 56.4524061 33.8069408 56.4524061"></polygon>
                <rect id="Rectangle-64" x="37.7248731" y="47.0013615" width="3.87014979" height="3.86633642"></rect>
            </g>
        </g>
    </g>
</svg>