<?xml version="1.0" encoding="UTF-8" standalone="no"?>
<svg width="23px" height="35px" viewBox="0 0 23 35" version="1.1" xmlns="http://www.w3.org/2000/svg" xmlns:xlink="http://www.w3.org/1999/xlink">
    <!-- Generator: Sketch 3.8.3 (29802) - http://www.bohemiancoding.com/sketch -->
    <title>shopping-color_award</title>
    <desc>Created with Sketch.</desc>
    <defs></defs>
    <g id="Page-1" stroke="none" stroke-width="1" fill="none" fill-rule="evenodd">
        <g id="Browser-Copy-11" transform="translate(-494.000000, -1124.000000)">
            <g id="Group-48" transform="translate(447.000000, 1027.000000)">
                <g id="Group-37" transform="translate(0.000000, 73.000000)">
                    <g id="shopping-color_award" transform="translate(47.000000, 24.000000)">
                        <g id="Group">
                            <polygon id="Shape" fill="#EFD358" points="17.5 15.9782609 17.5 35 11.4130435 31.1956522 5.32608696 35 5.32608696 15.9782609"></polygon>
                            <path d="M11.4130435,22.826087 C11.2182609,22.826087 11.0234783,22.7515217 10.8751087,22.6031522 L8.05456522,19.7826087 L3.80434783,19.7826087 C3.38358696,19.7826087 3.04347826,19.4425 3.04347826,19.0217391 L3.04347826,14.7715217 L0.222934783,11.9509783 C-0.0745652174,11.6534783 -0.0745652174,11.1726087 0.222934783,10.8751087 L3.04347826,8.05456522 L3.04347826,3.80434783 C3.04347826,3.38358696 3.38358696,3.04347826 3.80434783,3.04347826 L8.05456522,3.04347826 L10.8751087,0.222934783 C11.1726087,-0.0745652174 11.6534783,-0.0745652174 11.9509783,0.222934783 L14.7715217,3.04347826 L19.0217391,3.04347826 C19.4425,3.04347826 19.7826087,3.38358696 19.7826087,3.80434783 L19.7826087,8.05456522 L22.6031522,10.8751087 C22.9006522,11.1726087 22.9006522,11.6534783 22.6031522,11.9509783 L19.7826087,14.7715217 L19.7826087,19.0217391 C19.7826087,19.4425 19.4425,19.7826087 19.0217391,19.7826087 L14.7715217,19.7826087 L11.9509783,22.6031522 C11.8026087,22.7515217 11.6078261,22.826087 11.4130435,22.826087 L11.4130435,22.826087 Z M3.80434783,8.36956522 L3.81195652,8.36956522 L3.80434783,8.36956522 L3.80434783,8.36956522 Z" id="Shape" fill="#E86C60"></path>
                            <circle id="Oval" fill="#AA3333" cx="11.4130435" cy="11.4130435" r="4.56521739"></circle>
                        </g>
                    </g>
                </g>
            </g>
        </g>
    </g>
</svg>