<?xml version="1.0" encoding="UTF-8" standalone="no"?>
<svg width="36px" height="36px" viewBox="0 0 36 36" version="1.1" xmlns="http://www.w3.org/2000/svg" xmlns:xlink="http://www.w3.org/1999/xlink">
    <!-- Generator: Sketch 3.8.3 (29802) - http://www.bohemiancoding.com/sketch -->
    <title>users-color_multiple-11</title>
    <desc>Created with Sketch.</desc>
    <defs></defs>
    <g id="Page-1" stroke="none" stroke-width="1" fill="none" fill-rule="evenodd">
        <g id="Browser-Copy-11" transform="translate(-621.000000, -1126.000000)">
            <g id="Group-48" transform="translate(447.000000, 1027.000000)">
                <g id="Group-39" transform="translate(134.000000, 73.000000)">
                    <g id="Group-38">
                        <g id="users-color_multiple-11" transform="translate(40.000000, 26.000000)">
                            <g id="Group">
                                <circle id="Oval" fill="#9BCED3" cx="29.7391304" cy="7.04347826" r="3.91304348"></circle>
                                <ellipse id="Oval" fill="#9BCED3" cx="6.26086957" cy="7.04347826" rx="3.91304348" ry="3.91304348"></ellipse>
                                <path d="M27.388713,12.5217391 C25.2290278,12.5217391 23.4782609,14.2666353 23.4782609,16.4377651 L23.4782609,21.7530864 C23.4782609,22.1872076 23.8047176,22.6697164 24.2082546,22.8311288 L25.826087,23.4782609 L26.543315,32.085022 C26.5794266,32.5183132 26.9632496,32.8695652 27.3889787,32.8695652 L32.0892822,32.8695652 C32.5202179,32.8695652 32.8992881,32.5128827 32.9349458,32.085022 L33.6521739,23.4782609 L35.2571331,22.9432775 C35.6674068,22.8065171 36,22.3454421 36,21.9142168 L36,16.4406833 C36,14.276308 34.2457192,12.5217391 32.0895479,12.5217391 L27.388713,12.5217391 L27.388713,12.5217391 Z" id="Shape" fill="#76B5B5"></path>
                                <path d="M3.91044991,12.5217391 C1.75076765,12.5217391 0,14.2666353 0,16.4377651 L0,21.7530864 C0,22.1872076 0.326455122,22.6697164 0.729997122,22.8311288 L2.34782609,23.4782609 L3.06505643,32.085022 C3.1011635,32.5183132 3.48498454,32.8695652 3.91071897,32.8695652 L8.61101984,32.8695652 C9.04195557,32.8695652 9.4210279,32.5128827 9.45668348,32.085022 L10.173913,23.4782609 L11.7788722,22.9432775 C12.1891459,22.8065171 12.5217391,22.3454421 12.5217391,21.9142168 L12.5217391,16.4406833 C12.5217391,14.276308 10.7674591,12.5217391 8.61128624,12.5217391 L3.91044991,12.5217391 L3.91044991,12.5217391 Z" id="Shape" fill="#76B5B5"></path>
                                <ellipse id="Oval" fill="#5A7A84" cx="18" cy="4.69565217" rx="4.69565217" ry="4.69565217"></ellipse>
                                <path d="M14.8700817,10.9565217 C12.2764619,10.9565217 10.173913,13.0523788 10.173913,15.6547802 L10.173913,22.6949715 C10.173913,23.1275656 10.4855165,23.6340637 10.8686579,23.8256289 L13.3043478,25.0434783 L14.0900867,35.282348 C14.1237398,35.6885227 14.4618262,36 14.8695652,36 L21.1304348,36 C21.5381738,36 21.8762602,35.6885227 21.9099133,35.282348 L22.6463481,24.8838242 L25.1045539,23.7972047 C25.5030501,23.6210563 25.826087,23.1302898 25.826087,22.6949715 L25.826087,15.6547802 C25.826087,13.0600021 23.7314032,10.9565217 21.1299183,10.9565217 L14.8700817,10.9565217 L14.8700817,10.9565217 Z" id="Shape" fill="#335262"></path>
                            </g>
                        </g>
                    </g>
                </g>
            </g>
        </g>
    </g>
</svg>