<?xml version="1.0" encoding="UTF-8" standalone="no"?>
<svg width="24px" height="18px" viewBox="0 0 24 18" version="1.1" xmlns="http://www.w3.org/2000/svg" xmlns:xlink="http://www.w3.org/1999/xlink">
    <!-- Generator: Sketch 3.8.3 (29802) - http://www.bohemiancoding.com/sketch -->
    <title>2x</title>
    <desc>Created with Sketch.</desc>
    <defs></defs>
    <g id="Page-1" stroke="none" stroke-width="1" fill="none" fill-rule="evenodd">
        <g id="Browser-Copy-11" transform="translate(-782.000000, -1463.000000)" fill="#000000">
            <path d="M793.306641,1481 L782.619141,1481 L782.619141,1479.92188 L788.466797,1473.28906 C789.435552,1472.17187 790.10742,1471.25 790.482422,1470.52344 C790.857424,1469.79687 791.044922,1469.08985 791.044922,1468.40234 C791.044922,1467.32421 790.728519,1466.47071 790.095703,1465.8418 C789.462887,1465.21289 788.591802,1464.89844 787.482422,1464.89844 C786.333979,1464.89844 785.406254,1465.26562 784.699219,1466 C783.992184,1466.73438 783.638672,1467.68749 783.638672,1468.85938 L782.244141,1468.85938 C782.244141,1467.89843 782.460935,1467.02344 782.894531,1466.23438 C783.328127,1465.44531 783.945308,1464.82617 784.746094,1464.37695 C785.546879,1463.92773 786.458979,1463.70312 787.482422,1463.70312 C789.04493,1463.70312 790.265621,1464.11328 791.144531,1464.93359 C792.023442,1465.75391 792.462891,1466.87109 792.462891,1468.28516 C792.462891,1469.08204 792.214846,1469.95312 791.71875,1470.89844 C791.222654,1471.84375 790.349616,1473.02343 789.099609,1474.4375 L784.341797,1479.81641 L793.306641,1479.81641 L793.306641,1481 Z M800.126953,1473.46484 L803.548828,1468.32031 L805.212891,1468.32031 L800.912109,1474.54297 L805.400391,1481 L803.748047,1481 L800.138672,1475.63281 L796.529297,1481 L794.876953,1481 L799.353516,1474.54297 L795.052734,1468.32031 L796.705078,1468.32031 L800.126953,1473.46484 Z" id="2x"></path>
        </g>
    </g>
</svg>