<?xml version="1.0" encoding="UTF-8" standalone="no"?>
<svg width="24px" height="19px" viewBox="0 0 24 19" version="1.1" xmlns="http://www.w3.org/2000/svg" xmlns:xlink="http://www.w3.org/1999/xlink">
    <!-- Generator: Sketch 3.8.3 (29802) - http://www.bohemiancoding.com/sketch -->
    <title>3x</title>
    <desc>Created with Sketch.</desc>
    <defs></defs>
    <g id="Page-1" stroke="none" stroke-width="1" fill="none" fill-rule="evenodd">
        <g id="Browser-Copy-11" transform="translate(-1007.000000, -1463.000000)" fill="#000000">
            <path d="M1010.73633,1471.70703 L1012.18945,1471.70703 C1012.99414,1471.70703 1013.69726,1471.56445 1014.29883,1471.2793 C1014.90039,1470.99414 1015.35937,1470.60352 1015.67578,1470.10742 C1015.99219,1469.61133 1016.15039,1469.03907 1016.15039,1468.39062 C1016.15039,1467.29687 1015.8418,1466.44141 1015.22461,1465.82422 C1014.60742,1465.20703 1013.72071,1464.89844 1012.56445,1464.89844 C1011.4707,1464.89844 1010.57422,1465.2207 1009.875,1465.86523 C1009.17578,1466.50977 1008.82617,1467.35937 1008.82617,1468.41406 L1007.41992,1468.41406 C1007.41992,1467.53125 1007.64258,1466.72461 1008.08789,1465.99414 C1008.53321,1465.26367 1009.15039,1464.69922 1009.93945,1464.30078 C1010.72852,1463.90234 1011.60351,1463.70312 1012.56445,1463.70312 C1014.11134,1463.70312 1015.33007,1464.125 1016.2207,1464.96875 C1017.11133,1465.8125 1017.55664,1466.96874 1017.55664,1468.4375 C1017.55664,1469.25782 1017.29688,1470.01367 1016.77734,1470.70508 C1016.25781,1471.39649 1015.54493,1471.91406 1014.63867,1472.25781 C1015.70118,1472.55469 1016.50586,1473.06445 1017.05273,1473.78711 C1017.59961,1474.50977 1017.87305,1475.37109 1017.87305,1476.37109 C1017.87305,1477.83204 1017.39649,1479.00781 1016.44336,1479.89844 C1015.49023,1480.78907 1014.2168,1481.23438 1012.62305,1481.23438 C1011.60742,1481.23438 1010.67579,1481.03125 1009.82812,1480.625 C1008.98046,1480.21875 1008.32422,1479.65039 1007.85938,1478.91992 C1007.39453,1478.18945 1007.16211,1477.33985 1007.16211,1476.37109 L1008.56836,1476.37109 C1008.56836,1477.45704 1008.94726,1478.34179 1009.70508,1479.02539 C1010.46289,1479.70899 1011.43554,1480.05078 1012.62305,1480.05078 C1013.83399,1480.05078 1014.77734,1479.74024 1015.45312,1479.11914 C1016.12891,1478.49804 1016.4668,1477.59766 1016.4668,1476.41797 C1016.4668,1475.27734 1016.10157,1474.40625 1015.37109,1473.80469 C1014.64062,1473.20312 1013.56446,1472.90234 1012.14258,1472.90234 L1010.73633,1472.90234 L1010.73633,1471.70703 Z M1025.12695,1473.46484 L1028.54883,1468.32031 L1030.21289,1468.32031 L1025.91211,1474.54297 L1030.40039,1481 L1028.74805,1481 L1025.13867,1475.63281 L1021.5293,1481 L1019.87695,1481 L1024.35352,1474.54297 L1020.05273,1468.32031 L1021.70508,1468.32031 L1025.12695,1473.46484 Z" id="3x"></path>
        </g>
    </g>
</svg>