<?xml version="1.0" encoding="UTF-8" standalone="no"?>
<svg width="35px" height="35px" viewBox="0 0 35 35" version="1.1" xmlns="http://www.w3.org/2000/svg" xmlns:xlink="http://www.w3.org/1999/xlink">
    <!-- Generator: Sketch 3.8.3 (29802) - http://www.bohemiancoding.com/sketch -->
    <title>Group 17</title>
    <desc>Created with Sketch.</desc>
    <defs></defs>
    <g id="Page-1" stroke="none" stroke-width="1" fill="none" fill-rule="evenodd">
        <g id="Browser-Copy-11" transform="translate(-1007.000000, -1124.000000)">
            <g id="Group-17" transform="translate(1007.000000, 1124.000000)">
                <g id="Group-2">
                    <rect id="Rectangle-1" fill="#F8DC3C" x="0" y="0" width="35" height="35"></rect>
                    <g id="Group-Copy" transform="translate(9.000000, 16.000000)" fill="#000000">
                        <path d="M21.8755556,2.57064084 C21.0066667,3.12064084 20.1633333,3.64564084 19.32,4.17064084 C19.2177778,4.02064084 19.1155556,3.87064084 19.0133333,3.72064084 C18.4766667,2.97064084 17.7355556,2.67064084 16.8155556,2.84564084 C16.3044444,2.94564084 15.8955556,3.22064084 15.7677778,3.74564084 C15.6144444,4.24564084 15.6655556,4.77064084 16.1,5.12064084 C16.4322222,5.42064084 16.8411111,5.64564084 17.25,5.84564084 C18.1188889,6.27064084 19.0133333,6.62064084 19.8822222,7.02064084 C20.6488889,7.37064084 21.3133333,7.84564084 21.8755556,8.49564084 C22.4633333,9.17064084 22.7444444,9.97064084 22.8466667,10.8456408 C22.9233333,11.6706408 22.8466667,12.4706408 22.4888889,13.2456408 C21.9522222,14.4456408 20.9811111,15.1706408 19.7288889,15.5206408 C17.4033333,16.1706408 15.18,15.9956408 13.1611111,14.5956408 C12.4711111,14.1206408 11.96,13.4956408 11.5511111,12.7706408 C11.5,12.6706408 11.4488889,12.5706408 11.6022222,12.4956408 C12.4455556,12.0206408 13.2633333,11.5456408 14.1322222,11.0706408 C14.2088889,11.1706408 14.2855556,11.2706408 14.3622222,11.3706408 C15.1033333,12.4456408 16.1255556,13.0456408 17.48,12.9956408 C17.9144444,12.9706408 18.3488889,12.8706408 18.7322222,12.6956408 C19.7033333,12.2206408 19.8311111,10.9956408 18.9877778,10.3206408 C18.6555556,10.0706408 18.2722222,9.87064084 17.8888889,9.69564084 C16.9688889,9.27064084 16.0233333,8.89564084 15.1288889,8.44564084 C14.1577778,7.94564084 13.3144444,7.27064084 12.88,6.27064084 C11.7811111,3.79564084 12.7522222,0.720640838 16.0744444,0.120640838 C17.3011111,-0.104359162 18.5277778,-0.0293591619 19.7033333,0.470640838 C20.6488889,0.895640838 21.3388889,1.62064084 21.8755556,2.57064084 L21.8755556,2.57064084 Z" id="XMLID_21_"></path>
                        <path d="M9.71111111,0 C9.71111111,0.1 9.73666667,0.175 9.73666667,0.25 C9.73666667,3.925 9.76222222,7.575 9.73666667,11.25 C9.73666667,12.6 9.30222222,13.8 8.20333333,14.725 C7.53888889,15.275 6.72111111,15.55 5.87777778,15.675 C4.80444444,15.825 3.75666667,15.75 2.70888889,15.375 C1.50777778,14.925 0.638888889,14.1 0.0511111111,13 C2.66453526e-15,12.875 -0.0511111111,12.8 0.102222222,12.7 C0.945555556,12.225 1.76333333,11.725 2.63222222,11.2 C2.68333333,11.275 2.73444444,11.35 2.78555556,11.425 C2.99,11.725 3.19444444,12.025 3.42444444,12.3 C4.01222222,12.95 5.06,12.95 5.69888889,12.625 C6.15888889,12.4 6.31222222,11.95 6.38888889,11.475 C6.41444444,11.25 6.44,11.025 6.44,10.8 L6.44,0.35 C6.44,7.10542736e-15 6.44,7.10542736e-15 6.79777778,7.10542736e-15 L9.40444444,7.10542736e-15 C9.48111111,0 9.58333333,0 9.71111111,0 L9.71111111,0 Z" id="XMLID_20_"></path>
                    </g>
                </g>
            </g>
        </g>
    </g>
</svg>