<?xml version="1.0" encoding="UTF-8" standalone="no"?>
<svg width="46px" height="42px" viewBox="0 0 46 42" version="1.1" xmlns="http://www.w3.org/2000/svg" xmlns:xlink="http://www.w3.org/1999/xlink">
    <!-- Generator: Sketch 3.8.3 (29802) - http://www.bohemiancoding.com/sketch -->
    <title>Group 4 Copy 2</title>
    <desc>Created with Sketch.</desc>
    <defs></defs>
    <g id="Page-1" stroke="none" stroke-width="1" fill="none" fill-rule="evenodd">
        <g id="Browser-Copy-11" transform="translate(-792.000000, -1737.000000)">
            <g id="Group-4-Copy-2" transform="translate(792.000000, 1737.000000)">
                <path d="M44,42 L2,42 C0.895,42 0,41.105 0,40 L0,2 C0,0.895 0.895,0 2,0 L44,0 C45.105,0 46,0.895 46,2 L46,40 C46,41.105 45.105,42 44,42 L44,42 Z" id="Shape" fill="#444444"></path>
                <rect id="Rectangle-path" fill="#FFFFFF" x="2" y="7" width="42" height="33"></rect>
                <circle id="Oval" fill="#E86C60" cx="3.5" cy="3.5" r="1.5"></circle>
                <circle id="Oval" fill="#EFD358" cx="8.5" cy="3.5" r="1.5"></circle>
                <circle id="Oval" fill="#72C472" cx="13.5" cy="3.5" r="1.5"></circle>
                <path d="M7.8,37 L38.2,37 C40.2976,37 42,36.8058667 42,36.5666667 L42,24.4333333 C42,24.1941333 40.2976,24 38.2,24 L7.8,24 C5.7024,24 4,24.1941333 4,24.4333333 L4,36.5666667 C4,36.8058667 5.7024,37 7.8,37 L7.8,37 Z" id="Shape" fill="#4990E2"></path>
            </g>
        </g>
    </g>
</svg>