<?xml version="1.0" encoding="UTF-8" standalone="no"?>
<svg width="46px" height="42px" viewBox="0 0 46 42" version="1.1" xmlns="http://www.w3.org/2000/svg" xmlns:xlink="http://www.w3.org/1999/xlink">
    <!-- Generator: Sketch 3.8.3 (29802) - http://www.bohemiancoding.com/sketch -->
    <title>design-color_webpage</title>
    <desc>Created with Sketch.</desc>
    <defs></defs>
    <g id="Page-1" stroke="none" stroke-width="1" fill="none" fill-rule="evenodd">
        <g id="Browser-Copy-11" transform="translate(-600.000000, -1740.000000)">
            <g id="design-color_webpage" transform="translate(600.000000, 1740.000000)">
                <g id="Group">
                    <path d="M44,42 L2,42 C0.895,42 0,41.105 0,40 L0,2 C0,0.895 0.895,0 2,0 L44,0 C45.105,0 46,0.895 46,2 L46,40 C46,41.105 45.105,42 44,42 L44,42 Z" id="Shape" fill="#444444"></path>
                    <rect id="Rectangle-path" fill="#FFFFFF" x="2" y="7" width="42" height="33"></rect>
                    <path d="M40,18 L6,18 C5.447,18 5,17.552 5,17 L5,11 C5,10.448 5.447,10 6,10 L40,10 C40.553,10 41,10.448 41,11 L41,17 C41,17.552 40.553,18 40,18 L40,18 Z" id="Shape" fill="#B3B3B3"></path>
                    <path d="M12,37 L6,37 C5.447,37 5,36.552 5,36 L5,22 C5,21.448 5.447,21 6,21 L12,21 C12.553,21 13,21.448 13,22 L13,36 C13,36.552 12.553,37 12,37 L12,37 Z" id="Shape" fill="#B3B3B3"></path>
                    <path d="M39,37 L17,37 C16.447,37 16,36.552 16,36 L16,22 C16,21.448 16.447,21 17,21 L39,21 C39.553,21 40,21.448 40,22 L40,36 C40,36.552 39.553,37 39,37 L39,37 Z M18,35 L38,35 L38,23 L18,23 L18,35 L18,35 Z" id="Shape" fill="#B3B3B3"></path>
                    <circle id="Oval" fill="#E86C60" cx="3.5" cy="3.5" r="1.5"></circle>
                    <circle id="Oval" fill="#EFD358" cx="8.5" cy="3.5" r="1.5"></circle>
                    <circle id="Oval" fill="#72C472" cx="13.5" cy="3.5" r="1.5"></circle>
                </g>
            </g>
        </g>
    </g>
</svg>