<?xml version="1.0" encoding="UTF-8" standalone="no"?>
<svg width="46px" height="42px" viewBox="0 0 46 42" version="1.1" xmlns="http://www.w3.org/2000/svg" xmlns:xlink="http://www.w3.org/1999/xlink">
    <!-- Generator: Sketch 3.8.3 (29802) - http://www.bohemiancoding.com/sketch -->
    <title>Group 4 Copy</title>
    <desc>Created with Sketch.</desc>
    <defs></defs>
    <g id="Page-1" stroke="none" stroke-width="1" fill="none" fill-rule="evenodd">
        <g id="Browser-Copy-11" transform="translate(-885.000000, -1736.000000)">
            <g id="Group-4-Copy" transform="translate(885.000000, 1736.000000)">
                <path d="M44,42 L2,42 C0.895,42 0,41.105 0,40 L0,2 C0,0.895 0.895,0 2,0 L44,0 C45.105,0 46,0.895 46,2 L46,40 C46,41.105 45.105,42 44,42 L44,42 Z" id="Shape" fill="#444444"></path>
                <rect id="Rectangle-path" fill="#FFFFFF" x="2" y="7" width="42" height="33"></rect>
                <circle id="Oval" fill="#E86C60" cx="3.5" cy="3.5" r="1.5"></circle>
                <circle id="Oval" fill="#EFD358" cx="8.5" cy="3.5" r="1.5"></circle>
                <circle id="Oval" fill="#72C472" cx="13.5" cy="3.5" r="1.5"></circle>
                <path d="M5,38 L13,38 C13.552,38 14,37.5669333 14,37.0333333 L14,9.96666667 C14,9.43306667 13.552,9 13,9 L5,9 C4.448,9 4,9.43306667 4,9.96666667 L4,37.0333333 C4,37.5669333 4.448,38 5,38 L5,38 Z" id="Shape" fill="#4990E2"></path>
            </g>
        </g>
    </g>
</svg>