<?xml version="1.0" encoding="UTF-8" standalone="no"?>
<svg width="35px" height="38px" viewBox="0 0 35 38" version="1.1" xmlns="http://www.w3.org/2000/svg" xmlns:xlink="http://www.w3.org/1999/xlink">
    <!-- Generator: Sketch 3.8.3 (29802) - http://www.bohemiancoding.com/sketch -->
    <title>ui-color-2_time-countdown</title>
    <desc>Created with Sketch.</desc>
    <defs></defs>
    <g id="Page-1" stroke="none" stroke-width="1" fill="none" fill-rule="evenodd">
        <g id="Browser-Copy-11" transform="translate(-798.000000, -754.000000)">
            <g id="Group-11" transform="translate(739.000000, 735.000000)">
                <g id="Group-2" transform="translate(25.000000, 19.000000)">
                    <g id="ui-color-2_time-countdown" transform="translate(34.000000, 0.000000)">
                        <g id="Group">
                            <path d="M26.9166667,12.2708333 C26.6128329,12.2708333 26.3089992,12.15487 26.0770646,11.9229354 C25.6131954,11.4594542 25.6131954,10.7072204 26.0770646,10.2437392 L29.2437312,7.0770725 C29.7076004,6.61320333 30.4590662,6.61320333 30.9229275,7.0770725 C31.3867967,7.54055375 31.3867967,8.2927875 30.9229275,8.75626875 L27.7562608,11.9229354 C27.5243342,12.15487 27.2205004,12.2708333 26.9166667,12.2708333 L26.9166667,12.2708333 Z" id="Shape" fill="#335262"></path>
                            <ellipse id="Oval" fill="#FFFFFF" cx="17.4166667" cy="22.1666667" rx="14.25" ry="14.25"></ellipse>
                            <path d="M17.4166667,38 C8.68630125,38 1.58333333,30.8970321 1.58333333,22.1666667 C1.58333333,13.4363013 8.68630125,6.33333333 17.4166667,6.33333333 C26.1470321,6.33333333 33.25,13.4363013 33.25,22.1666667 C33.25,30.8970321 26.1470321,38 17.4166667,38 L17.4166667,38 Z M17.4166667,9.5 C10.4323696,9.5 4.75,15.1823696 4.75,22.1666667 C4.75,29.1509638 10.4323696,34.8333333 17.4166667,34.8333333 C24.4009637,34.8333333 30.0833333,29.1509638 30.0833333,22.1666667 C30.0833333,15.1823696 24.4009637,9.5 17.4166667,9.5 L17.4166667,9.5 Z" id="Shape" fill="#335262"></path>
                            <path d="M17.4166667,7.91666667 C15.2341683,7.91666667 13.4583333,6.14083167 13.4583333,3.95833333 C13.4583333,1.775835 15.2341683,0 17.4166667,0 C19.599165,0 21.375,1.775835 21.375,3.95833333 C21.375,6.14083167 19.599165,7.91666667 17.4166667,7.91666667 L17.4166667,7.91666667 Z M17.4166667,1.58333333 C16.1070125,1.58333333 15.0416667,2.64867917 15.0416667,3.95833333 C15.0416667,5.2679875 16.1070125,6.33333333 17.4166667,6.33333333 C18.7263208,6.33333333 19.7916667,5.2679875 19.7916667,3.95833333 C19.7916667,2.64867917 18.7263208,1.58333333 17.4166667,1.58333333 L17.4166667,1.58333333 Z" id="Shape" fill="#335262"></path>
                            <path d="M16.2970837,21.0470838 C16.915415,20.4287525 24.1341879,15.4491533 24.1341879,15.4491533 C24.1341879,15.4491533 19.1545887,22.6679263 18.5362575,23.2862496 C17.9179262,23.9045808 16.915415,23.9045808 16.2970837,23.2862496 C15.6787525,22.6679263 15.6787525,21.6654071 16.2970837,21.0470838 L16.2970837,21.0470838 Z" id="Shape" fill="#E86C60"></path>
                            <path d="M17.4166667,14.25 C16.9790887,14.25 16.625,13.8955313 16.625,13.4583333 L16.625,11.875 C16.625,11.4378021 16.9790887,11.0833333 17.4166667,11.0833333 C17.8542446,11.0833333 18.2083333,11.4378021 18.2083333,11.875 L18.2083333,13.4583333 C18.2083333,13.8955313 17.8542446,14.25 17.4166667,14.25 L17.4166667,14.25 Z" id="Shape" fill="#B3B3B3"></path>
                            <path d="M25.3333333,22.1666667 C25.3333333,21.7290887 25.6878021,21.375 26.125,21.375 L27.7083333,21.375 C28.1455312,21.375 28.5,21.7290887 28.5,22.1666667 C28.5,22.6042446 28.1455312,22.9583333 27.7083333,22.9583333 L26.125,22.9583333 C25.6878021,22.9583333 25.3333333,22.6042446 25.3333333,22.1666667 L25.3333333,22.1666667 Z" id="Shape" fill="#B3B3B3"></path>
                            <path d="M17.4166667,30.0833333 C17.8542446,30.0833333 18.2083333,30.4378021 18.2083333,30.875 L18.2083333,32.4583333 C18.2083333,32.8955313 17.8542446,33.25 17.4166667,33.25 C16.9790887,33.25 16.625,32.8955313 16.625,32.4583333 L16.625,30.875 C16.625,30.4378021 16.9790887,30.0833333 17.4166667,30.0833333 L17.4166667,30.0833333 Z" id="Shape" fill="#B3B3B3"></path>
                            <path d="M9.5,22.1666667 C9.5,22.6042446 9.14553125,22.9583333 8.70833333,22.9583333 L7.125,22.9583333 C6.68780208,22.9583333 6.33333333,22.6042446 6.33333333,22.1666667 C6.33333333,21.7290887 6.68780208,21.375 7.125,21.375 L8.70833333,21.375 C9.14553125,21.375 9.5,21.7290887 9.5,22.1666667 L9.5,22.1666667 Z" id="Shape" fill="#B3B3B3"></path>
                            <path d="M31.8024929,11.7954375 L26.2045625,6.19750708 C25.8953929,5.88834542 25.8953929,5.38708583 26.2045625,5.07792417 L27.8839408,3.39854583 C28.1931104,3.08938417 28.6943621,3.08938417 29.0035317,3.39854583 L34.6014621,8.99647625 C34.9106238,9.30563792 34.9106238,9.8068975 34.6014621,10.1160592 L32.9220838,11.7954375 C32.6129142,12.1045992 32.1116625,12.1045992 31.8024929,11.7954375 L31.8024929,11.7954375 Z" id="Shape" fill="#B3B3B3"></path>
                            <path d="M7.91666667,12.2708333 C7.61283292,12.2708333 7.30899917,12.15487 7.07706458,11.9229354 L3.91039792,8.75626875 C3.44652875,8.2927875 3.44652875,7.54055375 3.91039792,7.0770725 C4.37426708,6.61320333 5.12573292,6.61320333 5.58959417,7.0770725 L8.75626083,10.2437392 C9.22013,10.7072204 9.22013,11.4594542 8.75626083,11.9229354 C8.52433417,12.15487 8.22050042,12.2708333 7.91666667,12.2708333 L7.91666667,12.2708333 Z" id="Shape" fill="#335262"></path>
                            <path d="M3.03084042,11.7954375 L8.62877083,6.19750708 C8.9379325,5.88834542 8.9379325,5.38708583 8.62877083,5.07792417 L6.9493925,3.39854583 C6.64023083,3.08938417 6.13897125,3.08938417 5.82980958,3.39854583 L0.231879167,8.99647625 C-0.0772825,9.30563792 -0.0772825,9.8068975 0.231879167,10.1160592 L1.9112575,11.7954375 C2.22041917,12.1045992 2.72167083,12.1045992 3.03084042,11.7954375 L3.03084042,11.7954375 Z" id="Shape" fill="#B3B3B3"></path>
                        </g>
                    </g>
                </g>
            </g>
        </g>
    </g>
</svg>